<?xml version="1.0" standalone="no"?>
<!DOCTYPE svg PUBLIC "-//W3C//DTD SVG 1.1//EN" "http://www.w3.org/Graphics/SVG/1.1/DTD/svg11.dtd" >
<svg xmlns="http://www.w3.org/2000/svg" xmlns:xlink="http://www.w3.org/1999/xlink" version="1.1">
<metadata>
Created by FontForge 20170731 at Sun Feb 14 04:17:16 2021
 By Aleksey,,,
</metadata>
<defs>
<font id="BrightfateRegular" horiz-adv-x="1499" >
  <font-face 
    font-family="Brightfate"
    font-weight="400"
    font-stretch="normal"
    units-per-em="2048"
    panose-1="0 0 0 0 0 0 0 0 0 0"
    ascent="1638"
    descent="-410"
    x-height="980"
    cap-height="1434"
    bbox="41.4942 -570 5570 2194"
    underline-thickness="102"
    underline-position="-307"
    unicode-range="U+000A-FB06"
  />
<missing-glyph horiz-adv-x="1079" 
d="M102 1434h875v-1434h-875v1434zM160 1393l379 -633l381 633h-760zM514 717l-369 614v-1231zM541 674l-379 -631h758zM565 717l371 -621v1239z" />
    <glyph glyph-name=".notdef" horiz-adv-x="1079" 
d="M102 1434h875v-1434h-875v1434zM160 1393l379 -633l381 633h-760zM514 717l-369 614v-1231zM541 674l-379 -631h758zM565 717l371 -621v1239z" />
    <glyph glyph-name=".null" horiz-adv-x="0" 
 />
    <glyph glyph-name=".null" horiz-adv-x="0" 
 />
    <glyph glyph-name="nonmarkingreturn" horiz-adv-x="682" 
 />
    <glyph glyph-name="controlLF" unicode="&#xa;" horiz-adv-x="0" 
 />
    <glyph glyph-name="controlCR" unicode="&#xd;" horiz-adv-x="0" 
 />
    <glyph glyph-name="space" unicode=" " horiz-adv-x="542" 
 />
    <glyph glyph-name="exclam" unicode="!" horiz-adv-x="546" 
d="M409 417h-277l-51 373v532q0 73 80 111h219q79 -38 79 -111v-532zM274 -36q-81 0 -138.5 57.5t-57.5 138.5t57.5 138t138.5 57t138.5 -57t57.5 -138t-57.5 -138.5t-138.5 -57.5z" />
    <glyph glyph-name="quotedbl" unicode="&#x22;" horiz-adv-x="716" 
d="M285 1932q22 0 34 -16q13 -17 8 -37l-56 -241l-26 -114q-4 -15 -15.5 -24t-26.5 -9t-26.5 9t-15.5 24l-26 114l-56 241q-5 20 8 37q12 16 34 16h164zM630 1916q13 -17 8 -37l-56 -241l-27 -114q-8 -33 -41 -33q-15 0 -26.5 9t-15.5 24l-27 114l-55 241q-5 20 8 37
q12 16 33 16h165q22 0 34 -16z" />
    <glyph glyph-name="numbersign" unicode="#" horiz-adv-x="1726" 
d="M1631 897h-193l-45 -362h193l-16 -136h-194l-49 -400h-371l49 400h-363l-49 -400h-371l49 400h-193l17 136h193l44 362h-193l17 136h193l49 400h372l-49 -400h362l49 400h372l-49 -400h193zM1022 535l44 362h-362l-45 -362h363z" />
    <glyph glyph-name="dollar" unicode="$" horiz-adv-x="1337" 
d="M736 877q23 -9 84.5 -32t87.5 -33t74.5 -30t74.5 -34t55.5 -33.5t48.5 -38.5q62 -63 85 -145t7 -163t-57.5 -156t-109 -131.5t-145.5 -81.5h-205v-152h-135v152h-268q-147 60 -255 169l270 266q136 -188 253 -276v397q-21 8 -84.5 31.5t-88 33.5t-74 30.5t-75 34
t-55.5 33t-49 38.5q-77 78 -92.5 185t21.5 203.5t115.5 177t176.5 111.5h205v152h135v-152h267q149 -61 256 -169l-270 -266q-137 190 -253 277v-398zM601 931v415q-17 6 -29 8q-70 17 -125 13.5t-96.5 -19t-62 -45t-22.5 -64.5t22 -79t72 -87q79 -72 241 -142zM765 78
q70 -17 125 -13t96.5 19t62 44.5t22.5 65t-22 79.5t-72 87q-77 70 -241 141v-415q16 -6 29 -8z" />
    <glyph glyph-name="percent" unicode="%" horiz-adv-x="1878" 
d="M887 1064q0 -121 -92.5 -223.5t-208.5 -144.5h-212q-115 41 -205.5 143.5t-90.5 224.5t90.5 225t205.5 144h212q116 -41 208.5 -144.5t92.5 -224.5zM270 1178q15 -156 123 -279q83 -94 169 -113t117 53q18 42 11 112q-15 156 -123 279q-83 94 -169 113t-117 -53
q-18 -42 -11 -112zM1499 736q116 -42 209 -144.5t93 -223.5t-93 -224t-209 -145h-211q-115 41 -205.5 144t-90.5 225t90.5 224.5t205.5 143.5h211zM1184 481q15 -156 123 -279q83 -93 169 -112t117 53q18 43 11 112q-15 156 -123 279q-83 93 -169 112t-117 -53
q-18 -43 -11 -112zM1368 1433h136l-993 -1434h-136z" />
    <glyph glyph-name="ampersand" unicode="&#x26;" horiz-adv-x="1959" 
d="M1607 287q100 -14 276 -25v-263q-82 0 -185 9q-165 15 -328 60q-84 -42 -192 -69h-638q-142 35 -253 105q-92 58 -150.5 140.5t-58.5 179.5q0 68 27.5 127.5t71.5 103.5t104.5 81t121 61.5t127.5 42.5q-52 19 -100.5 45t-98.5 62.5t-80.5 85.5t-30.5 101q0 81 60 145
t147 109q46 24 105 45h673q38 -58 50.5 -131t-9 -144t-76.5 -111q-13 41 -48 94q-98 146 -256 206q-129 49 -225 16q-85 -29 -90 -108q-2 -65 52 -148q93 -139 241 -201q-54 -18 -87.5 -31t-83 -36.5t-87 -52t-61.5 -62.5q-48 -66 -43.5 -143t46 -151.5t113.5 -142.5
q89 -83 199.5 -138.5t215 -69t181.5 31.5q-112 40 -210 91t-140 82l-42 31q-117 82 -175.5 170t-30.5 166q18 50 69.5 88t117 60t143.5 46.5t150 49.5t136.5 68t102 101.5t47 151.5t-28.5 217h368q2 -104 -36.5 -193t-111 -159t-148.5 -120t-177 -100l360 -360
q16 -53 8.5 -109t-32.5 -105zM1372 339q4 74 -22 144.5t-71.5 122.5t-105 91t-119.5 55.5t-118 10.5t-98 -39q-16 -13 -22 -30.5t0.5 -40t26 -47.5t57.5 -55t92 -61q151 -87 380 -151z" />
    <glyph glyph-name="quotesingle" unicode="'" horiz-adv-x="405" 
d="M245 1133q-4 -15 -15.5 -24t-26.5 -9t-26.5 9t-15.5 24l-26 114l-56 241q-4 19 8 36t34 17h164q22 0 34 -17t8 -36l-56 -241z" />
    <glyph glyph-name="parenleft" unicode="(" horiz-adv-x="765" 
d="M688 1887q-218 -534 -218 -1171q0 -636 218 -1170h-134q-211 197 -343.5 507t-132.5 663t132.5 663.5t343.5 507.5h134z" />
    <glyph glyph-name="parenright" unicode=")" horiz-adv-x="765" 
d="M212 1887q211 -197 343.5 -507.5t132.5 -663.5t-132.5 -663t-343.5 -507h-134q218 534 218 1170q0 637 -218 1171h134z" />
    <glyph glyph-name="asterisk" unicode="*" horiz-adv-x="825" 
d="M128 1592q-44 25 -47 76l-3 61l54 27q45 23 89 -2q19 -11 29 -25l127 -173l-213 24q-20 2 -36 12zM412 1577l-85 196q-8 18 -8 38q0 51 42 78l51 33l51 -33q43 -28 43 -78q0 -20 -8 -38v0zM661 1580l-213 -24l127 173q10 14 29 25q44 25 89 2l54 -27l-3 -61
q-3 -51 -47 -76q-18 -10 -36 -12zM697 1479q44 -25 47 -76l3 -60l-54 -28q-44 -23 -89 3q-21 13 -29 25v0l-127 172l213 -24q18 -1 36 -12zM498 1299v-1q8 -18 8 -37q0 -50 -43 -78l-51 -33l-51 33q-42 27 -42 78q0 20 8 38l85 196zM164 1491l213 24l-127 -172v0
q-10 -14 -29 -25q-45 -26 -89 -3l-54 28l3 60q3 51 47 76q18 11 36 12z" />
    <glyph glyph-name="plus" unicode="+" horiz-adv-x="1122" 
d="M675 830h369v-228h-369v-369h-228v369h-369v228h369v369h228v-369z" />
    <glyph glyph-name="comma" unicode="," horiz-adv-x="546" 
d="M274 355q81 0 138.5 -57t57.5 -138v-6q-2 -115 -93.5 -221.5t-213.5 -147.5l-38 67q98 45 122 114q-72 10 -120.5 65t-48.5 129q0 81 57.5 138t138.5 57z" />
    <glyph glyph-name="hyphen" unicode="-" horiz-adv-x="1122" 
d="M1044 602h-966v228h966v-228z" />
    <glyph glyph-name="period" unicode="." horiz-adv-x="546" 
d="M274 355q81 0 138.5 -57t57.5 -138t-57.5 -138.5t-138.5 -57.5t-138.5 57.5t-57.5 138.5t57.5 138t138.5 57z" />
    <glyph glyph-name="slash" unicode="/" horiz-adv-x="802" 
d="M492 1433h232l-414 -1433h-232z" />
    <glyph glyph-name="zero" unicode="0" horiz-adv-x="1517" 
d="M964 1434q208 -74 342 -271.5t134 -445.5t-134 -445.5t-342 -271.5h-411q-208 74 -341.5 271.5t-133.5 445.5t133.5 445.5t341.5 271.5h411zM322 952q26 -277 202 -512q131 -176 293 -259q158 -81 263 -32q123 58 118 276q0 28 -3 57q-26 277 -202 512q-131 176 -293 259
q-158 81 -263 32q-123 -58 -118 -276q0 -28 3 -57z" />
    <glyph glyph-name="one" unicode="1" horiz-adv-x="847" 
d="M237 128v1111l-11 -8l-27 -21q-25 -19 -41 -40.5t-23 -49.5t-9 -44t-4 -51l-12 -1l-32 -1v174l107 81l182 138l23 18h219v-1306q0 -33 23.5 -56.5t56.5 -23.5h79v-48h-690v48h79q33 0 56.5 23.5t23.5 56.5z" />
    <glyph glyph-name="two" unicode="2" horiz-adv-x="1239" 
d="M132 1434h665h53q117 -39 202 -145t104 -230q16 -105 -22 -195q-22 -52 -66.5 -97.5t-100 -80t-122 -67t-135 -62t-135.5 -61t-126 -68.5t-105 -79.5t-74.5 -99.5t-31.5 -123q-2 -36 20 -56t68 -20h581q79 0 136 53.5t61 132.5l5 73h47l-18 -307h-1060v355q-1 28 0 55
q0 132 81 236q39 51 118 103t165.5 92t179 87t165.5 88.5t118.5 94t43.5 106.5q-1 34 -14.5 60.5t-32.5 44t-49.5 29.5t-56.5 18.5t-64 10t-62.5 4t-60.5 0.5h-245q-79 0 -136.5 -53.5t-61.5 -132.5l-4 -73h-48z" />
    <glyph glyph-name="three" unicode="3" horiz-adv-x="1390" 
d="M214 1434h644q73 0 135.5 -16.5t104 -44.5t72 -64.5t41 -78t9 -84t-22.5 -82.5t-53.5 -73.5t-84.5 -57.5t-116 -34q119 -42 204.5 -116t125 -160t39 -181t-41 -179.5t-128 -155t-210.5 -107.5h-498q-69 20 -128 49.5t-112.5 72t-84.5 103.5t-31 133q0 99 58 177.5
t150 108.5q36 -153 125 -273.5t205 -197.5q113 -75 221.5 -93t165.5 27q35 29 43 74.5t-9 97.5t-51 111t-84.5 117.5t-109 114.5t-124.5 104t-130 84.5t-127 57t-115 20.5v24h215q206 0 301 110q69 80 50 180q-17 95 -103 146q-63 38 -148 38h-165q-79 0 -136.5 -53.5
t-61.5 -132.5l-4 -73h-48z" />
    <glyph glyph-name="four" unicode="4" horiz-adv-x="1474" 
d="M848 339v957l1 1q83 7 165.5 44t147.5 93h58v-1081q53 21 86.5 67.5t37.5 104.5l4 73h48l-18 -307h-158v-163q0 -33 23.5 -56.5t56.5 -23.5h79v-48h-690v48h79q33 0 56.5 23.5t23.5 56.5v163h-674l-96 166q37 51 112.5 151t136 183.5t104.5 153.5t46.5 144t-31 137.5
t-85 116t-115.5 91.5h458q45 -65 50 -134.5t-23.5 -132.5t-76.5 -128.5t-106.5 -127t-116.5 -121.5t-104 -119t-70.5 -114.5t-14 -111.5t62.5 -106h543z" />
    <glyph glyph-name="five" unicode="5" horiz-adv-x="1413" 
d="M294 1434h891l18 -307h-48l-4 73q-4 79 -61.5 132.5t-136.5 53.5h-367l-104 -396h1l12 3q83 22 172 24.5t174.5 -14t165.5 -53.5t144 -90t110 -128.5t64 -163.5q39 -195 -89 -370q-102 -138 -304 -198h-498q-69 20 -128 49.5t-112.5 72t-84.5 103.5t-31 133
q0 99 58 177.5t150 108.5q36 -153 125 -273.5t205 -197.5q238 -157 345 -86q78 51 64 199q-15 156 -117 318q-115 181 -275 256q-184 86 -376 -2l-104 79z" />
    <glyph glyph-name="six" unicode="6" horiz-adv-x="1454" 
d="M1222 1434l19 -307h-48l-5 73q-4 79 -61 132.5t-136 53.5h-379q-88 -16 -160 -97t-104.5 -183t-21.5 -188q61 68 121.5 107.5t134.5 62.5q77 24 156.5 26.5t152 -15.5t141.5 -51t125 -81.5t101.5 -106t73.5 -126t39 -139t-1 -147.5t-48 -150q-101 -206 -358 -298h-411
q-166 59 -287.5 200t-165.5 328q-22 94 -22 189q0 248 133.5 445.5t341.5 271.5h669zM400 635q72 -210 253 -357q146 -119 293 -143q136 -22 193 54q61 81 4 248q-72 210 -253 357q-146 119 -293 143q-136 22 -193 -54q-61 -81 -4 -248z" />
    <glyph glyph-name="seven" unicode="7" horiz-adv-x="1212" 
d="M191 0q0 124 36 254.5t76 226t147 256.5t167 242t218 288q42 55 63 83q6 12 -2.5 24t-24.5 12h-408h-135q-79 0 -136.5 -53.5t-61.5 -132.5l-4 -73h-48l18 307h985q19 -46 52 -80q-122 -146 -213 -302t-153 -331t-79 -353t10 -368h-507z" />
    <glyph glyph-name="eight" unicode="8" horiz-adv-x="1718" 
d="M1188 830q67 -18 127.5 -42t121.5 -60.5t105 -79.5t71.5 -102t27.5 -126q0 -96 -58.5 -177t-150.5 -140q-106 -67 -254 -103h-638q-147 36 -253 103q-92 59 -150.5 140t-58.5 177q0 67 27.5 126t71.5 102t104.5 79.5t121 60.5t127.5 42q-52 19 -100.5 44.5t-98.5 61.5
t-80.5 84t-30.5 100q0 79 60.5 143.5t146.5 108.5q71 36 163 62h538q94 -26 164 -62q78 -39 129 -90t70.5 -108t-6.5 -119.5t-99 -119.5q-79 -61 -198 -105zM1122 1142q-98 146 -256 205q-129 49 -225 16q-86 -28 -90 -108q-3 -64 52 -148q97 -145 256 -207q130 -50 227 -20
q86 27 92 105q4 67 -56 157zM529 408q122 -182 323 -269q166 -72 305 -47q121 22 154 108q38 102 -65 255q-122 182 -323 269q-166 72 -305 47q-121 -21 -154 -108q-38 -101 65 -255z" />
    <glyph glyph-name="nine" unicode="9" horiz-adv-x="1454" 
d="M1054 799q-71 210 -252 357q-147 118 -293 142q-137 22 -194 -54q-33 -44 -31 -115q0 -19 3 -40q5 -34 24 -93q33 -97 89 -179q81 -120 198 -205q84 -60 169 -91q92 -36 170.5 -28t115.5 61q57 80 1 245zM1376 717q0 -147 -53 -287t-163 -257t-260 -173h-552
q-73 27 -119 85.5t-52 121.5t20 123q53 -34 123 -68t153 -63.5t167 -47.5t165 -22t147 14.5t113 62.5t64 120.5t-2 188.5q-27 -30 -69 -67q-61 -51 -121 -78q-29 -14 -66 -25q-200 -62 -393 15t-304 243q-66 99 -87 209t10 231q15 52 35 93q101 206 357 298h411
q166 -59 288 -200.5t166 -328.5q22 -94 22 -188z" />
    <glyph glyph-name="colon" unicode=":" horiz-adv-x="548" 
d="M388 237q-66 -47 -146 -34.5t-127 78.5t-34.5 146.5t78.5 127.5t146.5 34t127.5 -79t34 -146t-79 -127zM367 864q-71 -38 -149 -14t-116 95t-14.5 149t94.5 116t149 14.5t116 -94.5t14.5 -149.5t-94.5 -116.5z" />
    <glyph glyph-name="semicolon" unicode=";" horiz-adv-x="546" 
d="M274 841q-81 0 -138.5 57.5t-57.5 138.5t57.5 138t138.5 57t138.5 -57t57.5 -138t-57.5 -138.5t-138.5 -57.5zM274 592q81 0 138.5 -57.5t57.5 -138.5v-5q-2 -115 -93.5 -221.5t-213.5 -147.5l-38 66q98 45 122 114q-72 10 -120.5 65t-48.5 129q0 81 57.5 138.5
t138.5 57.5z" />
    <glyph glyph-name="less" unicode="&#x3c;" horiz-adv-x="1159" 
d="M1082 1166l-623 -450l623 -449l-182 -143l-822 592l822 593z" />
    <glyph glyph-name="equal" unicode="=" horiz-adv-x="1122" 
d="M1044 364h-966v228h966v-228zM1044 840h-966v228h966v-228z" />
    <glyph glyph-name="greater" unicode="&#x3e;" horiz-adv-x="1159" 
d="M261 1309l821 -593l-821 -592l-183 143l623 449l-623 450z" />
    <glyph glyph-name="question" unicode="?" horiz-adv-x="1200" 
d="M487 355q81 0 138.5 -57t57.5 -138t-57.5 -138.5t-138.5 -57.5t-138.5 57.5t-57.5 138.5t57.5 138t138.5 57zM1120 1059q12 -76 -25.5 -147t-106 -122t-156 -85t-177.5 -43l-33 -245h-276l-46 334l408 208q92 51 150 123.5t55 135.5q-2 35 -16.5 62.5t-34 44.5
t-53.5 29.5t-59 18t-68.5 8.5t-63.5 3.5t-61 0.5h-229q-79 0 -136.5 -53.5t-61.5 -132.5l-4 -73h-48l18 307h718q118 -39 202.5 -144.5t103.5 -229.5z" />
    <glyph glyph-name="at" unicode="@" horiz-adv-x="2568" 
d="M1576 1887q195 -49 364 -159.5t290 -263t190.5 -346.5t69.5 -402q0 -46 -5 -101q-9 -111 -70 -201t-156 -140q-91 -48 -196 -48h-569q-49 0 -84 35t-35 84q0 -60 -47 -96v2q-28 -25 -63 -25h-243q-132 0 -221 137q-86 131 -92 318q-7 206 88 349q118 175 346 176h556
v-852q0 -33 23.5 -56.5t56.5 -23.5h49q118 0 205.5 77.5t101.5 194.5q10 80 10 170q0 179 -43.5 347t-123 303.5t-185.5 237.5t-237.5 157.5t-271.5 55.5t-271.5 -55.5t-237.5 -157.5t-185.5 -237.5t-123 -303.5t-43.5 -347t43.5 -347t123 -303.5t185.5 -237.5t237.5 -157.5
t271.5 -55.5h246q335 86 573 349l70 -62q-245 -268 -597 -356h-584q-194 48 -360.5 156t-290.5 262q-126 157 -194.5 349.5t-68.5 402.5q0 208 69.5 402t190.5 346.5t290 263t364 159.5h584zM1328 368v791q-75 0 -139 -58.5t-102 -147.5t-52 -197t0.5 -206t65.5 -175.5
t133 -103.5q36 -12 65 20t29 77z" />
    <glyph glyph-name="A" unicode="A" horiz-adv-x="1718" 
d="M928 564l-69 169l-39 99q-14 55 7 108l134 330q17 42 -8 79t-65 37h-288q35 -2 54 -32t6 -63l-251 -620q-15 -39 8 -73t65 -34h446zM947 516h-577q-14 -133 38 -262l103 -254h-433l520 1287q14 33 -5 64t-51 35h-28h-63v48h439q40 0 72.5 -22t47.5 -60l501 -1239
q12 -30 38.5 -47.5t58.5 -17.5h32v-48h-664v48h91q25 0 38.5 20.5t4.5 43.5z" />
    <glyph glyph-name="B" unicode="B" horiz-adv-x="1546" 
d="M821 694h-212v-566q0 -30 19 -52t48 -27h145q133 0 228 94.5t95 227.5t-95 228t-228 95zM1110 1h-371v-1h-661v48h79q33 0 56.5 23.5t23.5 56.5v1178q0 33 -23.5 56.5t-56.5 23.5h-79v48h962q148 0 253.5 -105.5t105.5 -253.5t-105.5 -253t-253.5 -105h70q148 0 253 -105
t105 -253t-105 -253t-253 -105zM609 741h143q133 0 227.5 94.5t94.5 227.5t-94.5 228t-227.5 95h-498l296 -296q59 -59 59 -143v-81v-125z" />
    <glyph glyph-name="C" unicode="C" horiz-adv-x="1361" 
d="M553 1434h711l18 -307h-48l-4 73q-4 79 -61.5 132.5t-136.5 53.5h-376q-90 0 -159.5 -61.5t-101.5 -157.5t-24 -201q6 -81 26 -161.5t50 -151t68.5 -137.5t83.5 -122.5t94.5 -105.5t101 -86t103.5 -64.5t101.5 -41t95.5 -15t85 12.5q33 11 102 51v-75l-129 -70h-599
q-154 62 -263.5 177.5t-160.5 251.5t-51 288t50.5 288t160 251.5t263.5 177.5z" />
    <glyph glyph-name="D" unicode="D" horiz-adv-x="1626" 
d="M609 947v-819q0 -33 23.5 -56.5t56.5 -23.5h98q66 0 121 24.5t92 64.5t65.5 97t45 116t26.5 127.5t13.5 124.5t3.5 115t-3.5 115t-13.5 124.5t-26.5 127.5t-45 116t-65.5 97t-92 64.5t-121 24.5h-533l296 -296q59 -59 59 -143zM78 1434h853q128 0 232.5 -40.5
t174.5 -108.5t118 -161t69.5 -195t21.5 -212t-21.5 -212t-69.5 -195t-118 -161t-174.5 -108.5t-232.5 -40.5h-853v48h79q33 0 56.5 23.5t23.5 56.5v1178q0 33 -23.5 56.5t-56.5 23.5h-79v48z" />
    <glyph glyph-name="E" unicode="E" horiz-adv-x="1409" 
d="M609 947v-173h281q95 0 143 62.5t59 161.5h48v-496h-48q-11 99 -59 161.5t-143 62.5h-281v-598q0 -35 25 -58l17 -12l3 -2h1l1 -1l19 -6q5 -1 149 -1q158 0 280 106.5t181 265.5l45 -18l-103 -402h-1149v48h79q33 0 56.5 23.5t23.5 56.5v1178q0 33 -23.5 56.5t-56.5 23.5
h-79v48h1154l18 -307h-48l-4 73q-4 79 -61.5 132.5t-136.5 53.5h-746l296 -296q59 -59 59 -143z" />
    <glyph glyph-name="F" unicode="F" horiz-adv-x="1329" 
d="M609 947v-173h281q95 0 143 62.5t59 161.5h48v-496h-48q-11 99 -59 161.5t-143 62.5h-281v-598q0 -33 23.5 -56.5t56.5 -23.5h79v-48h-690v48h79q33 0 56.5 23.5t23.5 56.5v1178q0 33 -23.5 56.5t-56.5 23.5h-79v48h1154l18 -307h-48l-4 73q-4 79 -61.5 132.5
t-136.5 53.5h-746l296 -296q59 -59 59 -143z" />
    <glyph glyph-name="G" unicode="G" horiz-adv-x="1361" 
d="M553 1434h711l18 -307h-48l-4 73q-4 79 -61.5 132.5t-136.5 53.5h-376q-90 0 -159.5 -61.5t-101.5 -157.5t-24 -201q12 -152 69.5 -296.5t141 -253t181 -189t196 -117.5t179.5 -26l-168 167q-59 59 -59 143v252q0 33 -23.5 56.5t-56.5 23.5h-80v48h385q60 0 103 -43
t43 -103v-628h-728q-154 62 -263.5 177.5t-160.5 251.5t-51 288t50.5 288t160 251.5t263.5 177.5z" />
    <glyph glyph-name="H" unicode="H" horiz-adv-x="1699" 
d="M1621 1434v-48h-515l296 -296q59 -59 59 -143v-819q0 -33 23.5 -56.5t56.5 -23.5h80v-48h-691v48h80q33 0 56.5 23.5t23.5 56.5v598h-481v-598q0 -33 23.5 -56.5t56.5 -23.5h79v-48h-690v48h79q33 0 56.5 23.5t23.5 56.5v1178q0 33 -23.5 56.5t-56.5 23.5h-79v48h690v-48
h-514l296 -296q59 -59 59 -143v-173h481v532q0 33 -23.5 56.5t-56.5 23.5h-80v48h691z" />
    <glyph glyph-name="I" unicode="I" horiz-adv-x="847" 
d="M768 1434v-48h-514l296 -296q59 -59 59 -143v-819q0 -33 23.5 -56.5t56.5 -23.5h79v-48h-690v48h79q33 0 56.5 23.5t23.5 56.5v1178q0 33 -23.5 56.5t-56.5 23.5h-79v48h690z" />
    <glyph glyph-name="J" unicode="J" horiz-adv-x="847" 
d="M768 1434v-48h-514l296 -296q59 -59 59 -143v-54h-2q2 -24 2 -36v-769q0 -84 -59 -143l-431 -430l-37 36q72 72 108 109q47 56 47 130v1516q0 33 -23.5 56.5t-56.5 23.5h-79v48h690z" />
    <glyph glyph-name="K" unicode="K" horiz-adv-x="1636" 
d="M78 1434h690v-48h-514l296 -296q59 -59 59 -143v-521l303 592q16 32 26 51q14 28 24.5 49.5t24 56t19 61t5 56t-12 48.5t-38.5 32t-69 13v49h571v-49q-63 -3 -117 -17t-94 -32t-78.5 -52t-63.5 -62.5t-56 -79t-49.5 -84.5t-49.5 -95q-3 -5 -4 -8l-21 -42l517 -865l-38 63
q38 -63 111 -63h38v-48h-642v48h46q15 0 21 12q6 11 -1 24l-257 429l-115 -225v-160q0 -33 23.5 -56.5t56.5 -23.5h79v-48h-690v48h79q33 0 56.5 23.5t23.5 56.5v1178q0 33 -23.5 56.5t-56.5 23.5h-79v48z" />
    <glyph glyph-name="L" unicode="L" horiz-adv-x="1409" 
d="M609 947v-819q0 -35 25 -58l17 -12l3 -2h1l1 -1l19 -6q5 -1 149 -1q158 0 280 106.5t181 265.5l45 -18l-103 -402h-1149v48h79q33 0 56.5 23.5t23.5 56.5v1178q0 33 -23.5 56.5t-56.5 23.5h-79v48h690v-48h-514l296 -296q59 -59 59 -143z" />
    <glyph glyph-name="M" unicode="M" horiz-adv-x="2142" 
d="M1548 1386l12 -12l284 -284q59 -59 59 -143v-819q0 -20 9 -36v-1v-1h1v-2h1v-1l1 -1v-1h1l1 -2l1 -1v-1h1v-1l1 -1v-1h1v-1l1 -1l1 -1l1 -1l1 -1l1 -1l1 -1l1 -1v0l1 -1l1 -1l1 -1l1 -1l2 -1l1 -1v0l2 -1l1 -1h1l1 -1v-1h2v-1h1l1 -1h1v-1h2l1 -1h1l1 -1l2 -1l2 -1h2v0
l1 -1h1h1v-1v0h2l2 -1h2h2v-1h2h2l4 -1h2h2h2h2h80v-48h-691v48h79q33 0 57 23.5t24 56.5v1169l-220 -599l-219 -599l-23 -62l-46 30l-311 206q-99 65 -131 144l-213 527v383q0 17 -12.5 29.5t-29.5 12.5t-29.5 -12.5t-12.5 -29.5v-1199q0 -33 23.5 -56.5t56.5 -23.5h80v-48
h-367v48h79q33 0 56.5 23.5t23.5 56.5v1178q0 33 -23.5 56.5t-56.5 23.5h-79v48h494l393 -1007l99 -253l191 523l246 671l24 66h538v-48h-515z" />
    <glyph glyph-name="N" unicode="N" horiz-adv-x="1675" 
d="M369 955v372q0 17 -12.5 29.5t-29.5 12.5t-29.5 -12.5t-12.5 -29.5v-1199q0 -33 23.5 -56.5t56.5 -23.5h80v-48h-367v48h79q33 0 56.5 23.5t23.5 56.5v1178q0 33 -23.5 56.5t-56.5 23.5h-79v48h338l29 -30l944 -944v846q0 33 -23.5 56.5t-56.5 23.5h-79v48h367v-48h-80
q-33 0 -56.5 -23.5t-23.5 -56.5v-1306h-113z" />
    <glyph glyph-name="O" unicode="O" horiz-adv-x="1708" 
d="M1154 1434q154 -62 263.5 -177.5t160 -251.5t50.5 -288t-51 -288t-160.5 -251.5t-263.5 -177.5h-599q-154 62 -263.5 177.5t-160.5 251.5t-51 288t50.5 288t160 251.5t263.5 177.5h601zM371 966q23 -294 206 -544q138 -187 313 -280q171 -91 293 -47q134 47 153 245
q6 58 0 128q-23 294 -206 544q-138 187 -313 280q-171 91 -293 47q-134 -47 -153 -245q-6 -58 0 -128z" />
    <glyph glyph-name="P" unicode="P" horiz-adv-x="1476" 
d="M609 694v-566q0 -33 23.5 -56.5t56.5 -23.5h79v-48h-690v48h79q33 0 56.5 23.5t23.5 56.5v1178q0 33 -23.5 56.5t-56.5 23.5h-79v48h962q148 0 253.5 -105.5t105.5 -253.5q0 -16 -1 -24h1q0 -148 -105.5 -253t-253.5 -105l-301 1h-130zM722 741h30q130 0 223.5 90.5
t98.5 219.5v12v12q-5 129 -98.5 220t-223.5 91h-498l296 -296q59 -59 59 -143v-206h113z" />
    <glyph glyph-name="Q" unicode="Q" horiz-adv-x="1708" 
d="M1154 1434q113 -46 203 -121t147.5 -165t89.5 -195.5t35.5 -211.5t-22.5 -213t-77.5 -200t-134.5 -173t-190 -132l-351 -171q160 45 313.5 56t252.5 -3.5t162 -44.5l-24 -41l-175 -304q-93 103 -266 154.5t-369.5 40t-358.5 -83.5l-36 63q53 29 142 72.5t151.5 73
t189.5 89.5t162 76h-444q-154 62 -263.5 177.5t-160.5 251.5t-51 288t50.5 288t160 251.5t263.5 177.5h601zM371 966q23 -294 206 -544q138 -187 313 -280q171 -91 293 -47q134 47 153 245q6 58 0 128q-23 294 -206 544q-138 187 -313 280q-171 91 -293 47
q-134 -47 -153 -245q-6 -58 0 -128z" />
    <glyph glyph-name="R" unicode="R" horiz-adv-x="1626" 
d="M609 689v-561q0 -33 23.5 -56.5t56.5 -23.5h79v-48h-690v48h79q33 0 56.5 23.5t23.5 56.5v1178q0 33 -23.5 56.5t-56.5 23.5h-79v48h962q155 0 261.5 -114.5t96.5 -268.5h1q0 -148 -105.5 -253.5t-253.5 -104.5l-318 1h-56l358 -132v0h1v0v0q133 -49 206 -171l167 -280
q38 -63 110 -63h39v-48h-642v48h46q14 0 20.5 12t-0.5 24zM722 741h30q130 0 223.5 90.5t98.5 219.5v24q-5 129 -98.5 220t-223.5 91h-498l296 -296q59 -59 59 -143v-206h113z" />
    <glyph glyph-name="S" unicode="S" horiz-adv-x="1337" 
d="M1161 677q62 -63 85 -145t7 -163t-57.5 -156t-109 -131.5t-145.5 -81.5h-608q-147 60 -255 169l270 266q117 -162 216 -247.5t201 -108.5q70 -17 125 -13.5t96.5 19t62 45t22.5 64.5t-22 79t-72 87q-60 55 -157 102.5t-194 84t-193.5 76.5t-179.5 98t-129 131
q-32 56 -35 130q-7 135 82.5 265t244.5 187h730l19 -307h-48l-4 73q-4 79 -61.5 132.5t-136.5 53.5h-465q-93 -33 -131.5 -85t-17 -111.5t96.5 -114.5q73 -53 185 -102.5t206 -82.5t199 -89t173 -124z" />
    <glyph glyph-name="T" unicode="T" horiz-adv-x="1554" 
d="M800 0h-368v48h79q33 0 56.5 23.5t23.5 56.5v1178q0 33 -24 57q-30 28 -94 11q-118 -32 -211.5 -133.5t-139.5 -226.5l-44 17l102 403h1194l102 -403l-45 -17q-59 159 -181 265.5t-280 106.5h-362l296 -296q59 -59 59 -143v-819q0 -33 23.5 -56.5t56.5 -23.5h79v-48h-322
z" />
    <glyph glyph-name="U" unicode="U" horiz-adv-x="1699" 
d="M930 1434h691v-48h-515l296 -296q59 -59 59 -143v-664q0 -100 -84.5 -172.5t-224.5 -110.5h-606q-140 38 -224.5 110.5t-84.5 172.5v1023q0 33 -23.5 56.5t-56.5 23.5h-79v48h690v-48h-514l296 -296q59 -59 59 -143v-795q0 -25 8.5 -43.5t28 -29.5t37.5 -17.5t51 -9.5
t54.5 -3.5t60.5 -0.5t60.5 0.5t54.5 3.5t51.5 9.5t38 17.5t28 29.5t8.5 43.5v1154q0 33 -23.5 56.5t-56.5 23.5h-80v48z" />
    <glyph glyph-name="V" unicode="V" horiz-adv-x="1753" 
d="M1675 1434l-520 -1288q-14 -33 4.5 -63.5t50.5 -34.5h29h63v-48h-767v48h63h28q32 4 50.5 34.5t5.5 63.5l-122 302l-349 865q-13 34 -42.5 53.5t-65.5 19.5h-25v48h664v-48h-91q-24 0 -39 -21q-14 -20 -4 -44l427 -1058l36 -89v-1l17 -42l5 12l251 622q82 207 0 414
l-103 255h434z" />
    <glyph glyph-name="W" unicode="W" horiz-adv-x="2316" 
d="M1231 1179l-103 255h156v-48h-20q-20 0 -31 -17t-4 -34l146 -363l93 -229q87 -217 0 -435l-59 -144q-17 -42 8 -79t65 -37h233q-16 2 -27 7q-23 12 -32.5 36.5t0.5 51.5l251 622q83 207 0 414l-103 255h433l-519 -1288q-15 -35 6 -66.5t55 -31.5h115v-48h-414
q-41 0 -73 22t-47 59l-136 337l-36 90l-146 -362q-15 -35 6 -66.5t55 -31.5h115v-48h-414q-41 0 -73 22t-47 59l-136 337l-365 903q-12 30 -38.5 47.5t-58.5 17.5h-8v48h562v-48h-20q-20 0 -31 -17t-4 -34l223 -552q87 -217 0 -435l-75 -184q-17 -42 8 -79t65 -37h233
q-16 2 -27 7q-23 12 -32.5 36.5t0.5 51.5l251 622q83 207 0 414z" />
    <glyph glyph-name="X" unicode="X" horiz-adv-x="1669" 
d="M78 1434h691v-48h-48q-29 0 -42 -25q-12 -25 3 -48l341 -541l26 44l92 157q83 143 0 285l-103 176h433l-410 -701l-6 -11l377 -596q54 -78 149 -78h10v-48h-692v48h49q30 0 42 25t-3 48l-416 657l-148 -267q-36 -65 -33 -134t41 -134l91 -156l51 -87h-494l461 828
l-303 480v0q-55 78 -150 78h-9v48z" />
    <glyph glyph-name="Y" unicode="Y" horiz-adv-x="1779" 
d="M1281 0h-690v48h79q33 0 56.5 18t23.5 44v335h-7l-160 269l-23 40l-348 581q-29 50 -108 50h-26v49h691v-49h-102q-59 0 -33 -44l428 -715l36 -61l1 -1l12 -22h8l1 1l251 430q83 143 0 285l-102 176h433l-389 -665l-190 -324h-1v-335q0 -26 23.5 -44t56.5 -18h79v-48z
" />
    <glyph glyph-name="Z" unicode="Z" horiz-adv-x="1472" 
d="M78 0v48q82 0 114 63l627 1239q6 12 -2.5 24t-24.5 12h-251h-135q-79 0 -136.5 -53.5t-61.5 -132.5l-4 -73h-48l18 307h1208v-48h-5q-81 0 -114 -64l-626 -1238q-6 -12 2 -24t24 -12h347h135q79 0 136.5 53.5t61.5 132.5l4 73h48l-18 -307h-1299z" />
    <glyph glyph-name="bracketleft" unicode="[" horiz-adv-x="950" 
d="M491 1829q-42 -26 -42 -70v-2085q0 -44 42 -70l24 -9q4 -1 358 -1v-48h-795v2341h795v-48q-351 0 -358 -2z" />
    <glyph glyph-name="backslash" unicode="\" horiz-adv-x="802" 
d="M310 1433l414 -1433h-232l-414 1433h232z" />
    <glyph glyph-name="bracketright" unicode="]" horiz-adv-x="950" 
d="M78 1887h795v-2341h-795v48q354 0 358 1l24 9q42 26 42 70v2085q0 44 -42 70l-24 8q-7 2 -358 2v48z" />
    <glyph glyph-name="asciicircum" unicode="^" horiz-adv-x="1077" 
d="M698 1887l302 -418h-275l-186 258l-186 -258h-275l301 418h319z" />
    <glyph glyph-name="underscore" unicode="_" horiz-adv-x="1142" 
d="M1064 0h-986v228h986v-228z" />
    <glyph glyph-name="grave" unicode="`" horiz-adv-x="550" 
d="M466 1557q18 -29 -6 -53t-53 -6l-99 62l-210 131q-17 11 -20 31q-3 21 12 36l117 116q15 15 35 12q21 -3 32 -20l131 -210z" />
    <glyph glyph-name="a" unicode="a" horiz-adv-x="1380" 
d="M304 618l26 11l-137 238q64 68 130 90.5t181 22.5h437q77 0 134 -51t66 -126v-3v-2v-3l1 -2v-3v0v-2v-4v0v-5v-651q0 -33 23.5 -56.5t56.5 -23.5h80v-48h-365q-49 0 -84 35t-35 84q0 -49 -34 -84t-83 -35h-450q-50 33 -89.5 129t-38.5 198v1q0 91 37 161q1 2 3 5t3 5v2
t1 2h1l6 9v1q0 1 1 1l1 2l1 1q1 1 2 2.5t1 2.5l1 1l2 2l1 2l2 2v1q0 1 2 2.5t2 2.5l1 1l2 2l1 2l2 2l3 3l1 1v1l2 2l2 1l2 2l1 2l3 3l2 2l2 2l2 1l1 1q1 1 1 2l2 1l3 3l2 1l2 2l2 1l4 4l1 1l1 1q1 1 2 1l1 1q0 1 2 1q1 0 2 1l1 1q1 1 4 3l1 1l2 1l2 1l1 1q1 1 3 2l2 1v0l2 1
q2 1 2 2l2 1l1 1q1 1 2 1l2 1q1 1 2.5 2t2.5 1h1q1 0 2 1t2 1l1 1q0 1 2 1t3 1l1 1q1 0 2.5 1t2.5 1l1 1q0 1 2 1t3 1l1 1q1 0 3 1t3 1zM771 128v620q-130 -59 -201.5 -151.5t-78.5 -185t16.5 -176t76.5 -135.5t109 -52q33 0 55.5 23.5t22.5 56.5zM771 803v126h-7
q-90 -1 -173.5 -31t-145 -95.5t-69.5 -153.5l59 23z" />
    <glyph glyph-name="b" unicode="b" horiz-adv-x="1398" 
d="M717 45q102 27 162.5 105t74.5 175.5t-5.5 205.5t-66 196.5t-119.5 146.5t-154 58v-790q0 -45 33.5 -76.5t74.5 -20.5zM237 1306q0 33 -23.5 56.5t-56.5 23.5h-79v48h402q53 0 91 -37.5t38 -90.5v-326h212q264 0 399 -179q104 -139 99 -337q-4 -181 -95 -314
q-97 -140 -244 -149q-10 -1 -20 -1h-279q-49 0 -84 35t-35 84q0 -49 -35 -84t-85 -35h-364v48q76 0 91 1l25 8q9 2 24 18.5t16 28.5q3 21 3 24v1178z" />
    <glyph glyph-name="c" unicode="c" horiz-adv-x="1218" 
d="M842 50q29 5 74.5 25.5t104 51.5t76.5 39v-67l-195 -99h-400q-128 42 -219 121t-133.5 171.5t-42.5 196.5t42 197t132.5 172t217.5 122h585l19 -307h-48q-3 43 -9 77.5t-20 69.5t-35.5 58.5t-56.5 38.5t-81 15h-252q-99 -4 -130 -136q-32 -139 20 -340q54 -204 157 -319
q92 -104 194 -87z" />
    <glyph glyph-name="d" unicode="d" horiz-adv-x="1398" 
d="M788 932q-61 0 -118.5 -33.5t-101 -89t-75 -128t-46 -150t-8.5 -155.5t31.5 -144t79.5 -116t131 -71q41 -11 74 20.5t33 76.5v790zM1160 1097v-969q0 -3 3 -24q1 -11 16 -28t25 -19q15 -7 24 -8q15 -1 91 -1v-48h-364q-49 0 -84 35t-35 84q0 -49 -35.5 -84t-84.5 -35
h-279q-152 0 -254 137q-94 126 -104 306q-11 197 86 341q123 180 371 195l41 1h211v326q0 33 -23.5 56.5t-56.5 23.5h-79v48h402q53 0 91 -37.5t38 -90.5v-209z" />
    <glyph glyph-name="e" unicode="e" horiz-adv-x="1239" 
d="M982 958l15 -6q71 -32 107 -93.5t31.5 -124.5t-48.5 -118.5t-119 -75.5h1h-1l-9 -3l-484 -131l-2 -1q58 -166 162 -267.5t190 -87.5q49 8 188 82q42 22 68 34v-67l-196 -99h-422q-125 45 -210.5 127t-125.5 186q-9 23 -15 46q-18 73 -17.5 146t26.5 145t70 134t114 113.5
t158 82.5h465q5 -2 27 -11t27 -11zM841 721q-40 61 -87.5 106t-93.5 68.5t-89.5 22.5t-76 -26.5t-51 -85.5t-16.5 -148q3 -108 32 -206l308 83q62 17 85 76q21 58 -11 110z" />
    <glyph glyph-name="f" unicode="f" horiz-adv-x="1011" 
d="M609 733v-605q0 -33 23.5 -56.5t56.5 -23.5h79v-48h-690v48h79q33 0 56.5 23.5t23.5 56.5v958q0 143 102.5 245.5t245.5 102.5h348v-307h-29q-3 43 -9 77.5t-20 69.5t-35.5 58.5t-56.5 38.5t-81 15h-119q26 -34 26 -76v-330h274v-48h-274v-199z" />
    <glyph glyph-name="g" unicode="g" horiz-adv-x="1357" 
d="M911 66h-645q-17 0 -29.5 -12.5t-12.5 -29.5t12.5 -29.5t29.5 -12.5h820q59 0 94 -14q57 -24 79 -80.5t-1.5 -113.5t-84.5 -80h1q-65 -25 -213.5 -62.5t-152.5 -38.5q-174 -54 -305.5 -47t-229 79t-184.5 225h1022q24 0 35.5 18.5t4 39t-31.5 25.5q-5 1 -853 1
q-53 0 -79 48q-24 44 2 88t77 44h65q-91 48 -151.5 123t-84.5 158.5t-14 173t52 168t123 144t190 99.5h421q63 82 139 120.5t144.5 34.5t129.5 -41l-34 -229q-61 93 -165 128t-167 -14q118 -38 202.5 -111t123.5 -160.5t38.5 -185.5t-40 -185.5t-124 -160.5t-203.5 -110z
M959 347q-6 201 -132 374q-93 128 -204 177q-113 49 -175 -14q-54 -55 -50 -185q6 -201 132 -374q93 -128 204 -177q113 -49 175 14q54 55 50 185z" />
    <glyph glyph-name="h" unicode="h" 
d="M609 790v-662q7 -69 68 -79q8 -1 91 -1v-48h-690v48h79q33 0 56.5 23.5t23.5 56.5v1178q0 33 -23.5 56.5t-56.5 23.5h-79v48h402q53 0 91 -37.5t38 -90.5v-439l83 84q29 29 80 29h333q64 0 110 -45.5t46 -109.5v-697q0 -31 20.5 -54t51.5 -26h88v-48h-403
q-53 0 -90.5 37.5t-37.5 90.5v727q0 41 -30.5 64.5t-75 17.5t-78.5 -43z" />
    <glyph glyph-name="i" unicode="i" horiz-adv-x="847" 
d="M423 1434q81 0 138.5 -57.5t57.5 -138.5t-57.5 -138.5t-138.5 -57.5t-138.5 57.5t-57.5 138.5t57.5 138.5t138.5 57.5zM609 852v-724q0 -33 23.5 -56.5t56.5 -23.5h79v-48h-690v48h79q33 0 56.5 23.5t23.5 56.5v724q0 33 -23.5 56.5t-56.5 23.5h-79v48h402q53 0 91 -37.5
t38 -90.5z" />
    <glyph glyph-name="j" unicode="j" horiz-adv-x="745" 
d="M423 1434q81 0 138.5 -57.5t57.5 -138.5t-57.5 -138.5t-138.5 -57.5t-138.5 57.5t-57.5 138.5t57.5 138.5t138.5 57.5zM237 299v553q0 33 -23.5 56.5t-56.5 23.5h-79v48h402q53 0 91 -37.5t38 -90.5v-915v-16v-15.5t-0.5 -14t-1.5 -14.5t-3 -13t-5 -14t-7.5 -13
t-10.5 -14l-13.5 -13.5t-17.5 -14.5l-371 -284l-37 36q12 12 48 49q47 56 47 130v573z" />
    <glyph glyph-name="k" unicode="k" horiz-adv-x="1519" 
d="M609 1306v-901l343 363q41 43 54.5 79.5t-12.5 60.5t-95 24v48h472v-48q-50 0 -86 -6.5t-64.5 -17t-64 -39.5t-65 -58t-86.5 -88q-30 -31 -51 -54l339 -558q38 -63 110 -63h38v-48h-642v48h46q14 0 20.5 12t-0.5 24l-176 294q-34 -38 -54 -75t-23 -55l-3 -18v-102
q0 -33 23.5 -56.5t56.5 -23.5h79v-48h-690v48h79q33 0 56.5 23.5t23.5 56.5v1178q0 33 -23.5 56.5t-56.5 23.5h-79v48h402q53 0 91 -37.5t38 -90.5z" />
    <glyph glyph-name="l" unicode="l" horiz-adv-x="847" 
d="M609 1306v-1178q0 -33 23.5 -56.5t56.5 -23.5h79v-48h-690v48h79q33 0 56.5 23.5t23.5 56.5v1178q0 33 -23.5 56.5t-56.5 23.5h-79v48h402q53 0 91 -37.5t38 -90.5z" />
    <glyph glyph-name="m" unicode="m" horiz-adv-x="2109" 
d="M609 790v-662q0 -33 23.5 -56.5t56.5 -23.5h79v-48h-690v48h79q33 0 56.5 23.5t23.5 56.5v724q0 33 -23.5 56.5t-56.5 23.5h-79v48h402q49 0 85.5 -32.5t42.5 -81.5l84 85q17 17 31 23t39 6h322q54 0 96.5 -33.5t55.5 -84.5l88 89q17 17 31 23t39 6h322q64 0 110 -45.5
t46 -109.5v-697q0 -31 20.5 -54t51.5 -26h88v-48h-403q-53 0 -90.5 37.5t-37.5 90.5v727q0 41 -25.5 64.5t-65 17.5t-73.5 -43l-97 -104v-662q0 -31 20.5 -54t51.5 -26h88v-48h-402q-53 0 -91 37.5t-38 90.5v727q0 41 -25.5 64.5t-64.5 17.5t-73 -43z" />
    <glyph glyph-name="n" unicode="n" 
d="M609 790v-662q0 -33 23.5 -56.5t56.5 -23.5h79v-48h-690v48h79q33 0 56.5 23.5t23.5 56.5v724q0 33 -23.5 56.5t-56.5 23.5h-79v48h402q49 0 85.5 -32.5t42.5 -81.5l84 85q29 29 80 29h333q64 0 110 -45.5t46 -109.5v-697q0 -31 20.5 -54t51.5 -26h88v-48h-403
q-53 0 -90.5 37.5t-37.5 90.5v727q0 41 -30.5 64.5t-75 17.5t-78.5 -43z" />
    <glyph glyph-name="o" unicode="o" horiz-adv-x="1386" 
d="M926 980q119 -43 204 -121.5t124 -171.5t39 -197t-39.5 -197t-124.5 -171.5t-204 -121.5h-464q-119 43 -204 121.5t-124.5 171.5t-39.5 197t39.5 197t124.5 171.5t204 121.5h465zM425 658q6 -224 126 -404q86 -130 190 -175t165 23q59 65 55 220q-6 224 -126 404
q-86 130 -190 175t-165 -23q-59 -65 -55 -220z" />
    <glyph glyph-name="p" unicode="p" horiz-adv-x="1398" 
d="M717 45q94 26 152.5 103.5t75 175t0.5 205.5t-59.5 197t-117 147.5t-159.5 58.5v-790q0 -45 33.5 -77t74.5 -20zM237 980h584q264 0 399 -179q104 -139 99 -337q-4 -181 -95 -314q-97 -140 -244 -149q-10 -1 -20 -1h-279q-40 0 -72 24v-349q0 -33 23.5 -57t56.5 -24h79
v-47h-690v47h79q33 0 56.5 24t23.5 57v1177q0 33 -23.5 56.5t-56.5 23.5h-79v48h159z" />
    <glyph glyph-name="q" unicode="q" horiz-adv-x="1398" 
d="M788 932q-65 0 -123.5 -33.5t-100.5 -89.5t-71 -129t-41 -150.5t-4.5 -156t33.5 -144t77.5 -115t122.5 -69.5q41 -12 74 20t33 77v790zM1160 980h159v-48h-79q-33 0 -56.5 -23.5t-23.5 -56.5v-1177q0 -33 23.5 -57t56.5 -24h79v-47h-690v47h79q33 0 56.5 24t23.5 57v349
q-32 -24 -72 -24h-279q-152 0 -254 137q-94 126 -104 306q-11 197 86 341q123 180 371 195l41 1h583z" />
    <glyph glyph-name="r" unicode="r" horiz-adv-x="1294" 
d="M609 738v-610q0 -33 23.5 -56.5t56.5 -23.5h79v-48h-690v48h79q33 0 56.5 23.5t23.5 56.5v724q0 33 -23.5 56.5t-56.5 23.5h-79v48h402q53 0 91 -37.5t38 -90.5v-37q7 6 39.5 32t43 34t38.5 27.5t44.5 28t41.5 19t48 15.5q44 9 83 10t71 -7.5t59.5 -21t52.5 -33.5
t44.5 -41.5t40.5 -48.5l-223 -285q-13 79 -33 136t-43 90t-52.5 47.5t-58.5 14.5t-63.5 -13.5t-65.5 -33t-67 -47.5z" />
    <glyph glyph-name="s" unicode="s" horiz-adv-x="1142" 
d="M377 758q42 -14 107.5 -32t119.5 -32t119 -35t115.5 -42.5t98 -54.5t77 -70.5t43 -90t4.5 -114.5q-15 -101 -89.5 -181t-180.5 -106h-528q-25 8 -45.5 17t-41.5 23t-31 21t-34.5 27.5t-32.5 26.5l214 183q25 -27 62 -69t55.5 -62t43.5 -43t48 -37q94 -57 204 -37
q87 17 118 71q40 67 -44 143q-12 11 -27 22q-55 40 -153.5 71.5t-208 62t-171.5 61.5q-64 32 -98.5 83.5t-38 106t17 110.5t59 100t96.5 71.5t122 27.5h593l18 -307h-48q-3 43 -9 77.5t-20 69.5t-35.5 58.5t-56.5 38.5t-81 15h-337q-55 0 -85.5 -21.5t-32 -50t23.5 -58
t70 -44.5z" />
    <glyph glyph-name="t" unicode="t" horiz-adv-x="962" 
d="M610 980h274v-48h-274v-804q0 -36 39 -61q51 -34 101 -1q77 52 94 241h29v-307h-430q-84 0 -144 59.5t-60 143.5v729h-161v48h55q134 0 246 79.5t173 212.5h58v-292z" />
    <glyph glyph-name="u" unicode="u" 
d="M890 190v662q0 33 -23.5 56.5t-56.5 23.5h-80v48h691v-48h-80q-33 0 -56.5 -23.5t-23.5 -56.5v-724q0 -33 23.5 -56.5t56.5 -23.5h80v-48h-403q-49 0 -85 32.5t-42 81.5l-85 -84q-30 -30 -80 -30h-333q-64 0 -110 45.5t-46 109.5v697q0 31 -20.5 54t-51.5 26h-87v48h402
q53 0 91 -37.5t38 -90.5v-727q0 -41 30.5 -64.5t75 -17.5t78.5 43z" />
    <glyph glyph-name="v" unicode="v" horiz-adv-x="1388" 
d="M1032 294l-119 -294h-355l-59 146l-122 302l-166 412q-13 34 -42.5 53t-65.5 19h-25v48h664v-48h-91q-25 0 -39 -20t-4 -44l244 -605l36 -89v-1l17 -42l5 12l115 286l14 33q82 206 -1 414l-42 104h313z" />
    <glyph glyph-name="w" unicode="w" horiz-adv-x="1966" 
d="M1025 454l-169 -454h-335l-310 860q-14 34 -42.5 53t-65.5 19h-25v48h664v-48h-91q-25 0 -38 -20.5t-5 -43.5l246 -700l118 316l142 383q9 22 -6 44q-15 21 -40 21h-71v48h413v-48h-91q-25 0 -38.5 -20.5t-5.5 -43.5l246 -700l118 316q28 75 29 154.5t-20 159.5t-66 182
h306l-365 -980h-334z" />
    <glyph glyph-name="x" unicode="x" horiz-adv-x="1425" 
d="M673 859q102 -131 245 -346l83 127l13 21q82 127 0 255l-42 64h320l-277 -423l-63 -96q143 -217 227 -335q64 -78 156 -78h13v-48h-680v48h49q28 0 39.5 24.5t-6.5 48.5l-268 391l-113 -172l-13 -21q-82 -127 0 -255l42 -64h-320l277 423l92 140l-200 291q-62 79 -156 79
h-13v47h676v-47h-48q-28 0 -39.5 -25.5t6.5 -48.5z" />
    <glyph glyph-name="y" unicode="y" horiz-adv-x="1388" 
d="M286 -158q63 -40 146.5 -49t162.5 11t147.5 71.5t100.5 124.5h-285l-59 146l-122 302l-166 412q-13 34 -42.5 53t-65.5 19h-25v48h664v-48h-91q-25 0 -39 -20t-4 -44l244 -605l36 -89v-1l17 -42l5 12l115 286l14 33q82 206 -1 414l-42 104h313l-277 -686l-119 -294
l-10 -24q-6 -14 -17 -42q-17 -43 -26 -64.5t-27 -61t-31 -61t-35 -53.5t-42 -49.5t-48.5 -39t-59 -32.5t-69 -18.5t-81.5 -7.5h-309z" />
    <glyph glyph-name="z" unicode="z" horiz-adv-x="1214" 
d="M936 980h162l-76 -126l-251 -418l-190 -315q-17 -23 -7.5 -47t35.5 -26h277q46 0 81 15t56.5 38.5t35.5 58.5t20 69.5t9 77.5h48l-18 -307h-1040l344 571l174 288q17 22 7.5 46.5t-35.5 26.5h-225q-46 0 -81 -15t-56.5 -38.5t-35.5 -58.5t-20 -69.5t-9 -77.5h-48l19 307
h824z" />
    <glyph glyph-name="braceleft" unicode="{" horiz-adv-x="1159" 
d="M656 944q0 -75 -40 -136.5t-105 -91.5q65 -30 105 -91.5t40 -136.5v-814q0 -44 42 -70l24 -9q4 -1 359 -1v-48h-544q-104 0 -178 74t-74 178v799q0 33 -18 54t-52 29t-59 10t-62 2h-16v48q99 1 135 12q72 21 72 84v799q0 104 74 178t178 74h544v-48q-352 0 -359 -2
l-24 -8q-42 -26 -42 -70v-815z" />
    <glyph glyph-name="verticalbar" unicode="|" horiz-adv-x="331" 
d="M254 -454h-176v2341h176v-2341z" />
    <glyph glyph-name="braceright" unicode="}" horiz-adv-x="1159" 
d="M873 836q0 -27 14 -46t32.5 -28.5t48 -14.5t50.5 -6t49 -1h14v-48q-97 -1 -131 -10q-77 -20 -77 -85v-799q0 -104 -73.5 -178t-177.5 -74h-544v48q354 0 358 1l24 9q42 26 42 70v814q0 75 40 136.5t105 91.5q-65 30 -105 91.5t-40 136.5v815q0 44 -42 70l-24 8
q-7 2 -358 2v48h544q104 0 177.5 -74t73.5 -178v-799z" />
    <glyph glyph-name="asciitilde" unicode="~" horiz-adv-x="1384" 
d="M1286 940q34 -121 10 -233t-93 -183q-45 -45 -96 -62q-86 -24 -182.5 -3t-226.5 75q-22 9 -91.5 38t-103 42t-87.5 28.5t-99 21.5q-102 13 -148.5 -35.5t-18.5 -139.5l-52 3q-34 121 -10 233t93 183q47 47 95 63q86 24 181.5 2.5t227.5 -75.5q22 -9 91.5 -38t103 -42
t87.5 -28.5t99 -21.5q102 -13 148.5 36t18.5 140z" />
    <glyph glyph-name="nonbreakingspace" unicode="&#xa0;" horiz-adv-x="808" 
 />
    <glyph glyph-name="exclamdown" unicode="&#xa1;" horiz-adv-x="546" 
d="M274 1017q81 0 138.5 -57.5t57.5 -138.5t-57.5 -138.5t-138.5 -57.5t-138.5 57.5t-57.5 138.5t57.5 138.5t138.5 57.5zM459 191v-532q0 -73 -79 -111h-219q-80 38 -80 111v532l51 372h277z" />
    <glyph glyph-name="cent" unicode="&#xa2;" horiz-adv-x="1255" 
d="M589 174q104 -143 224 -123q29 5 74.5 25.5t104 51.5t76.5 39v-67l-195 -99h-384l-155 -269h-81l167 289q-115 48 -194.5 128t-115 171t-31 191.5t48 189t132 164t211.5 116.5h503l122 212h81l-122 -212h1l18 -307h-48q-7 118 -45 180zM547 241l384 665q-43 27 -107 27
h-251q-95 -4 -126.5 -123t-1.5 -279t102 -290z" />
    <glyph glyph-name="sterling" unicode="&#xa3;" horiz-adv-x="1323" 
d="M667 144q60 6 121 32.5t103 55t100 55t113 33t141 -11.5v-307q-130 22 -203 26.5t-102.5 -2.5t-105 -15.5t-185.5 -8.5q-167 0 -365 41v78q40 -3 69 -3t47 5t28 12.5t12 19t-1 24t-11 28t-17.5 31.5t-21.5 33q-20 30 -29 45q-100 165 -109 365h-173v76h174
q11 220 134.5 405t342.5 274h516v-347q-74 85 -158.5 146t-165 92t-153.5 26.5t-125.5 -43.5t-79 -127t-16.5 -215q9 -106 40 -211h349v-76h-323q43 -112 107 -209q55 -82 41.5 -168t-94.5 -159z" />
    <glyph glyph-name="currency" unicode="&#xa4;" horiz-adv-x="1357" 
d="M1046 995q114 -75 174 -190t60 -233t-60 -233t-174 -190l97 -149h-185l-54 82h-451l-53 -82h-186l97 149q-114 75 -174 190t-60 233t60 233t174 190l-97 149h186l53 -82h451l54 82h185zM410 740q6 -225 127 -405q86 -129 190 -174q105 -45 166 24q58 66 54 220
q-6 225 -127 405q-86 129 -190 174q-105 45 -166 -24q-58 -66 -54 -220z" />
    <glyph glyph-name="yen" unicode="&#xa5;" horiz-adv-x="1779" 
d="M959 1h-368v37h79q33 0 56.5 18.5t23.5 44.5v138h-240v76h240v131h-240v76h188l-115 193l-23 40l-348 581q-29 50 -108 50h-26v49h691v-49h-102q-59 0 -33 -44l428 -715l36 -61l1 -1l12 -22h8l1 1l251 430q83 142 0 285l-102 176h433l-389 -665l-145 -248h200v-76h-246
v-131h246v-76h-246v-138q0 -26 23.5 -44.5t56.5 -18.5h79v-37h-322z" />
    <glyph glyph-name="brokenbar" unicode="&#xa6;" horiz-adv-x="331" 
d="M78 1888h176v-790h-176v790zM78 338h176v-790h-176v790z" />
    <glyph glyph-name="section" unicode="&#xa7;" horiz-adv-x="1337" 
d="M981 400q112 -63 180 -136q77 -82 92.5 -195t-21.5 -216t-115 -188t-176 -117h-608q-148 63 -255 178l270 282q118 -171 216.5 -262t200.5 -115q70 -18 125 -14t96.5 20t62 47.5t22.5 68.5t-22 83.5t-72 92.5q-60 58 -157 108.5t-194 89t-193.5 80.5t-179.5 103.5
t-129 138.5q-32 61 -35 137q-6 127 66 253t200 197q-112 63 -180 136q-77 82 -92.5 195t21.5 216t115.5 188t176.5 117h607q149 -64 256 -178l-270 -282q-117 171 -216 261.5t-201 114.5q-81 17 -146.5 12.5t-104 -34t-51.5 -70t10 -95.5t80 -110q52 -49 129.5 -93.5
t154.5 -75.5t164 -68.5t160 -73.5t139 -90.5t105 -119.5q33 -63 36 -137q5 -90 -32 -184t-108 -168q-52 -55 -127 -97zM915 434q121 55 127 144.5t-103 172.5q-65 51 -151 92.5t-197.5 86t-169.5 72.5q-121 -55 -126.5 -144.5t103.5 -172.5q65 -51 151 -92.5t197.5 -86
t168.5 -72.5z" />
    <glyph glyph-name="dieresis" unicode="&#xa8;" horiz-adv-x="681" 
d="M494 2092q46 0 78.5 -32.5t32.5 -79.5t-32.5 -79.5t-78.5 -32.5t-79 33t-33 79t33 79t79 33zM189 2092q47 0 79.5 -33t32.5 -79t-32.5 -79t-79.5 -33q-46 0 -78.5 32.5t-32.5 79.5t32.5 79.5t78.5 32.5z" />
    <glyph glyph-name="copyright" unicode="&#xa9;" horiz-adv-x="1312" 
d="M656 1887q157 0 290.5 -77.5t211 -211t77.5 -290.5t-77.5 -290.5t-211 -211t-290.5 -77.5t-290.5 77.5t-210.5 211t-77 290.5t77 290.5t210.5 211t290.5 77.5zM656 783q107 0 204 41.5t167.5 112t112 167.5t41.5 204t-41.5 204t-112 167.5t-167.5 112t-204 41.5
t-204 -41.5t-167.5 -112t-112 -167.5t-41.5 -204t41.5 -204t112 -167.5t167.5 -112t204 -41.5zM587 1601q-59 0 -94.5 -56.5t-30.5 -127.5q7 -87 47.5 -167t94 -130.5t112 -75t101.5 -9.5q11 4 44 23v-33l-56 -31h-263q-67 27 -115 77.5t-70.5 110t-22.5 126.5t22.5 126.5
t70.5 110t115 77.5h311l8 -134h-21l-2 31q-2 35 -27 58.5t-59 23.5h-165z" />
    <glyph glyph-name="ordfeminine" unicode="&#xaa;" horiz-adv-x="759" 
d="M640 1614h41v-24h-187q-26 0 -43.5 18t-17.5 43q0 -26 -17 -43.5t-42 -17.5h-230q-25 16 -45.5 65.5t-20.5 101.5v1q0 45 19 82q1 1 2 2.5t1 2.5v1q1 0 1 1q1 1 2 2.5t1 2.5v1l1 1q1 0 1 1t1 2v1l1 1h1l1 2q0 1 1 1l1 2h1l1 1v1l1 1q0 1 1 1t1 1v1l1 1l1 1l1 1h1l2 2v1
l1 1l1 1l2 1l1 1l1 1l1 1l1 1h1l2 2l1 1l1 1h1q1 0 1 1t1 1l1 1h1l1 1l1 1h1v1l1 1h2v0q1 0 1 1t1 1h1h1l1 1l1 1q1 0 1 0.5t1 0.5t3 1v1l1 1h2h1l2 1v1h1q1 1 2 1t3 1l14 6l-70 122q33 35 66.5 46.5t92.5 11.5h223q40 0 69 -26.5t34 -64.5v-1v0v-2v-1v-1v-2v0v-1v-2v0v-3
v-332q0 -17 12 -29.5t29 -12.5zM409 1656v317q-66 -30 -102.5 -77.5t-40 -94.5t8.5 -90t39 -69.5t56 -26.5q17 0 28 12t11 29zM409 2001v65h-3q-73 -1 -133 -39.5t-66 -104.5l31 12z" />
    <glyph glyph-name="guillemotleft" unicode="&#xab;" horiz-adv-x="1030" 
d="M605 1433l-263 -717l263 -716h-119l-408 716l408 717h119zM953 1433l-263 -717l263 -716h-119l-408 716l408 717h119z" />
    <glyph glyph-name="logicalnot" unicode="&#xac;" horiz-adv-x="1329" 
d="M78 1187h1173v-532h-228v304h-945v228z" />
    <glyph glyph-name="softhyphen" unicode="&#xad;" horiz-adv-x="0" 
 />
    <glyph glyph-name="registered" unicode="&#xae;" horiz-adv-x="1312" 
d="M656 1887q157 0 290.5 -77.5t211 -211t77.5 -290.5t-77.5 -290.5t-211 -211t-290.5 -77.5t-290.5 77.5t-210.5 211t-77 290.5t77 290.5t210.5 211t290.5 77.5zM656 783q107 0 204 41.5t167.5 112t112 167.5t41.5 204t-41.5 204t-112 167.5t-167.5 112t-204 41.5
t-204 -41.5t-167.5 -112t-112 -167.5t-41.5 -204t41.5 -204t112 -167.5t167.5 -112t204 -41.5zM913 1043q17 -28 48 -28h17v-21h-281v21h20q6 0 9 5.5t0 10.5l-159 265v-246q0 -14 10.5 -24.5t24.5 -10.5h35v-21h-302v21h35q14 0 24.5 10.5t10.5 24.5v516q0 14 -10.5 24.5
t-24.5 10.5h-35v21h421q68 0 114.5 -50.5t42.5 -117.5q0 -64 -46 -110t-111 -46h-164l157 -58q59 -21 91 -75zM541 1471q26 -26 26 -62v-91h50h13q57 0 98 40t43 96v11q-2 56 -43 96t-98 40h-218z" />
    <glyph glyph-name="overscore" unicode="&#xaf;" horiz-adv-x="1099" 
d="M78 2092h945v-228h-945v228z" />
    <glyph glyph-name="degree" unicode="&#xb0;" horiz-adv-x="645" 
d="M496 2020q72 -72 72 -174q0 -101 -72 -173t-173 -72t-173 72t-72 173q0 102 72 174t173 72t173 -72zM445 1724q51 51 51 122q0 72 -51 123q-50 50 -122 50t-122 -50q-51 -51 -51 -123q0 -71 51 -122q50 -50 122 -50t122 50z" />
    <glyph glyph-name="plusminus" unicode="&#xb1;" horiz-adv-x="1122" 
d="M675 1014h369v-228h-369v-369h-228v369h-369v228h369v369h228v-369zM1044 0h-966v228h966v-228z" />
    <glyph glyph-name="twosuperior" unicode="&#xb2;" horiz-adv-x="618" 
d="M517 1579l2 31h20l-7 -131h-454v152v24q0 55 35 100q24 30 83.5 63.5t115 57.5t98 57.5t41.5 66.5q-1 25 -15 40.5t-39.5 21.5t-44 7.5t-47.5 1.5h-105q-34 0 -58 -23t-26 -57l-2 -31h-21l8 132h284h23q50 -17 86.5 -62.5t44.5 -98.5q6 -47 -9 -83q-16 -38 -61 -69
t-97 -53t-102.5 -46t-85.5 -61.5t-37 -86.5q-1 -16 8 -24t29 -8h248q34 0 58.5 22.5t26.5 56.5z" />
    <glyph glyph-name="threesuperior" unicode="&#xb3;" horiz-adv-x="684" 
d="M448 1863q76 -26 117.5 -81.5t41 -114t-43 -112.5t-120.5 -77h-213q-64 19 -108 56.5t-44 96.5q0 42 25 76t64 47q29 -127 141 -202q49 -32 95 -40t71 12q19 16 19.5 43t-15.5 57.5t-41.5 63.5t-60 63t-70 54t-71.5 38.5t-64 14.5v10h92q104 0 140 63q27 47 -2 92
q-29 48 -95 48h-71q-34 0 -58 -23t-26 -57l-2 -31h-21l8 132h276q55 0 94 -21t51 -52.5t7 -64t-36.5 -58.5t-79.5 -33z" />
    <glyph glyph-name="acute" unicode="&#xb4;" horiz-adv-x="550" 
d="M461 1758q15 -15 12 -36q-3 -20 -20 -31l-210 -131l-99 -62q-29 -18 -53 6q-25 25 -7 53l62 99l131 210q11 17 32 20q20 3 35 -12z" />
    <glyph glyph-name="paragraph" unicode="&#xb6;" horiz-adv-x="1687" 
d="M436 1435h1174v-47h-79q-33 0 -56.5 -24t-23.5 -57v-1759h-372v1401q0 83 60 143l295 296h-402q-33 0 -57 -24t-24 -57v-1759h-371v1148l-144 -1q-148 0 -253 105t-105 253h1q-10 154 96 268t261 114z" />
    <glyph glyph-name="periodcentered" unicode="&#xb7;" horiz-adv-x="595" 
d="M298 937q91 0 155.5 -64.5t64.5 -156.5t-64 -156t-156 -64t-156 64t-64 156t64.5 156.5t155.5 64.5z" />
    <glyph glyph-name="cedilla" unicode="&#xb8;" horiz-adv-x="702" 
d="M385 -136q113 -9 176 -50.5t63 -95.5q0 -49 -40 -84.5t-100.5 -53.5t-136.5 -26.5t-143 -7.5t-126 7v118q144 -41 258 -8q69 21 77 55.5t-57 57.5q-57 20 -161 24l49 163h173z" />
    <glyph glyph-name="onesuperior" unicode="&#xb9;" horiz-adv-x="450" 
d="M339 1499h34v-21h-295v21h34q14 0 24 10t10 24v475l-5 -3l-11 -9q-14 -11 -21.5 -26t-9 -24t-2.5 -29l-5 -1h-14v74l46 35l78 59l10 8h93v-559q0 -14 10 -24t24 -10z" />
    <glyph glyph-name="ordmasculine" unicode="&#xba;" horiz-adv-x="739" 
d="M457 2194q89 -32 146.5 -116.5t57.5 -190.5t-57.5 -190t-146.5 -116h-176q-89 32 -146 116t-57 190t57 190.5t146 116.5h176zM182 1988q14 -143 115 -254q77 -83 154 -95t99 60q11 36 6 88q-14 143 -115 254q-77 83 -154 95t-99 -60q-11 -36 -6 -88z" />
    <glyph glyph-name="guillemotright" unicode="&#xbb;" horiz-adv-x="1030" 
d="M545 1433l408 -717l-408 -716h-119l264 716l-264 717h119zM197 1433l408 -717l-408 -716h-119l264 716l-264 717h119z" />
    <glyph glyph-name="onequarter" unicode="&#xbc;" horiz-adv-x="1658" 
d="M415 670h43v-27h-380v27h44q18 0 31 13t13 31v612l-6 -5l-16 -11q-18 -14 -27.5 -33t-11.5 -31.5t-3 -37.5h-6l-18 -1v96l59 44l100 77l13 9h120v-719q0 -18 13.5 -31t31.5 -13zM1136 1433h136l-992 -1433h-136zM1484 70q0 -18 13 -31t31 -13h44v-26h-381v26h44
q18 0 31 13t13 31v90h-371l-53 91q17 24 61 82.5t76 103t57 83.5q35 53 24 106t-44.5 94t-81.5 70h253q28 -40 28 -83.5t-22 -82t-54.5 -79.5t-70 -77t-69 -74.5t-51.5 -72t-16.5 -69t35.5 -66.5h299v528h1q95 9 172 76h32v-596q29 11 47.5 37t20.5 58l3 40h26l-10 -169h-87
v-90z" />
    <glyph glyph-name="onehalf" unicode="&#xbd;" horiz-adv-x="1644" 
d="M1536 130l3 40h26l-10 -169h-584v195v31q0 72 45 130q30 39 107.5 82t148.5 73.5t126 73t53 85.5q-1 26 -15 44t-31.5 27t-46.5 14t-47.5 6t-47.5 1h-134q-44 0 -75.5 -29.5t-33.5 -72.5l-3 -40h-26l10 169h366h29q65 -21 111.5 -79.5t57.5 -127.5q9 -56 -12 -107
q-18 -42 -62.5 -77t-97 -58t-111.5 -50.5t-107 -54.5t-80.5 -70t-35.5 -97q-1 -20 11 -31t37 -11h320q44 0 75.5 30t33.5 73zM1094 1433h136l-993 -1433h-135zM415 670h43v-27h-380v27h44q18 0 31 13t13 31v612l-6 -4l-16 -12q-18 -14 -27.5 -33t-11.5 -31.5t-3 -37.5h-6
l-18 -1v96l59 44l100 77l13 9h120v-719q0 -18 13.5 -31t31.5 -13z" />
    <glyph glyph-name="threequarters" unicode="&#xbe;" horiz-adv-x="1726" 
d="M554 1139q98 -34 151.5 -105.5t53.5 -146.5t-55 -144.5t-156 -99.5h-274q-83 24 -139.5 73t-56.5 125q0 55 32 98t83 59q20 -84 69 -150.5t112 -108.5q62 -41 122 -51t92 15q25 21 25.5 55.5t-20 74t-53.5 82t-77.5 81t-90 69.5t-92 49.5t-82.5 18.5v13h119q128 0 177 74
q36 56 7 115q-29 60 -104 70q-12 2 -25 2h-91q-44 0 -75.5 -30t-33.5 -73l-3 -40h-26l10 169h355q52 0 93 -14.5t63.5 -38t35 -53t6.5 -59.5t-22.5 -56.5t-50.5 -46t-79 -26.5zM1552 70q0 -18 13 -31t31 -13h44v-26h-381v26h44q18 0 31 13t13 31v90h-372l-52 91
q17 24 61 82.5t76 103t57 83.5q35 53 24 106t-44.5 94t-81.5 70h253q25 -36 27.5 -74t-13 -73t-42 -71t-59 -70t-64.5 -67.5t-57.5 -66t-39 -63t-8 -61t34.5 -58.5h300v528h1q95 9 172 76h32v-596q29 11 47.5 37t20.5 58l2 40h27l-10 -169h-87v-90zM1282 1433h136
l-992 -1433h-136z" />
    <glyph glyph-name="questiondown" unicode="&#xbf;" horiz-adv-x="1200" 
d="M714 626q-81 0 -138.5 57.5t-57.5 138.5t57.5 138.5t138.5 57.5t138 -57.5t57 -138.5t-57 -138.5t-138 -57.5zM1075 -145h48l-19 -307h-717q-118 39 -202.5 144.5t-103.5 229.5q-12 76 25.5 147t106 122t155.5 85.5t177 43.5l34 244h276l45 -334l-408 -208
q-91 -51 -149 -123t-55 -136q2 -35 16.5 -62.5t34 -44.5t53.5 -29.5t59 -18t68.5 -8.5t63.5 -3.5t61 -0.5h229q79 0 136.5 53.5t61.5 132.5z" />
    <glyph glyph-name="Agrave" unicode="&#xc0;" horiz-adv-x="1718" 
d="M928 564l-69 169l-39 99q-14 55 7 108l134 330q17 42 -8 79t-65 37h-288q35 -2 54 -32t6 -63l-251 -620q-15 -39 8 -73t65 -34h446zM859 1651l49 -78q13 -24 -5 -42t-42 -5l-78 49l-166 103q-15 10 -16 25q-1 17 10 28l92 92q12 11 28 10q15 -1 25 -16zM947 516h-577
q-14 -133 38 -262l103 -254h-433l520 1287q14 33 -5 64t-51 35h-28h-63v48h439q40 0 72.5 -22t47.5 -60l501 -1239q13 -30 39 -47.5t58 -17.5h32v-48h-664v48h91q25 0 38.5 20.5t4.5 43.5z" />
    <glyph glyph-name="Aacute" unicode="&#xc1;" horiz-adv-x="1718" 
d="M928 564l-69 169l-39 99q-14 55 7 108l134 330q17 42 -8 79t-65 37h-288q35 -2 54 -32t6 -63l-251 -620q-15 -39 8 -73t65 -34h446zM708 1573l49 78l103 166q10 15 25 16q17 1 28 -10l46 -46l46 -46q11 -11 9 -28q-1 -16 -15 -25l-166 -103l-78 -49q-24 -13 -42 5t-5 42z
M947 516h-577q-14 -133 38 -262l103 -254h-433l520 1287q14 33 -5 64t-51 35h-28h-63v48h439q40 0 72.5 -22t47.5 -60l501 -1239q13 -30 39 -47.5t58 -17.5h32v-48h-664v48h91q25 0 38.5 20.5t4.5 43.5z" />
    <glyph glyph-name="Acircumflex" unicode="&#xc2;" horiz-adv-x="1718" 
d="M928 564l-69 169l-39 99q-14 55 7 108l134 330q17 42 -8 79t-65 37h-288q35 -2 54 -32t6 -63l-251 -620q-15 -39 8 -73t65 -34h446zM865 1555l-100 139l-100 -139h-148l162 225h172l162 -225h-148zM947 516h-577q-14 -133 38 -262l103 -254h-433l520 1287q14 33 -5 64
t-51 35h-28h-63v48h439q40 0 72.5 -22t47.5 -60l501 -1239q13 -30 39 -47.5t58 -17.5h32v-48h-664v48h91q25 0 38.5 20.5t4.5 43.5z" />
    <glyph glyph-name="Atilde" unicode="&#xc3;" horiz-adv-x="1718" 
d="M928 564l-69 169l-39 99q-14 55 7 108l134 330q17 42 -8 79t-65 37h-288q35 -2 54 -32t6 -63l-251 -620q-15 -39 8 -73t65 -34h446zM565 1783q38 14 85 1.5t80 -32t75 -41.5t72 -26q45 -6 65 17.5t8 67.5l55 -2q9 -42 8 -87t-23.5 -87t-61.5 -57q-38 -14 -84.5 -1.5
t-80 32t-76 41.5t-72.5 26q-45 6 -65 -17.5t-8 -67.5l-55 2q-9 41 -7.5 86.5t24 87.5t61.5 57zM947 516h-577q-14 -133 38 -262l103 -254h-433l520 1287q14 33 -5 64t-51 35h-28h-63v48h439q40 0 72.5 -22t47.5 -60l501 -1239q12 -30 38.5 -47.5t58.5 -17.5h32v-48h-664v48
h91q25 0 38.5 20.5t4.5 43.5z" />
    <glyph glyph-name="Adieresis" unicode="&#xc4;" horiz-adv-x="1718" 
d="M928 564l-69 169l-40 99q-13 53 8 108l134 330q17 42 -8 79t-65 37h-288q35 -2 54 -32t6 -63l-251 -620q-15 -39 8 -73t65 -34h446zM729 1652q0 -45 -31.5 -76.5t-76.5 -31.5t-76.5 31.5t-31.5 76.5t31.5 76.5t76.5 31.5t76.5 -31.5t31.5 -76.5zM1023 1652
q0 -45 -31.5 -76.5t-76.5 -31.5t-76.5 31.5t-31.5 76.5t31.5 76.5t76.5 31.5t76.5 -31.5t31.5 -76.5zM947 516h-577q-14 -133 38 -262l103 -254h-433l520 1287q14 33 -5 64t-51 35h-28h-63v48h439q40 0 72.5 -22t47.5 -60l501 -1239q12 -30 38.5 -47.5t58.5 -17.5h32v-48
h-664v48h91q25 0 38.5 20.5t4.5 43.5z" />
    <glyph glyph-name="Aring" unicode="&#xc5;" horiz-adv-x="1718" 
d="M928 564l-69 169l-39 99q-14 55 7 108l134 330q17 42 -8 79t-65 37h-288q35 -2 54 -32t6 -63l-251 -620q-15 -39 8 -73t65 -34h446zM678 1786h140q71 -18 116.5 -66.5t45.5 -109.5t-45.5 -109.5t-116.5 -66.5h72q40 0 72.5 -22t47.5 -60l501 -1239q12 -30 38.5 -47.5
t58.5 -17.5h32v-48h-664v48h91q25 0 38.5 20.5t4.5 43.5l-163 404h-577q-14 -133 38 -262l103 -254h-433l520 1287q14 33 -5 64t-51 35h-28h-63v48h227q-71 18 -116.5 66.5t-45.5 109.5t45.5 109.5t116.5 66.5zM620 1660q10 -77 89 -133q67 -48 121 -40q54 7 46 73
q-10 77 -89 133q-67 48 -121 40q-54 -7 -46 -73z" />
    <glyph glyph-name="AE" unicode="&#xc6;" horiz-adv-x="2088" 
d="M1291 774h281q95 0 143 62.5t59 161.5h48v-496h-48q-11 99 -59 161.5t-143 62.5h-281v-598q0 -35 25 -58l17 -12l4 -2q1 0 1 -0.5t1 -0.5l18 -6q5 -1 149 -1q158 0 280 106.5t181 265.5l45 -18l-102 -402h-1150v48h80q33 0 56.5 23.5t23.5 56.5v388h-550
q-14 -133 38 -262l103 -254h-433l520 1287q14 33 -5 64t-51 35h-28h-63v48h1463l19 -307h-48l-5 73q-4 79 -61 132.5t-136 53.5h-692h-55l296 -296q59 -59 59 -143v-173zM920 564v742q0 32 -23 55.5t-55 24.5h-119h-123q35 -2 54 -32t6 -63l-251 -620q-15 -39 8 -73t65 -34
h438zM409 671l-1 -3z" />
    <glyph glyph-name="Ccedilla" unicode="&#xc7;" horiz-adv-x="1359" 
d="M1043 1434h221l18 -307h-48l-4 73q-4 79 -61.5 132.5t-136.5 53.5h-376q-90 0 -159.5 -61.5t-102 -157.5t-23.5 -201q6 -81 26 -161.5t50 -151t68.5 -137.5t83.5 -122.5t94.5 -105.5t101 -86t103.5 -64.5t101.5 -41t95.5 -15t85 12.5q33 11 102 51v-75l-129 -70h-242
l-24 -73q83 -7 130 -37t47 -70q0 -45 -44.5 -74.5t-107.5 -39t-132.5 -13t-118.5 4.5v87q111 -32 197 -3q50 16 51 42q1 34 -86 49q-32 5 -75 7l36 120h-230q-154 62 -263.5 177.5t-160.5 251.5t-51 288t50.5 288t160 251.5t263.5 177.5h490z" />
    <glyph glyph-name="Egrave" unicode="&#xc8;" horiz-adv-x="1406" 
d="M609 774h281q95 0 143 62.5t59 161.5h48v-496h-48q-11 99 -59 161.5t-143 62.5h-281v-598q0 -35 25 -58l17 -12l3 -2h1l1 -1l19 -6q5 -1 149 -1q158 0 280 106.5t181 265.5l45 -18l-103 -402h-1149v48h79q33 0 56.5 23.5t23.5 56.5v1178q0 33 -23.5 56.5t-56.5 23.5h-79
v48h1154l18 -307h-48l-4 73q-4 79 -61.5 132.5t-136.5 53.5h-746l296 -296q59 -59 59 -143v-173zM854 1573q13 -24 -5 -42t-41 -5l-78 49l-166 103q-15 10 -16 25q-2 17 10 28l92 92q11 11 27 10q15 -1 25 -16l104 -166z" />
    <glyph glyph-name="Eacute" unicode="&#xc9;" horiz-adv-x="1406" 
d="M609 774h281q95 0 143 62.5t59 161.5h48v-496h-48q-11 99 -59 161.5t-143 62.5h-281v-598q0 -35 25 -58l17 -12l3 -2h1l1 -1l19 -6q5 -1 149 -1q158 0 280 106.5t181 265.5l45 -18l-103 -402h-1149v48h79q33 0 56.5 23.5t23.5 56.5v1178q0 33 -23.5 56.5t-56.5 23.5h-79
v48h1154l18 -307h-48l-4 73q-4 79 -61.5 132.5t-136.5 53.5h-746l296 -296q59 -59 59 -143v-173zM558 1531q-18 18 -5 42l49 78l103 166q10 15 25 16q16 1 28 -10l92 -92q11 -11 9 -28q-1 -16 -15 -25l-166 -103l-78 -49q-24 -13 -42 5z" />
    <glyph glyph-name="Ecircumflex" unicode="&#xca;" horiz-adv-x="1406" 
d="M609 774h281q95 0 143 62.5t59 161.5h48v-496h-48q-11 99 -59 161.5t-143 62.5h-281v-598q0 -35 25 -58l17 -12l3 -2h1l1 -1l19 -6q5 -1 149 -1q158 0 280 106.5t181 265.5l45 -18l-103 -402h-1149v48h79q33 0 56.5 23.5t23.5 56.5v1178q0 33 -23.5 56.5t-56.5 23.5h-79
v48h1154l18 -307h-48l-4 73q-4 79 -61.5 132.5t-136.5 53.5h-746l296 -296q59 -59 59 -143v-173zM952 1555h-148l-100 139l-100 -139h-148l162 225h172z" />
    <glyph glyph-name="Edieresis" unicode="&#xcb;" horiz-adv-x="1406" 
d="M609 774h281q95 0 143 62.5t59 161.5h48v-496h-48q-11 99 -59 161.5t-143 62.5h-281v-598q0 -35 25 -58l17 -12l3 -2h1l1 -1l19 -6q5 -1 149 -1q158 0 280 106.5t181 265.5l45 -18l-103 -402h-1149v48h79q33 0 56.5 23.5t23.5 56.5v1178q0 33 -23.5 56.5t-56.5 23.5h-79
v48h1154l18 -307h-48l-4 73q-4 79 -61.5 132.5t-136.5 53.5h-746l296 -296q59 -59 59 -143v-173zM665 1652q0 -45 -31.5 -76.5t-76.5 -31.5t-76.5 31.5t-31.5 76.5t31.5 76.5t76.5 31.5t76.5 -31.5t31.5 -76.5zM851 1544q-45 0 -76.5 31.5t-31.5 76.5t31.5 76.5t76.5 31.5
t76.5 -31.5t31.5 -76.5t-31.5 -76.5t-76.5 -31.5z" />
    <glyph glyph-name="Igrave" unicode="&#xcc;" horiz-adv-x="845" 
d="M78 1434h690v-48h-514l296 -296q59 -59 59 -143v-819q0 -33 23.5 -56.5t56.5 -23.5h79v-48h-690v48h79q33 0 56.5 23.5t23.5 56.5v1178q0 33 -23.5 56.5t-56.5 23.5h-79v48zM528 1573q13 -24 -5 -42t-42 -5l-78 49l-166 103q-14 9 -15 25q-2 17 9 28l92 92q12 11 28 10
q15 -1 25 -16l103 -166z" />
    <glyph glyph-name="Iacute" unicode="&#xcd;" horiz-adv-x="845" 
d="M78 1434h690v-48h-514l296 -296q59 -59 59 -143v-819q0 -33 23.5 -56.5t56.5 -23.5h79v-48h-690v48h79q33 0 56.5 23.5t23.5 56.5v1178q0 33 -23.5 56.5t-56.5 23.5h-79v48zM355 1531q-18 18 -4 42l48 78l104 166q10 15 25 16q16 1 27 -10l46 -46l46 -46q11 -11 10 -28
q-1 -15 -16 -25l-166 -103l-78 -49q-24 -13 -42 5z" />
    <glyph glyph-name="Icircumflex" unicode="&#xce;" horiz-adv-x="845" 
d="M78 1434h690v-48h-514l296 -296q59 -59 59 -143v-819q0 -33 23.5 -56.5t56.5 -23.5h79v-48h-690v48h79q33 0 56.5 23.5t23.5 56.5v1178q0 33 -23.5 56.5t-56.5 23.5h-79v48zM671 1555h-148l-100 139l-100 -139h-148l162 225h172z" />
    <glyph glyph-name="Idieresis" unicode="&#xcf;" horiz-adv-x="845" 
d="M78 1434h690v-48h-514l296 -296q59 -59 59 -143v-819q0 -33 23.5 -56.5t56.5 -23.5h79v-48h-690v48h79q33 0 56.5 23.5t23.5 56.5v1178q0 33 -23.5 56.5t-56.5 23.5h-79v48zM384 1652q0 -45 -31.5 -76.5t-76.5 -31.5t-76.5 31.5t-31.5 76.5t31.5 76.5t76.5 31.5
t76.5 -31.5t31.5 -76.5zM570 1544q-45 0 -76.5 31.5t-31.5 76.5t31.5 76.5t76.5 31.5t76.5 -31.5t31.5 -76.5t-31.5 -76.5t-76.5 -31.5z" />
    <glyph glyph-name="Eth" unicode="&#xd0;" horiz-adv-x="1626" 
d="M609 375v-247q0 -33 23.5 -56.5t56.5 -23.5h98q66 0 121 24.5t92 64.5t65.5 97t45 116t26.5 127.5t13.5 124.5t3.5 115t-3.5 115t-13.5 124.5t-26.5 127.5t-45 116t-65.5 97t-92 64.5t-121 24.5h-533l296 -296q59 -59 59 -143v-176h216v-108h-216v-288zM78 771h159v535
q0 33 -23.5 56.5t-56.5 23.5h-79v48h853q128 0 232.5 -40.5t174.5 -108.5t118 -161t69.5 -195t21.5 -212t-21.5 -212t-69.5 -195t-118 -161t-174.5 -108.5t-232.5 -40.5h-853v48h79q33 0 56.5 23.5t23.5 56.5v535h-159v108z" />
    <glyph glyph-name="Ntilde" unicode="&#xd1;" horiz-adv-x="1675" 
d="M1324 0l-955 955v372q0 17 -12.5 29.5t-29.5 12.5t-29.5 -12.5t-12.5 -29.5v-1199q0 -33 23.5 -56.5t56.5 -23.5h80v-48h-367v48h79q33 0 56.5 23.5t23.5 56.5v1178q0 33 -23.5 56.5t-56.5 23.5h-79v48h338l973 -974v846q0 33 -23.5 56.5t-56.5 23.5h-79v48h367v-48h-80
q-33 0 -56.5 -23.5t-23.5 -56.5v-1306h-113zM578 1552q-9 41 -7.5 86.5t24 87.5t61.5 57q38 14 84.5 1.5t79.5 -32t75.5 -41.5t72.5 -26q45 -6 65 17.5t8 67.5l55 -2q9 -42 8 -87t-23.5 -87t-61.5 -57q-38 -14 -85 -1.5t-80 32t-75.5 41.5t-72.5 26q-45 6 -65 -17.5
t-8 -67.5z" />
    <glyph glyph-name="Ograve" unicode="&#xd2;" horiz-adv-x="1705" 
d="M1154 1434q154 -62 263.5 -177.5t160 -251.5t50.5 -288t-51 -288t-160.5 -251.5t-263.5 -177.5h-599q-154 62 -263.5 177.5t-160.5 251.5t-51 288t50.5 288t160 251.5t263.5 177.5h601zM955 1651l49 -78q13 -24 -5 -42t-42 -5l-78 49l-165 103q-15 10 -16 25q-2 17 10 28
l46 46l45 46q12 11 28 10q15 -1 25 -16zM371 966q23 -294 206 -544q138 -187 313 -280q171 -91 293 -47q134 47 153 245q6 58 0 128q-23 294 -206 544q-138 187 -313 280q-171 91 -293 47q-134 -47 -153 -245q-6 -58 0 -128z" />
    <glyph glyph-name="Oacute" unicode="&#xd3;" horiz-adv-x="1705" 
d="M1154 1434q154 -62 263.5 -177.5t160 -251.5t50.5 -288t-51 -288t-160.5 -251.5t-263.5 -177.5h-599q-154 62 -263.5 177.5t-160.5 251.5t-51 288t50.5 288t160 251.5t263.5 177.5h601zM703 1573l49 78l103 166q10 15 25 16q17 1 28 -10l91 -92q11 -11 10 -28
q-1 -15 -16 -25l-165 -103l-78 -49q-24 -13 -42 5t-5 42zM371 966q23 -294 206 -544q138 -187 313 -280q171 -91 293 -47q134 47 153 245q6 58 0 128q-23 294 -206 544q-138 187 -313 280q-171 91 -293 47q-134 -47 -153 -245q-6 -58 0 -128z" />
    <glyph glyph-name="Ocircumflex" unicode="&#xd4;" horiz-adv-x="1705" 
d="M1154 1434q154 -62 263.5 -177.5t160 -251.5t50.5 -288t-51 -288t-160.5 -251.5t-263.5 -177.5h-599q-154 62 -263.5 177.5t-160.5 251.5t-51 288t50.5 288t160 251.5t263.5 177.5h601zM954 1555l-100 139l-101 -139h-147l162 225h171l162 -225h-147zM371 966
q23 -294 206 -544q138 -187 313 -280q171 -91 293 -47q134 47 153 245q6 58 0 128q-23 294 -206 544q-138 187 -313 280q-171 91 -293 47q-134 -47 -153 -245q-6 -58 0 -128z" />
    <glyph glyph-name="Otilde" unicode="&#xd5;" horiz-adv-x="1705" 
d="M1154 1434q154 -62 263.5 -177.5t160 -251.5t50.5 -288t-51 -288t-160.5 -251.5t-263.5 -177.5h-599q-154 62 -263.5 177.5t-160.5 251.5t-51 288t50.5 288t160 251.5t263.5 177.5h601zM672 1783q38 14 84.5 1.5t80 -32t76 -41.5t72.5 -26q45 -6 65 17.5t8 67.5l54 -2
q9 -42 8 -87t-23.5 -87t-61.5 -57q-38 -14 -84.5 -1.5t-80 32t-76 41.5t-72.5 26q-45 6 -65 -17.5t-8 -67.5l-54 2q-9 42 -8 87t23.5 87t61.5 57zM371 966q23 -294 206 -544q138 -187 313 -280q171 -91 293 -47q134 47 153 245q6 58 0 128q-23 294 -206 544
q-138 187 -313 280q-171 91 -293 47q-134 -47 -153 -245q-6 -58 0 -128z" />
    <glyph glyph-name="Odieresis" unicode="&#xd6;" horiz-adv-x="1705" 
d="M1154 1434q154 -62 263.5 -177.5t160 -251.5t50.5 -288t-51 -288t-160.5 -251.5t-263.5 -177.5h-599q-154 62 -263.5 177.5t-160.5 251.5t-51 288t50.5 288t160 251.5t263.5 177.5h601zM814 1652q0 -45 -31.5 -76.5t-76.5 -31.5t-76.5 31.5t-31.5 76.5t31.5 76.5
t76.5 31.5t76.5 -31.5t31.5 -76.5zM1109 1652q0 -45 -31.5 -76.5t-76.5 -31.5t-76.5 31.5t-31.5 76.5t31.5 76.5t76.5 31.5t76.5 -31.5t31.5 -76.5zM371 966q23 -294 206 -544q138 -187 313 -280q171 -91 293 -47q134 47 153 245q6 58 0 128q-23 294 -206 544
q-138 187 -313 280q-171 91 -293 47q-134 -47 -153 -245q-6 -58 0 -128z" />
    <glyph glyph-name="multiply" unicode="&#xd7;" horiz-adv-x="999" 
d="M922 977l-261 -261l261 -261l-161 -161l-261 261l-261 -261l-161 161l261 261l-261 261l161 162l261 -261l261 261z" />
    <glyph glyph-name="Oslash" unicode="&#xd8;" horiz-adv-x="1705" 
d="M1153 0h-600q-32 13 -55 25l-142 -246l-66 38l142 245q-124 77 -208 195t-118.5 249t-24 272t64 265t159 228.5t248.5 162.5h601q32 -13 55 -25l142 246l66 -38l-142 -245q124 -77 208 -195t118.5 -249t24 -272t-64.5 -265t-159.5 -228.5t-248.5 -162.5zM371 966
q13 -165 77.5 -316.5t164.5 -273.5l428 742q-74 78 -156 133t-159.5 81.5t-146.5 18.5t-118.5 -48t-74.5 -126.5t-15 -210.5zM1094 1057l-428 -741q74 -78 156 -133t159.5 -81.5t146.5 -18.5t118.5 48t74.5 126.5t15 210.5q-13 165 -77.5 316t-164.5 273z" />
    <glyph glyph-name="Ugrave" unicode="&#xd9;" horiz-adv-x="1697" 
d="M930 1434h691v-48h-515l296 -296q59 -59 59 -143v-664q0 -100 -84.5 -172.5t-224.5 -110.5h-606q-140 38 -224.5 110.5t-84.5 172.5v1023q0 33 -23.5 56.5t-56.5 23.5h-79v48h690v-48h-514l296 -296q59 -59 59 -143v-795q0 -25 8.5 -43.5t28 -29.5t37.5 -17.5t51 -9.5
t54.5 -3.5t60.5 -0.5t60.5 0.5t54.5 3.5t51.5 9.5t38 17.5t28 29.5t8.5 43.5v1154q0 33 -23.5 56.5t-56.5 23.5h-80v48zM1000 1573q13 -24 -5 -42t-42 -5l-78 49l-166 103q-14 9 -15 25q-2 17 9 28l46 46l46 46q11 11 28 10q15 -1 25 -16l103 -166z" />
    <glyph glyph-name="Uacute" unicode="&#xda;" horiz-adv-x="1697" 
d="M930 1434h691v-48h-515l296 -296q59 -59 59 -143v-664q0 -100 -84.5 -172.5t-224.5 -110.5h-606q-140 38 -224.5 110.5t-84.5 172.5v1023q0 33 -23.5 56.5t-56.5 23.5h-79v48h690v-48h-514l296 -296q59 -59 59 -143v-795q0 -25 8.5 -43.5t28 -29.5t37.5 -17.5t51 -9.5
t54.5 -3.5t60.5 -0.5t60.5 0.5t54.5 3.5t51.5 9.5t38 17.5t28 29.5t8.5 43.5v1154q0 33 -23.5 56.5t-56.5 23.5h-80v48zM703 1531q-18 18 -4 42l48 78l104 166q10 15 25 16q16 1 27 -10l46 -46l46 -46q11 -11 10 -28q-1 -15 -16 -25l-166 -103l-78 -49q-24 -13 -42 5z" />
    <glyph glyph-name="Ucircumflex" unicode="&#xdb;" horiz-adv-x="1697" 
d="M930 1434h691v-48h-515l296 -296q59 -59 59 -143v-664q0 -100 -84.5 -172.5t-224.5 -110.5h-606q-140 38 -224.5 110.5t-84.5 172.5v1023q0 33 -23.5 56.5t-56.5 23.5h-79v48h690v-48h-514l296 -296q59 -59 59 -143v-795q0 -25 8.5 -43.5t28 -29.5t37.5 -17.5t51 -9.5
t54.5 -3.5t60.5 -0.5t60.5 0.5t54.5 3.5t51.5 9.5t38 17.5t28 29.5t8.5 43.5v1154q0 33 -23.5 56.5t-56.5 23.5h-80v48zM1097 1555h-148l-100 139l-100 -139h-148l162 225h172z" />
    <glyph glyph-name="Udieresis" unicode="&#xdc;" horiz-adv-x="1697" 
d="M930 1434h691v-48h-515l296 -296q59 -59 59 -143v-664q0 -100 -84.5 -172.5t-224.5 -110.5h-606q-140 38 -224.5 110.5t-84.5 172.5v1023q0 33 -23.5 56.5t-56.5 23.5h-79v48h690v-48h-514l296 -296q59 -59 59 -143v-795q0 -25 8.5 -43.5t28 -29.5t37.5 -17.5t51 -9.5
t54.5 -3.5t60.5 -0.5t60.5 0.5t54.5 3.5t51.5 9.5t38 17.5t28 29.5t8.5 43.5v1154q0 33 -23.5 56.5t-56.5 23.5h-80v48zM810 1652q0 -45 -31.5 -76.5t-76.5 -31.5t-76.5 31.5t-31.5 76.5t31.5 76.5t76.5 31.5t76.5 -31.5t31.5 -76.5zM996 1544q-45 0 -76.5 31.5t-31.5 76.5
t31.5 76.5t76.5 31.5t76.5 -31.5t31.5 -76.5t-31.5 -76.5t-76.5 -31.5z" />
    <glyph glyph-name="Yacute" unicode="&#xdd;" horiz-adv-x="1779" 
d="M959 0h-368v48h79q33 0 56.5 18t23.5 44v335h-7l-160 269l-23 40l-348 581q-29 50 -108 50h-26v49h691v-49h-102q-59 0 -33 -44l428 -715l36 -61l1 -1l12 -22h8l1 1l251 430q83 143 0 285l-102 176h433l-389 -665l-190 -324h-1v-335q0 -26 23.5 -44t56.5 -18h79v-48h-322
zM986 1531q-18 18 -5 42l49 78l103 166q10 15 25 16q16 1 28 -10l46 -46l46 -46q11 -11 9 -28q-1 -16 -15 -25l-166 -103l-78 -49q-24 -13 -42 5z" />
    <glyph glyph-name="Thorn" unicode="&#xde;" horiz-adv-x="1476" 
d="M609 1039v-645h143q130 0 223.5 91t98.5 220v12v12q-5 129 -98.5 219.5t-223.5 90.5h-143zM609 1306v-219h431q148 0 253.5 -105t105.5 -253q0 -16 -1 -24h1q0 -148 -105.5 -253.5t-253.5 -105.5l-301 1h-130v-219q0 -33 23.5 -56.5t56.5 -23.5h79v-48h-690v48h79
q33 0 56.5 23.5t23.5 56.5v1178q0 33 -23.5 56.5t-56.5 23.5h-79v48h690v-48h-79q-33 0 -56.5 -23.5t-23.5 -56.5z" />
    <glyph glyph-name="germandbls" unicode="&#xdf;" horiz-adv-x="1546" 
d="M609 948v-1272q0 -33 23.5 -57t56.5 -24h79v-47h-690v47h79q33 0 56.5 24t23.5 57v1631q0 33 -23.5 56.5t-56.5 23.5h-79v48h962q148 0 253.5 -105.5t105.5 -253.5t-105.5 -253t-253.5 -105h70q148 0 253 -105t105 -253t-105 -253t-253 -105h-358v48h69q133 0 228 94.5
t95 227.5t-95 228t-228 95h-69v47q133 0 227.5 94.5t94.5 227.5t-94.5 228t-227.5 95h-498l296 -296q59 -59 59 -143z" />
    <glyph glyph-name="agrave" unicode="&#xe0;" horiz-adv-x="1335" 
d="M259 618l26 11l-137 238q64 68 130 90.5t181 22.5h436q77 0 134.5 -51t66.5 -126v-3v-2v-3v-2v-1l1 -2v0v-2v-4v0v-5v-651q0 -33 23.5 -56.5t56.5 -23.5h80v-48h-365q-50 0 -84.5 35t-34.5 84q0 -50 -34 -84.5t-83 -34.5h-450q-50 33 -89.5 129t-38.5 198v1q0 91 37 161
l2.5 5l2.5 5h1q1 1 1 2v2h1l6 9v1l1 1q0 2 1 2v1q1 1 2 2.5t2 2.5l1 1l2 2l1 2l1 1v1l1 1q1 1 2 2.5t2 2.5l1 1l2 2l1 2l2 2l3 3v1l1 1l2 2l2 1l2 2l1 2l3 3l2 2l2 2l2 1q1 0 1 1t1 2l2 1l3 3l2 1l2 2l2 1l4 4l1 1q1 0 1 1l2 1l1 1q0 1 2 1q1 0 2 1l1 1q1 1 4 3l1 1q1 0 2 1
t2 1l1 1q0 1 2 2t3 1v0q1 1 4 3l2 1q1 0 1 1l2 1l2 1q1 1 2.5 2t2.5 1h1l2 1l2 1l1 1q1 1 3 1t2 1l1 1q1 0 2.5 1t2.5 1l1 1q0 1 2 1q1 0 2 1l2 1q1 0 3 1t3 1zM769 1198l49 -78q13 -24 -5 -42t-42 -5l-78 49l-166 103q-14 9 -15 25q-2 17 9 28l46 46l46 45q11 11 28 10
q15 -1 25 -16zM726 128v620q-130 -59 -201.5 -151.5t-78.5 -185t16.5 -176t76.5 -135.5t109 -52q33 0 55.5 23.5t22.5 56.5zM726 803v126h-7q-90 -1 -173.5 -31t-145 -95.5t-69.5 -153.5l59 23z" />
    <glyph glyph-name="aacute" unicode="&#xe1;" horiz-adv-x="1335" 
d="M259 618l26 11l-137 238q64 68 130 90.5t181 22.5h437q77 0 134 -51t66 -126v-3v-2v-3v-2v-1l1 -2v0v-2v-4v0v-5v-651q0 -33 23.5 -56.5t56.5 -23.5h80v-48h-365q-50 0 -84.5 35t-34.5 84q0 -50 -34 -84.5t-83 -34.5h-450q-50 33 -89.5 129t-38.5 198v1q0 91 37 161
l2.5 5l2.5 5h1q1 1 1 2v2h1l6 9v1l1 1q0 2 1 2v1q1 1 2 2.5t2 2.5l1 1l2 2l1 2l1 1v1l1 1q1 1 2 2.5t2 2.5l1 1l2 2l1 2l2 2l3 3v1l1 1l2 2l2 1l2 2l1 2l3 3l2 2l2 2l2 1q1 0 1 1t1 2l2 1l3 3l2 1l2 2l2 1l4 4l1 1q1 0 1 1l2 1l1 1q0 1 2 1q1 0 2 1l1 1q1 1 4 3l1 1q1 0 2 1
t2 1l1 1q0 1 2 2t3 1v0q1 1 4 3l2 1q1 0 1 1l2 1l2 1q1 1 2.5 2t2.5 1h1l2 1l2 1l1 1q1 1 3 1t2 1l1 1q1 0 2.5 1t2.5 1l1 1q0 1 2 1q1 0 2 1l2 1q1 0 3 1t3 1zM517 1120l48 78l104 165q10 15 25 16q16 1 27 -10l92 -91q11 -12 10 -28q-1 -15 -16 -25l-166 -103l-78 -49
q-24 -13 -42 5t-4 42zM726 128v620q-130 -59 -201.5 -151.5t-78.5 -185t16.5 -176t76.5 -135.5t109 -52q33 0 55.5 23.5t22.5 56.5zM726 803v126h-7q-90 -1 -173.5 -31t-145 -95.5t-69.5 -153.5l59 23z" />
    <glyph glyph-name="acircumflex" unicode="&#xe2;" horiz-adv-x="1335" 
d="M259 618l26 11l-137 238q64 68 130 90.5t181 22.5h437q77 0 134 -51t66 -126v-3v-2v-3v-2v-1l1 -2v0v-2v-4v0v-5v-651q0 -33 23.5 -56.5t56.5 -23.5h80v-48h-365q-50 0 -84.5 35t-34.5 84q0 -50 -34 -84.5t-83 -34.5h-450q-50 33 -89.5 129t-38.5 198v1q0 91 37 161
l2.5 5l2.5 5h1q1 1 1 2v2h1l6 9v1l1 1q0 2 1 2l1 1q0 1 1 2.5t2 2.5l1 1l2 2l1 2l1 1v1l1 1q1 1 2 2.5t2 2.5l1 1l2 2l1 2l2 2l3 3v1l1 1l2 2l2 1l2 2l1 2l3 3l2 2l2 2l2 1q1 0 1 1t1 2l2 1l3 3l2 1l2 2l2 1q0 1 1 2l2 2l2 1q1 0 1 1l2 1l1 1q0 1 2 1q1 0 2 1l1 1q1 1 4 3
l1 1q1 0 2 1t2 1l1 1q1 1 4 3h1q1 1 4 3l2 1q1 0 1 1l2 1l2 1q1 1 2.5 2t2.5 1h1l2 1l2 1l1 1q1 1 3 1t2 1l1 1q1 0 2.5 1t2.5 1l1 1q0 1 2 1q1 0 2 1l2 1q1 0 3 1t3 1zM767 1101l-100 139l-100 -139h-148l162 225h172l162 -225h-148zM726 128v620q-130 -59 -201.5 -151.5
t-78.5 -185t16.5 -176t76.5 -135.5t109 -52q33 0 55.5 23.5t22.5 56.5zM726 803v126h-7q-90 -1 -173.5 -31t-145 -95.5t-69.5 -153.5l59 23z" />
    <glyph glyph-name="atilde" unicode="&#xe3;" horiz-adv-x="1335" 
d="M259 618l26 11l-137 238q64 68 130 90.5t181 22.5h436q77 0 134.5 -51t66.5 -126v-3v-2v-3v-2v-1l1 -2v0v-2v-4v0v-5v-651q0 -33 23.5 -56.5t56.5 -23.5h80v-48h-365q-50 0 -84.5 35t-34.5 84q0 -50 -34 -84.5t-83 -34.5h-450q-50 33 -89.5 129t-38.5 198v1q0 91 37 161
l2.5 5l2.5 5h1q1 1 1 2v2h1l6 9v1l1 1q0 2 1 2v1q1 1 2 2.5t2 2.5l1 1l2 2l1 2l1 1v1l1 1q1 1 2 2.5t2 2.5l1 1l2 2l1 2l2 2l3 3v1l1 1l2 2l2 1l2 2l1 2l3 3l2 2l2 2l2 1q1 0 1 1t1 2l2 1l3 3l2 1l2 2l2 1q0 1 1 2l2 2l2 1q1 0 1 1l2 1l1 1q0 1 2 1q1 0 2 1l1 1q1 1 4 3l1 1
q1 0 2 1t2 1l1 1q1 1 4 3h1q1 1 4 3l2 1q1 0 1 1l2 1l2 1q1 1 2.5 2t2.5 1h1l2 1l2 1l1 1q1 1 3 1t2 1l1 1q1 0 2.5 1t2.5 1l1 1q0 1 2 1q1 0 2 1l2 1q1 0 3 1t3 1zM485 1329q38 14 85 1.5t80 -32t75.5 -41.5t72.5 -26q45 -6 65 17.5t8 67.5l55 -2q9 -41 8 -86t-23.5 -87
t-61.5 -57q-38 -14 -84.5 -1.5t-80 32t-76 41.5t-72.5 26q-45 6 -65 -17.5t-8 -67.5l-55 2q-9 41 -8 86t23.5 87t61.5 57zM726 128v620q-130 -59 -201.5 -151.5t-78.5 -185t16.5 -176t76.5 -135.5t109 -52q33 0 55.5 23.5t22.5 56.5zM726 803v126h-7q-90 -1 -173.5 -31
t-145 -95.5t-69.5 -153.5l59 23z" />
    <glyph glyph-name="adieresis" unicode="&#xe4;" horiz-adv-x="1335" 
d="M259 618l26 11l-137 238q64 68 130 90.5t181 22.5h437q77 0 134 -51t66 -126v-3v-2v-3v-2v-1l1 -2v0v-2v-4v0v-5v-651q0 -33 23.5 -56.5t56.5 -23.5h80v-48h-365q-50 0 -84.5 35t-34.5 84q0 -50 -34 -84.5t-83 -34.5h-450q-50 33 -89.5 129t-38.5 198v1q0 91 37 161
l2.5 5l2.5 5h1q1 1 1 2v2h1l6 9v1l1 1q0 2 1 2l1 1q0 1 1 2.5t2 2.5l1 1l2 2l1 2l1 1v1l1 1q1 1 2 2.5t2 2.5l1 1l2 2l1 2l2 2l3 3v1l1 1l2 2l2 1l2 2l1 2l3 3l2 2l2 2l2 1q1 0 1 1t1 2l2 1l3 3l2 1l2 2l2 1l4 4l1 1q1 0 1 1l2 1l1 1q0 1 2 1q1 0 2 1l1 1q1 1 4 3l1 1
q1 0 2 1t2 1l1 1q1 1 5 3v0q1 1 4 3l2 1q1 0 1 1l2 1l2 1q1 1 2.5 2t2.5 1h1l2 1l2 1l1 1q1 1 3 1t2 1l1 1q1 0 2.5 1t2.5 1l1 1q0 1 2 1q1 0 2 1l2 1q1 0 3 1t3 1zM628 1199q0 -45 -31.5 -76.5t-76.5 -31.5t-76.5 31.5t-31.5 76.5t31.5 76.5t76.5 31.5t76.5 -31.5
t31.5 -76.5zM922 1199q0 -45 -31.5 -76.5t-76.5 -31.5t-76.5 31.5t-31.5 76.5t31.5 76.5t76.5 31.5t76.5 -31.5t31.5 -76.5zM726 128v620q-130 -59 -201.5 -151.5t-78.5 -185t16.5 -176t76.5 -135.5t109 -52q33 0 55.5 23.5t22.5 56.5zM726 803v126h-7q-90 -1 -173.5 -31
t-145 -95.5t-69.5 -153.5l59 23z" />
    <glyph glyph-name="aring" unicode="&#xe5;" horiz-adv-x="1335" 
d="M259 618l26 11l-137 238q64 68 130 90.5t181 22.5h436q77 0 134.5 -51t66.5 -126v-3v-2v-3v-2v-1l1 -2v0v-2v-4v0v-5v-651q0 -33 23.5 -56.5t56.5 -23.5h80v-48h-365q-50 0 -84.5 35t-34.5 84q0 -50 -34 -84.5t-83 -34.5h-450q-50 33 -89.5 129t-38.5 198v1q0 91 37 161
l2.5 5l2.5 5h1q1 1 1 2v2h1l6 9v1l1 1q0 2 1 2l1 1q0 1 1 2.5t2 2.5l1 1l2 2l1 2l1 1v1l1 1q1 1 2 2.5t2 2.5l1 1l2 2l1 2l2 2l3 3v1l1 1l2 2l2 1l2 2l1 2l3 3l2 2l2 2l2 1q1 0 1 1t1 2l2 1l3 3l2 1l2 2l2 1l4 4l1 1q1 0 1 1l2 1l1 1q0 1 2 1q1 0 2 1l1 1q1 1 4 3l1 1
q1 0 2 1t2 1l1 1q1 1 5 3v0q1 1 4 3l2 1q1 0 1 1l2 1l2 1q1 1 2.5 2t2.5 1h1l2 1l2 1l1 1q1 1 3 1t2 1l1 1q1 0 2.5 1t2.5 1l1 1q0 1 2 1q1 0 2 1l2 1q1 0 3 1t3 1zM737 1380q71 -18 116.5 -66.5t45.5 -109.5t-45.5 -109.5t-116.5 -66.5h-140q-71 18 -116.5 66.5
t-45.5 109.5t45.5 109.5t116.5 66.5h140zM795 1154q-10 77 -89 133q-67 48 -121 40q-54 -7 -46 -73q10 -77 89 -133q67 -48 121 -40q54 7 46 73zM726 128v620q-130 -59 -201.5 -151.5t-78.5 -185t16.5 -176t76.5 -135.5t109 -52q33 0 55.5 23.5t22.5 56.5zM726 803v126h-7
q-90 -1 -173.5 -31t-145 -95.5t-69.5 -153.5l59 23z" />
    <glyph glyph-name="ae" unicode="&#xe6;" horiz-adv-x="1843" 
d="M1613 958l15 -6q57 -26 92.5 -71t42.5 -96t-6.5 -100.5t-55 -89t-101.5 -55.5v0l-10 -3l-484 -131l-1 -1q58 -166 162 -267.5t190 -87.5q49 8 188 82q52 27 67 34v-67l-195 -99h-423q-115 41 -196.5 113.5t-124.5 165.5v-160q0 -50 -34 -84.5t-83 -34.5h-450
q-50 33 -89.5 129t-38.5 198q0 137 77 220q27 30 54.5 46t75.5 36l-137 238q64 68 130 90.5t181 22.5h403q72 0 129 -47q51 29 103 47h465q5 -2 27 -11t27 -11zM1063 754v-167q7 -68 28 -135l308 83q61 17 84 76q22 59 -10 110q-54 82 -120 133.5t-125.5 62.5t-105.5 -30
t-59 -133zM726 128v620q-130 -59 -201.5 -151.5t-78.5 -185t16.5 -176t76.5 -135.5t109 -52q33 0 55.5 23.5t22.5 56.5zM726 803v126h-7q-90 -1 -173.5 -31t-145 -95.5t-69.5 -153.5l59 23z" />
    <glyph glyph-name="ccedilla" unicode="&#xe7;" horiz-adv-x="1150" 
d="M813 50q29 5 74.5 25.5t104 51.5t76.5 39v-67l-195 -99h-150l-23 -73q83 -7 129.5 -37t46.5 -70q0 -45 -44 -74.5t-107 -39t-132 -13t-119 4.5v87q111 -32 196 -3q51 17 51 43q0 34 -89 48q-32 5 -72 7l36 120h-123q-128 42 -218.5 121t-133 171.5t-43 196.5t42 197
t133 172t217.5 122h585l18 -307h-48q-3 43 -9 77.5t-20 69.5t-35.5 58.5t-56.5 38.5t-81 15h-251q-99 -4 -130 -136q-33 -139 20 -340q53 -204 156 -319q92 -104 194 -87z" />
    <glyph glyph-name="egrave" unicode="&#xe8;" horiz-adv-x="1196" 
d="M966 958q2 -1 7 -3t7 -3q57 -26 92.5 -71t42.5 -96t-6.5 -100.5t-55 -89t-101.5 -55.5v0l-10 -3l-483 -131l-2 -1q58 -166 162 -267.5t190 -87.5q49 8 188 82q52 27 67 34v-67l-195 -99h-423q-125 45 -209.5 127t-125.5 186q-9 23 -15 46q-18 73 -18 146t26.5 145t70 134
t113.5 113.5t158 82.5h465q6 -2 28 -11t27 -11zM700 1198l49 -78q13 -24 -5 -42t-42 -5l-78 49l-166 103q-14 9 -15 25q-2 17 9 28l92 91q12 11 28 10q15 -1 25 -16zM825 721q-48 73 -105.5 123t-112.5 65.5t-100.5 -1t-72.5 -81t-24 -169.5q3 -104 33 -206l308 83
q61 17 84 76q22 59 -10 110z" />
    <glyph glyph-name="eacute" unicode="&#xe9;" horiz-adv-x="1196" 
d="M966 958q2 -1 7 -3t7 -3q57 -26 92.5 -71t42.5 -96t-6.5 -100.5t-55 -89t-101.5 -55.5v0l-10 -3l-483 -131l-2 -1q58 -166 162 -267.5t190 -87.5q49 8 188 82q52 27 67 34v-67l-195 -99h-423q-125 45 -209.5 127t-125.5 186q-9 23 -15 46q-18 73 -18 146t26.5 145t70 134
t113.5 113.5t158 82.5h465q6 -2 28 -11t27 -11zM587 1120l49 78l103 165q10 15 25 16q17 1 28 -10l92 -91q11 -11 9 -28q-1 -16 -15 -25l-166 -103l-78 -49q-24 -13 -42 5t-5 42zM825 721q-48 73 -105.5 123t-112.5 65.5t-100.5 -1t-72.5 -81t-24 -169.5q3 -104 33 -206
l308 83q61 17 84 76q22 59 -10 110z" />
    <glyph glyph-name="ecircumflex" unicode="&#xea;" horiz-adv-x="1196" 
d="M966 958q2 -1 7 -3t7 -3q57 -26 92.5 -71t42.5 -96t-6.5 -100.5t-55 -89t-101.5 -55.5v0l-10 -3l-483 -131l-2 -1q58 -166 162 -267.5t190 -87.5q49 8 188 82q52 27 67 34v-67l-195 -99h-423q-125 45 -209.5 127t-125.5 186q-9 23 -15 46q-18 73 -18 146t26.5 145t70 134
t113.5 113.5t158 82.5h465q6 -2 28 -11t27 -11zM804 1101l-100 139l-100 -139h-148l162 225h172l162 -225h-148zM825 721q-48 73 -105.5 123t-112.5 65.5t-100.5 -1t-72.5 -81t-24 -169.5q3 -104 33 -206l308 83q61 17 84 76q22 59 -10 110z" />
    <glyph glyph-name="edieresis" unicode="&#xeb;" horiz-adv-x="1196" 
d="M966 958q2 -1 7 -3t7 -3q57 -26 92.5 -71t42.5 -96t-6.5 -100.5t-55 -89t-101.5 -55.5v0l-10 -3l-483 -131l-2 -1q58 -166 162 -267.5t190 -87.5q49 8 188 82q52 27 67 34v-67l-195 -99h-423q-125 45 -209.5 127t-125.5 186q-9 23 -15 46q-18 73 -18 146t26.5 145t70 134
t113.5 113.5t158 82.5h465q6 -2 28 -11t27 -11zM632 1199q0 -45 -31.5 -76.5t-76.5 -31.5t-76.5 31.5t-31.5 76.5t31.5 76.5t76.5 31.5t76.5 -31.5t31.5 -76.5zM926 1199q0 -45 -31.5 -76.5t-76.5 -31.5t-76.5 31.5t-31.5 76.5t31.5 76.5t76.5 31.5t76.5 -31.5t31.5 -76.5z
M825 721q-48 73 -105.5 123t-112.5 65.5t-100.5 -1t-72.5 -81t-24 -169.5q3 -104 33 -206l308 83q61 17 84 76q22 59 -10 110z" />
    <glyph glyph-name="igrave" unicode="&#xec;" horiz-adv-x="845" 
d="M609 852v-724q0 -33 23.5 -56.5t56.5 -23.5h79v-48h-690v48h79q33 0 56.5 23.5t23.5 56.5v724q0 33 -23.5 56.5t-56.5 23.5h-79v48h402q53 0 91 -37.5t38 -90.5zM574 1120q13 -24 -5 -42t-42 -5l-78 49l-166 103q-14 9 -15 25q-2 17 9 28l92 91q11 11 28 10q15 -1 25 -16
l103 -165z" />
    <glyph glyph-name="iacute" unicode="&#xed;" horiz-adv-x="845" 
d="M609 852v-724q0 -33 23.5 -56.5t56.5 -23.5h79v-48h-690v48h79q33 0 56.5 23.5t23.5 56.5v724q0 33 -23.5 56.5t-56.5 23.5h-79v48h402q53 0 91 -37.5t38 -90.5zM263 1078q-18 18 -5 42l49 78l103 165q10 15 25 16q17 1 28 -10l46 -45l46 -46q11 -12 10 -28
q-1 -15 -16 -25l-166 -103l-78 -49q-24 -13 -42 5z" />
    <glyph glyph-name="icircumflex" unicode="&#xee;" horiz-adv-x="845" 
d="M609 852v-724q0 -33 23.5 -56.5t56.5 -23.5h79v-48h-690v48h79q33 0 56.5 23.5t23.5 56.5v724q0 33 -23.5 56.5t-56.5 23.5h-79v48h402q53 0 91 -37.5t38 -90.5zM671 1101h-148l-100 139l-100 -139h-148l162 225h172z" />
    <glyph glyph-name="idieresis" unicode="&#xef;" horiz-adv-x="845" 
d="M609 527v-399q0 -33 23.5 -56.5t56.5 -23.5h79v-48h-690v48h79q33 0 56.5 23.5t23.5 56.5v724q0 33 -23.5 56.5t-56.5 23.5h-79v48h402q53 0 91 -37.5t38 -90.5v-325zM384 1199q0 -45 -31.5 -76.5t-76.5 -31.5t-76.5 31.5t-31.5 76.5t31.5 76.5t76.5 31.5t76.5 -31.5
t31.5 -76.5zM570 1091q-45 0 -76.5 31.5t-31.5 76.5t31.5 76.5t76.5 31.5t76.5 -31.5t31.5 -76.5t-31.5 -76.5t-76.5 -31.5z" />
    <glyph glyph-name="eth" unicode="&#xf0;" horiz-adv-x="1357" 
d="M1280 490q0 -158 -95.5 -292t-273.5 -198h-465q-119 43 -204 121.5t-124.5 171.5t-39.5 197t39.5 197t124.5 171.5t204 121.5h350q-65 85 -139 141l-122 -88l-63 87l87 64q-154 78 -303 42v78q213 50 431 -27l153 112l64 -87l-103 -75q199 -105 339 -313t140 -424z
M410 658q6 -225 127 -405q86 -129 190 -174q105 -45 166 23q58 65 54 220q-6 225 -127 405q-86 129 -190 174q-105 45 -166 -23q-58 -65 -54 -220z" />
    <glyph glyph-name="ntilde" unicode="&#xf1;" 
d="M609 790v-662q0 -33 23.5 -56.5t56.5 -23.5h79v-48h-690v48h79q33 0 56.5 23.5t23.5 56.5v724q0 33 -23.5 56.5t-56.5 23.5h-79v48h402q49 0 85.5 -32.5t42.5 -81.5l84 85q29 29 80 29h333q64 0 110 -45.5t46 -109.5v-697q0 -31 20.5 -54t51.5 -26h88v-48h-403
q-53 0 -90.5 37.5t-37.5 90.5v727q0 41 -30.5 64.5t-75 17.5t-78.5 -43zM490 1099q-9 41 -7.5 86t24 87t61.5 57q38 14 85 1.5t80 -32t75 -41.5t72 -26q45 -6 65 17.5t8 67.5l55 -2q9 -41 8 -86t-23.5 -87t-61.5 -57q-38 -14 -84.5 -1.5t-80 32t-76 41.5t-72.5 26
q-45 6 -65 -17.5t-8 -67.5z" />
    <glyph glyph-name="ograve" unicode="&#xf2;" horiz-adv-x="1357" 
d="M911 980q119 -43 204 -121.5t124.5 -171.5t39.5 -197t-39.5 -197t-124.5 -171.5t-204 -121.5h-465q-119 43 -204 121.5t-124.5 171.5t-39.5 197t39.5 197t124.5 171.5t204 121.5h465zM781 1198l48 -78q13 -24 -5 -42t-41 -5l-78 49l-166 103q-15 10 -16 25q-1 16 10 28
l92 91q11 11 27 10q15 -1 25 -16zM410 658q6 -225 127 -405q86 -129 190 -174q105 -45 166 23q58 65 54 220q-6 225 -127 405q-86 129 -190 174q-105 45 -166 -23q-58 -65 -54 -220z" />
    <glyph glyph-name="oacute" unicode="&#xf3;" horiz-adv-x="1357" 
d="M911 980q119 -43 204 -121.5t124.5 -171.5t39.5 -197t-39.5 -197t-124.5 -171.5t-204 -121.5h-465q-119 43 -204 121.5t-124.5 171.5t-39.5 197t39.5 197t124.5 171.5t204 121.5h465zM528 1120l49 78l103 165q10 15 25 16q17 1 28 -10l92 -91q11 -11 9 -28
q-1 -16 -15 -25l-166 -103l-78 -49q-24 -13 -42 5t-5 42zM410 658q6 -225 127 -405q86 -129 190 -174q105 -45 166 23q58 65 54 220q-6 225 -127 405q-86 129 -190 174q-105 45 -166 -23q-58 -65 -54 -220z" />
    <glyph glyph-name="ocircumflex" unicode="&#xf4;" horiz-adv-x="1357" 
d="M911 980q119 -43 204 -121.5t124.5 -171.5t39.5 -197t-39.5 -197t-124.5 -171.5t-204 -121.5h-465q-119 43 -204 121.5t-124.5 171.5t-39.5 197t39.5 197t124.5 171.5t204 121.5h465zM779 1101l-100 139l-100 -139h-148l162 225h172l162 -225h-148zM410 658
q6 -225 127 -405q86 -129 190 -174q105 -45 166 23q58 65 54 220q-6 225 -127 405q-86 129 -190 174q-105 45 -166 -23q-58 -65 -54 -220z" />
    <glyph glyph-name="otilde" unicode="&#xf5;" horiz-adv-x="1357" 
d="M911 980q119 -43 204 -121.5t124.5 -171.5t39.5 -197t-39.5 -197t-124.5 -171.5t-204 -121.5h-465q-119 43 -204 121.5t-124.5 171.5t-39.5 197t39.5 197t124.5 171.5t204 121.5h465zM497 1329q38 14 85 1.5t80 -32t75.5 -41.5t72.5 -26q45 -6 65 17.5t8 67.5l55 -2
q9 -41 7.5 -86t-24 -87t-61.5 -57q-38 -14 -85 -1.5t-80 32t-75 41.5t-72 26q-45 6 -65 -17.5t-8 -67.5l-55 2q-9 41 -8 86t23.5 87t61.5 57zM410 658q6 -225 127 -405q86 -129 190 -174q105 -45 166 23q58 65 54 220q-6 225 -127 405q-86 129 -190 174q-105 45 -166 -23
q-58 -65 -54 -220z" />
    <glyph glyph-name="odieresis" unicode="&#xf6;" horiz-adv-x="1357" 
d="M911 980q119 -43 204 -121.5t124.5 -171.5t39.5 -197t-39.5 -197t-124.5 -171.5t-204 -121.5h-465q-119 43 -204 121.5t-124.5 171.5t-39.5 197t39.5 197t124.5 171.5t204 121.5h465zM640 1199q0 -45 -31.5 -76.5t-76.5 -31.5t-76.5 31.5t-31.5 76.5t31.5 76.5t76.5 31.5
t76.5 -31.5t31.5 -76.5zM934 1199q0 -45 -31.5 -76.5t-76.5 -31.5t-76.5 31.5t-31.5 76.5t31.5 76.5t76.5 31.5t76.5 -31.5t31.5 -76.5zM410 658q6 -225 127 -405q86 -129 190 -174q105 -45 166 23q58 65 54 220q-6 225 -127 405q-86 129 -190 174q-105 45 -166 -23
q-58 -65 -54 -220z" />
    <glyph glyph-name="divide" unicode="&#xf7;" horiz-adv-x="1122" 
d="M699 133q-57 -57 -138 -57t-139 57q-57 57 -57 138.5t57 138.5q58 57 139 57t138 -57t57 -138.5t-57 -138.5zM664 994q-69 -43 -147.5 -24t-121.5 88t-24 148t88 122t147.5 24t121.5 -88t24 -148t-88 -122zM1044 602h-966v228h966v-228z" />
    <glyph glyph-name="oslash" unicode="&#xf8;" horiz-adv-x="1357" 
d="M911 0h-465q-1 0 -2.5 1t-2.5 1l-101 -175l-27 -47l-66 38l124 215q-101 51 -170 131.5t-98.5 170.5t-23 188t48 184.5t123.5 159.5t195 113h465q1 0 3 -1t3 -1l110 191l18 32l66 -38l-124 -215q101 -51 170 -131.5t98.5 -170.5t22.5 -188.5t-48 -185t-123.5 -159.5
t-195.5 -113zM516 285l278 480q-48 62 -102.5 102t-105 48.5t-91 -12t-64 -83.5t-21.5 -162q6 -204 106 -373zM564 215q40 -52 85 -88t88 -53t82 -11t68 33.5t45.5 85t14.5 140.5q-6 204 -106 373z" />
    <glyph glyph-name="ugrave" unicode="&#xf9;" 
d="M890 190v662q0 33 -23.5 56.5t-56.5 23.5h-80v48h691v-48h-80q-33 0 -56.5 -23.5t-23.5 -56.5v-724q0 -33 23.5 -56.5t56.5 -23.5h80v-48h-403q-49 0 -85 32.5t-42 81.5l-85 -84q-30 -30 -80 -30h-333q-64 0 -110 45.5t-46 109.5v697q0 31 -20.5 54t-51.5 26h-87v48h402
q53 0 91 -37.5t38 -90.5v-727q0 -41 30.5 -64.5t75 -17.5t78.5 43zM900 1120q13 -24 -5 -42t-42 -5l-78 49l-166 103q-14 9 -15 25q-2 17 9 28l46 46l46 45q12 11 28 10q15 -1 25 -16l103 -165z" />
    <glyph glyph-name="uacute" unicode="&#xfa;" 
d="M890 190v662q0 33 -23.5 56.5t-56.5 23.5h-80v48h691v-48h-80q-33 0 -56.5 -23.5t-23.5 -56.5v-724q0 -33 23.5 -56.5t56.5 -23.5h80v-48h-403q-49 0 -85 32.5t-42 81.5l-85 -84q-30 -30 -80 -30h-333q-64 0 -110 45.5t-46 109.5v697q0 31 -20.5 54t-51.5 26h-87v48h402
q53 0 91 -37.5t38 -90.5v-727q0 -41 30.5 -64.5t75 -17.5t78.5 43zM604 1078q-18 18 -5 42l48 78l104 165q10 15 25 16q16 1 27 -10l92 -91q11 -12 10 -28q-1 -15 -16 -25l-166 -103l-78 -49q-23 -13 -41 5z" />
    <glyph glyph-name="ucircumflex" unicode="&#xfb;" 
d="M890 190v662q0 33 -23.5 56.5t-56.5 23.5h-80v48h691v-48h-80q-33 0 -56.5 -23.5t-23.5 -56.5v-724q0 -33 23.5 -56.5t56.5 -23.5h80v-48h-403q-49 0 -85 32.5t-42 81.5l-85 -84q-30 -30 -80 -30h-333q-64 0 -110 45.5t-46 109.5v697q0 31 -20.5 54t-51.5 26h-87v48h402
q53 0 91 -37.5t38 -90.5v-727q0 -41 30.5 -64.5t75 -17.5t78.5 43zM997 1101h-148l-100 139l-100 -139h-148l162 225h172z" />
    <glyph glyph-name="udieresis" unicode="&#xfc;" 
d="M890 190v662q0 33 -23.5 56.5t-56.5 23.5h-80v48h691v-48h-80q-33 0 -56.5 -23.5t-23.5 -56.5v-724q0 -33 23.5 -56.5t56.5 -23.5h80v-48h-403q-49 0 -85 32.5t-42 81.5l-85 -84q-30 -30 -80 -30h-333q-64 0 -110 45.5t-46 109.5v697q0 31 -20.5 54t-51.5 26h-87v48h402
q53 0 91 -37.5t38 -90.5v-727q0 -41 30.5 -64.5t75 -17.5t78.5 43zM710 1199q0 -45 -31.5 -76.5t-76.5 -31.5t-76.5 31.5t-31.5 76.5t31.5 76.5t76.5 31.5t76.5 -31.5t31.5 -76.5zM896 1091q-45 0 -76.5 31.5t-31.5 76.5t31.5 76.5t76.5 31.5t76.5 -31.5t31.5 -76.5
t-31.5 -76.5t-76.5 -31.5z" />
    <glyph glyph-name="yacute" unicode="&#xfd;" horiz-adv-x="1386" 
d="M843 0h-285l-59 146l-122 302l-166 412q-13 34 -42.5 53t-65.5 19h-25v48h664v-48h-91q-25 0 -39 -20t-4 -44l244 -605l36 -89v-1l17 -42l5 12l115 286l14 33q82 206 -1 414l-42 104h313l-277 -686l-119 -294l-10 -24q-63 -157 -86 -201q-78 -151 -195 -200
q-68 -28 -155 -28h-309l128 295q63 -40 146.5 -49t162.5 11t147.5 71.5t100.5 124.5zM792 1078q-18 18 -5 42l49 78l103 165q10 15 25 16q17 1 28 -10l92 -91q11 -11 9 -28q-1 -16 -15 -25l-166 -103l-78 -49q-24 -13 -42 5z" />
    <glyph glyph-name="thorn" unicode="&#xfe;" horiz-adv-x="1476" 
d="M609 121v-446q0 -33 23.5 -57t56.5 -24h79v-47h-690v47h79q33 0 56.5 24t23.5 57v1631q0 33 -23.5 56.5t-56.5 23.5h-79v48h690v-48h-79q-33 0 -56.5 -23.5t-23.5 -56.5v-446h431q148 0 253.5 -105t105.5 -253q0 -16 -1 -24h1q0 -148 -105.5 -253t-253.5 -105l-301 1
h-130zM609 168h143q130 0 223.5 90.5t98.5 219.5v12v12q-5 129 -98.5 220t-223.5 91h-143v-645z" />
    <glyph glyph-name="ydieresis" unicode="&#xff;" horiz-adv-x="1386" 
d="M843 0h-285l-59 146l-122 302l-166 412q-13 34 -42.5 53t-65.5 19h-25v48h664v-48h-91q-25 0 -39 -20t-4 -44l244 -605l36 -89v-1l17 -42l5 12l115 286l14 33q82 206 -1 414l-42 104h313l-277 -686l-119 -294l-10 -24q-63 -157 -86 -201q-78 -151 -195 -200
q-68 -28 -155 -28h-309l128 295q63 -40 146.5 -49t162.5 11t147.5 71.5t100.5 124.5zM761 1199q0 -45 -31.5 -76.5t-76.5 -31.5t-76.5 31.5t-31.5 76.5t31.5 76.5t76.5 31.5t76.5 -31.5t31.5 -76.5zM948 1091q-45 0 -76.5 31.5t-31.5 76.5t31.5 76.5t76.5 31.5t76.5 -31.5
t31.5 -76.5t-31.5 -76.5t-76.5 -31.5z" />
    <glyph glyph-name="Amacron" unicode="&#x100;" horiz-adv-x="1718" 
d="M928 564l-69 169l-39 99q-14 55 7 108l134 330q17 42 -8 79t-65 37h-288q35 -2 54 -32t6 -63l-251 -620q-15 -39 8 -73t65 -34h446zM1011 1718v-108h-456v108h456zM947 516h-577q-14 -133 38 -262l103 -254h-433l520 1287q14 33 -5 64t-51 35h-28h-63v48h439
q40 0 72.5 -22t47.5 -60l501 -1239q12 -30 38.5 -47.5t58.5 -17.5h32v-48h-664v48h91q25 0 38.5 20.5t4.5 43.5z" />
    <glyph glyph-name="amacron" unicode="&#x101;" horiz-adv-x="1335" 
d="M259 618l26 11l-137 238q64 68 130 90.5t181 22.5h436q77 0 134.5 -51t66.5 -126v-3v-2v-3v-2v-1l1 -2v0v-2v-4v0v-5v-651q0 -33 23.5 -56.5t56.5 -23.5h80v-48h-365q-50 0 -84.5 35t-34.5 84q0 -50 -34 -84.5t-83 -34.5h-450q-50 33 -89.5 129t-38.5 198v1q0 91 37 161
l2.5 5l2.5 5h1q1 1 1 2v2h1l6 9v1l1 1q0 2 1 2l1 1q0 1 1 2.5t2 2.5l1 1l2 2l1 2l1 1v1l1 1q1 1 2 2.5t2 2.5l1 1l2 2l1 2l2 2l3 3v1l1 1l2 2l2 1l2 2l1 2l3 3l2 2l2 2l2 1q1 0 1 1t1 2l2 1l3 3l2 1l2 2l2 1q0 1 1 2l2 2l2 1q1 0 1 1l2 1l1 1q0 1 2 1q1 0 2 1l1 1q1 1 4 3
l1 1q1 0 2 1t2 1l1 1q1 1 4 3h1q1 1 4 3l2 1q1 0 1 1l2 1l2 1q1 1 2.5 2t2.5 1h1l2 1l2 1l1 1q1 1 3 1t2 1l1 1q1 0 2.5 1t2.5 1l1 1q0 1 2 1q1 0 2 1l2 1q1 0 3 1t3 1zM895 1265v-108h-456v108h456zM726 128v620q-130 -59 -201.5 -151.5t-78.5 -185t16.5 -176t76.5 -135.5
t109 -52q33 0 55.5 23.5t22.5 56.5zM726 803v126h-7q-90 -1 -173.5 -31t-145 -95.5t-69.5 -153.5l59 23z" />
    <glyph glyph-name="Abreve" unicode="&#x102;" horiz-adv-x="1718" 
d="M928 564l-69 169l-39 99q-14 55 7 108l134 330q17 42 -8 79t-65 37h-288q35 -2 54 -32t6 -63l-251 -620q-15 -39 8 -73t65 -34h446zM1016 1657q0 -61 -45.5 -109.5t-116.5 -66.5h-140q-71 18 -116.5 66.5t-45.5 109.5h142q34 -69 103 -106q65 -34 98 -8q23 19 17 64
q-3 26 -15 50h119zM947 516h-577q-14 -133 38 -262l103 -254h-433l520 1287q14 33 -5 64t-51 35h-28h-63v48h439q40 0 72.5 -22t47.5 -60l501 -1239q12 -30 38.5 -47.5t58.5 -17.5h32v-48h-664v48h91q25 0 38.5 20.5t4.5 43.5z" />
    <glyph glyph-name="abreve" unicode="&#x103;" horiz-adv-x="1335" 
d="M259 618l26 11l-137 238q64 68 130 90.5t181 22.5h436q77 0 134.5 -51t66.5 -126v-3v-2v-3v-2v-1l1 -2v0v-2v-4v0v-5v-651q0 -33 23.5 -56.5t56.5 -23.5h80v-48h-365q-50 0 -84.5 35t-34.5 84q0 -50 -34 -84.5t-83 -34.5h-450q-50 33 -89.5 129t-38.5 198v1q0 91 37 161
l2.5 5l2.5 5h1q1 1 1 2v2h1l6 9v1l1 1q0 2 1 2v1q1 1 2 2.5t2 2.5l1 1l2 2l1 2l1 1v1l1 1q1 1 2 2.5t2 2.5l1 1l2 2l1 2l2 2l3 3v1l1 1l2 2l2 1l2 2l1 2l3 3l2 2l2 2l2 1q1 0 1 1t1 2l2 1l3 3l2 1l2 2l2 1l4 4l1 1q1 0 1 1l2 1l1 1q0 1 2 1q1 0 2 1l1 1q1 1 4 3l1 1q1 0 2 1
t2 1l1 1q0 1 2 2t3 1v0q1 1 4 3l2 1q1 0 1 1l2 1l2 1q1 1 2.5 2t2.5 1h1l2 1l2 1l1 1q1 1 3 1t2 1l1 1q1 0 2.5 1t2.5 1l1 1q0 1 2 1q1 0 2 1l2 1q1 0 3 1t3 1zM899 1204q0 -61 -45.5 -109.5t-116.5 -66.5h-140q-71 18 -116.5 66.5t-45.5 109.5h143q34 -69 103 -106
q66 -35 98 -7q22 18 16 63q-3 26 -15 50h119zM726 128v620q-130 -59 -201.5 -151.5t-78.5 -185t16.5 -176t76.5 -135.5t109 -52q33 0 55.5 23.5t22.5 56.5zM726 803v126h-7q-90 -1 -173.5 -31t-145 -95.5t-69.5 -153.5l59 23z" />
    <glyph glyph-name="Aogonek" unicode="&#x104;" horiz-adv-x="1718" 
d="M928 564l-69 169l-40 99q-13 53 8 108l134 330q17 42 -8 79t-65 37h-288q35 -2 54 -32t6 -63l-251 -620q-15 -39 8 -73t65 -34h446zM1626 -182l14 -88q-66 -24 -125 -24q-131 0 -186.5 68t-7.5 146q28 44 84 80h-429v48h91q25 0 38.5 20.5t4.5 43.5l-163 404h-577
q-14 -133 38 -262l103 -254h-433l520 1287q14 33 -5 64t-51 35h-28h-63v48h439q40 0 72.5 -22t47.5 -60l501 -1239q12 -30 38.5 -47.5t58.5 -17.5h32v-48h-109q-48 -23 -74 -57.5t-19 -72.5q6 -37 39 -54t73 -15t76 17z" />
    <glyph glyph-name="aogonek" unicode="&#x105;" horiz-adv-x="1335" 
d="M259 618l26 11l-137 238q64 68 130 90.5t181 22.5h437q77 0 134 -51t66 -126v-3v-2v-3v-2v-1l1 -2v0v-2v-4v0v-5v-651q0 -33 23.5 -56.5t56.5 -23.5h80v-48h-110q-48 -23 -74 -57.5t-19 -72.5q6 -37 39 -54t73 -15t76 17l15 -88q-66 -24 -126 -24q-131 0 -186.5 68
t-7.5 146q27 43 85 80h-130q-50 0 -84.5 35t-34.5 84q0 -50 -34 -84.5t-83 -34.5h-450q-50 33 -89.5 129t-38.5 198v1q0 91 37 161l2.5 5l2.5 5h1q1 1 1 2v2h1l6 9v1l1 1q0 2 1 2v1q1 1 2 2.5t2 2.5l1 1l2 2l1 2l1 1v1l1 1q1 1 2 2.5t2 2.5l1 1l2 2l1 2l2 2l3 3v1l1 1l2 2
l2 1l2 2l1 2l3 3l2 2l2 2l2 1q1 0 1 1t1 2l2 1l3 3l2 1l2 2l2 1l4 4l1 1q1 0 1 1l2 1l1 1q0 1 2 1q1 0 2 1l1 1q1 1 4 3l1 1q1 0 2 1t2 1l1 1q0 1 2 2t3 1v0q1 1 4 3l2 1q1 0 1 1l2 1l2 1q1 1 2.5 2t2.5 1h1l2 1l2 1l1 1q1 1 3 1t2 1l1 1q1 0 2.5 1t2.5 1l1 1q0 1 2 1
q1 0 2 1l2 1q1 0 3 1t3 1zM726 128v620q-130 -59 -201.5 -151.5t-78.5 -185t16.5 -176t76.5 -135.5t109 -52q33 0 55.5 23.5t22.5 56.5zM726 803v126h-7q-90 -1 -173.5 -31t-145 -95.5t-69.5 -153.5l59 23z" />
    <glyph glyph-name="Cacute" unicode="&#x106;" horiz-adv-x="1359" 
d="M553 1434h711l18 -307h-48l-4 73q-4 79 -61.5 132.5t-136.5 53.5h-376q-90 0 -159.5 -61.5t-101.5 -157.5t-24 -201q6 -81 26 -161.5t50 -151t68.5 -137.5t83.5 -122.5t94.5 -105.5t101 -86t103.5 -64.5t101.5 -41t95.5 -15t85 12.5q33 11 102 51v-75l-129 -70h-599
q-154 62 -263.5 177.5t-160.5 251.5t-51 288t50.5 288t160 251.5t263.5 177.5zM781 1531q-18 18 -5 42l49 78l103 166q10 15 25 16q17 1 28 -10l92 -92q11 -11 10 -28q-1 -15 -16 -25l-166 -103l-78 -49q-24 -13 -42 5z" />
    <glyph glyph-name="cacute" unicode="&#x107;" horiz-adv-x="1150" 
d="M573 932q-99 -4 -130 -136q-33 -139 20 -340q53 -204 156 -319q92 -104 194 -87q29 5 74.5 25.5t104 51.5t76.5 39v-67l-195 -99h-400q-128 42 -218.5 121t-133 171.5t-43 196.5t42 197t133 172t217.5 122h585l18 -307h-48q-3 43 -9 77.5t-20 69.5t-35.5 58.5t-56.5 38.5
t-81 15h-251zM581 1078q-18 18 -5 42l49 78l103 165q10 15 25 16q17 1 28 -10l45 -45l46 -46q12 -12 10 -28q-1 -15 -16 -25l-165 -103l-78 -49q-24 -13 -42 5z" />
    <glyph glyph-name="Ccaron" unicode="&#x10c;" horiz-adv-x="1359" 
d="M1043 1434h221l18 -307h-48l-4 73q-4 79 -61.5 132.5t-136.5 53.5h-376q-90 0 -159.5 -61.5t-101.5 -157.5t-24 -201q6 -81 26 -161.5t50 -151t68.5 -137.5t83.5 -122.5t94.5 -105.5t101 -86t103.5 -64.5t101.5 -41t95.5 -15t85 12.5q33 11 102 51v-75l-129 -70h-599
q-154 62 -263.5 177.5t-160.5 251.5t-51 288t50.5 288t160 251.5t263.5 177.5h490zM602 1779h147l101 -138l100 138h148l-163 -224h-171z" />
    <glyph glyph-name="ccaron" unicode="&#x10d;" horiz-adv-x="1150" 
d="M573 932q-99 -4 -130 -136q-33 -139 20 -340q53 -204 156 -319q92 -104 194 -87q29 5 74.5 25.5t104 51.5t76.5 39v-67l-195 -99h-400q-128 42 -218.5 121t-133 171.5t-43 196.5t42 197t133 172t217.5 122h585l18 -307h-48q-3 43 -9 77.5t-20 69.5t-35.5 58.5t-56.5 38.5
t-81 15h-251zM500 1326h148l100 -139l101 139h147l-162 -225h-171z" />
    <glyph glyph-name="Dcaron" unicode="&#x10e;" horiz-adv-x="1626" 
d="M609 947v-819q0 -33 23.5 -56.5t56.5 -23.5h98q66 0 121 24.5t92 64.5t65.5 97t45 116t26.5 127.5t13.5 124.5t3.5 115t-3.5 115t-13.5 124.5t-26.5 127.5t-45 116t-65.5 97t-92 64.5t-121 24.5h-533l296 -296q59 -59 59 -143zM658 1779l100 -138l100 138h148l-162 -224
h-172l-162 224h148zM609 1434h322q128 0 232.5 -40.5t174.5 -108.5t118 -161t69.5 -195t21.5 -212t-21.5 -212t-69.5 -195t-118 -161t-174.5 -108.5t-232.5 -40.5h-853v48h79q33 0 56.5 23.5t23.5 56.5v1178q0 33 -23.5 56.5t-56.5 23.5h-79v48h531z" />
    <glyph glyph-name="dcaron" unicode="&#x10f;" horiz-adv-x="1454" 
d="M788 932q-61 0 -118.5 -33.5t-101 -89t-75 -128t-46 -150t-8.5 -155.5t31.5 -144t79.5 -116t131 -71q41 -11 74 20.5t33 76.5v790zM1376 1229q0 -74 -27 -119q-28 -47 -83 -70l-33 49q36 16 55 49q17 31 19 91h-66v135h135v-135zM1160 1097v-969q0 -3 3 -24q1 -11 16 -28
t25 -19q15 -7 24 -8q15 -1 91 -1v-48h-364q-49 0 -84 35t-35 84q0 -49 -35.5 -84t-84.5 -35h-279q-152 0 -254 137q-94 126 -104 306q-11 197 86 341q123 180 371 195l41 1h211v326q0 33 -23.5 56.5t-56.5 23.5h-79v48h402q53 0 91 -37.5t38 -90.5v-209z" />
    <glyph glyph-name="dmacron" unicode="&#x111;" horiz-adv-x="1396" 
d="M788 932q-61 0 -118.5 -33.5t-101 -89t-75 -128t-46 -150t-8.5 -155.5t31.5 -144t79.5 -116t131 -71q41 -11 74 20.5t33 76.5v790zM1160 1265h159v-108h-159v-1029q0 -3 3 -24q1 -11 16 -28t25 -19q15 -7 24 -8q15 -1 91 -1v-48h-364q-49 0 -84 35t-35 84
q0 -49 -35.5 -84t-84.5 -35h-279q-152 0 -254 137q-94 126 -104 306q-11 197 86 341q123 180 371 195l41 1h211v177h-215v108h215v41q0 33 -23.5 56.5t-56.5 23.5h-79v48h402q53 0 91 -37.5t38 -90.5v-41z" />
    <glyph glyph-name="Emacron" unicode="&#x112;" horiz-adv-x="1406" 
d="M609 774h281q95 0 143 62.5t59 161.5h48v-496h-48q-11 99 -59 161.5t-143 62.5h-281v-598q0 -35 25 -58l17 -12l3 -2h1l1 -1l19 -6q5 -1 149 -1q158 0 280 106.5t181 265.5l45 -18l-103 -402h-1149v48h79q33 0 56.5 23.5t23.5 56.5v1178q0 33 -23.5 56.5t-56.5 23.5h-79
v48h1154l18 -307h-48l-4 73q-4 79 -61.5 132.5t-136.5 53.5h-746l296 -296q59 -59 59 -143v-173zM476 1718h456v-108h-456v108z" />
    <glyph glyph-name="emacron" unicode="&#x113;" horiz-adv-x="1196" 
d="M966 958q2 -1 7 -3t7 -3q57 -26 92.5 -71t42.5 -96t-6.5 -100.5t-55 -89t-101.5 -55.5v0l-10 -3l-483 -131l-2 -1q58 -166 162 -267.5t190 -87.5q49 8 188 82q52 27 67 34v-67l-195 -99h-423q-125 45 -209.5 127t-125.5 186q-9 23 -15 46q-18 73 -18 146t26.5 145t70 134
t113.5 113.5t158 82.5h465q6 -2 28 -11t27 -11zM924 1265v-108h-456v108h456zM825 721q-48 73 -105.5 123t-112.5 65.5t-100.5 -1t-72.5 -81t-24 -169.5q3 -104 33 -206l308 83q61 17 84 76q22 59 -10 110z" />
    <glyph glyph-name="Edot" unicode="&#x116;" horiz-adv-x="1406" 
d="M609 774h281q95 0 143 62.5t59 161.5h48v-496h-48q-11 99 -59 161.5t-143 62.5h-281v-598q0 -35 25 -58l17 -12l3 -2h1l1 -1l19 -6q5 -1 149 -1q158 0 280 106.5t181 265.5l45 -18l-103 -402h-1149v48h79q33 0 56.5 23.5t23.5 56.5v1178q0 33 -23.5 56.5t-56.5 23.5h-79
v48h1154l18 -307h-48l-4 73q-4 79 -61.5 132.5t-136.5 53.5h-746l296 -296q59 -59 59 -143v-173zM812 1652q0 -45 -31.5 -76.5t-76.5 -31.5t-76.5 31.5t-31.5 76.5t31.5 76.5t76.5 31.5t76.5 -31.5t31.5 -76.5z" />
    <glyph glyph-name="edot" unicode="&#x117;" horiz-adv-x="1196" 
d="M966 958q2 -1 7 -3t7 -3q57 -26 92.5 -71t42.5 -96t-6.5 -100.5t-55 -89t-101.5 -55.5v0l-10 -3l-483 -131l-2 -1q58 -166 162 -267.5t190 -87.5q49 8 188 82q52 27 67 34v-67l-195 -99h-423q-125 45 -209.5 127t-125.5 186q-9 23 -15 46q-18 73 -18 146t26.5 145t70 134
t113.5 113.5t158 82.5h465q6 -2 28 -11t27 -11zM686 1307q45 0 76.5 -31.5t31.5 -76.5t-31.5 -76.5t-76.5 -31.5t-76.5 31.5t-31.5 76.5t31.5 76.5t76.5 31.5zM825 721q-48 73 -105.5 123t-112.5 65.5t-100.5 -1t-72.5 -81t-24 -169.5q3 -104 33 -206l308 83q61 17 84 76
q22 59 -10 110z" />
    <glyph glyph-name="Eogonek" unicode="&#x118;" horiz-adv-x="1406" 
d="M609 947v-173h281q95 0 143 62.5t59 161.5h48v-496h-48q-11 99 -59 161.5t-143 62.5h-281v-598q0 -35 25 -58l17 -12l3 -2h1l1 -1l19 -6q5 -1 149 -1q158 0 280 106.5t181 265.5l45 -18l-103 -402h-7q-48 -23 -74 -57.5t-19 -72.5q6 -37 39 -54t73 -15t76 17l15 -88
q-66 -24 -126 -24q-131 0 -186.5 68t-7.5 146q27 43 85 80h-1017v48h79q33 0 56.5 23.5t23.5 56.5v1178q0 33 -23.5 56.5t-56.5 23.5h-79v48h1154l18 -307h-48l-4 73q-4 79 -61.5 132.5t-136.5 53.5h-746l296 -296q59 -59 59 -143z" />
    <glyph glyph-name="eogonek" unicode="&#x119;" horiz-adv-x="1196" 
d="M966 958q2 -1 7 -3t7 -3q57 -26 92.5 -71t42.5 -96t-6.5 -100.5t-55 -89t-101.5 -55.5v0l-10 -3l-483 -131l-2 -1q58 -166 162 -267.5t190 -87.5q49 8 188 82q52 27 67 34v-67l-195 -99h-145q-48 -23 -74 -57.5t-19 -72.5q6 -37 39 -54t73 -15t76 17l14 -88
q-66 -24 -125 -24q-131 0 -186.5 68t-7.5 146q27 43 85 80h-153q-125 45 -209.5 127t-125.5 186q-9 23 -15 46q-18 73 -18 146t26.5 145t70 134t113.5 113.5t158 82.5h465q6 -2 28 -11t27 -11zM825 721q-48 73 -105.5 123t-112.5 65.5t-100.5 -1t-72.5 -81t-24 -169.5
q3 -104 33 -206l308 83q61 17 84 76q22 59 -10 110z" />
    <glyph glyph-name="Ecaron" unicode="&#x11a;" horiz-adv-x="1406" 
d="M609 774h281q95 0 143 62.5t59 161.5h48v-496h-48q-11 99 -59 161.5t-143 62.5h-281v-598q0 -35 25 -58l17 -12l3 -2h1l1 -1l19 -6q5 -1 149 -1q158 0 280 106.5t181 265.5l45 -18l-103 -402h-1149v48h79q33 0 56.5 23.5t23.5 56.5v1178q0 33 -23.5 56.5t-56.5 23.5h-79
v48h1154l18 -307h-48l-4 73q-4 79 -61.5 132.5t-136.5 53.5h-746l296 -296q59 -59 59 -143v-173zM456 1779h148l100 -138l100 138h148l-162 -224h-172z" />
    <glyph glyph-name="ecaron" unicode="&#x11b;" horiz-adv-x="1196" 
d="M966 958q2 -1 7 -3t7 -3q57 -26 92.5 -71t42.5 -96t-6.5 -100.5t-55 -89t-101.5 -55.5v0l-10 -3l-483 -131l-2 -1q58 -166 162 -267.5t190 -87.5q49 8 188 82q52 27 67 34v-67l-195 -99h-423q-125 45 -209.5 127t-125.5 186q-9 23 -15 46q-18 73 -18 146t26.5 145t70 134
t113.5 113.5t158 82.5h465q6 -2 28 -11t27 -11zM569 1326l100 -139l100 139h148l-162 -225h-172l-162 225h148zM825 721q-48 73 -105.5 123t-112.5 65.5t-100.5 -1t-72.5 -81t-24 -169.5q3 -104 33 -206l308 83q61 17 84 76q22 59 -10 110z" />
    <glyph glyph-name="Gbreve" unicode="&#x11e;" horiz-adv-x="1359" 
d="M1043 1434h221l18 -307h-48l-4 73q-4 79 -61.5 132.5t-136.5 53.5h-376q-90 0 -159.5 -61.5t-102 -157.5t-23.5 -201q12 -152 69.5 -296.5t141 -253t181 -189t196 -117.5t179.5 -26l-168 167q-59 59 -59 143v252q0 33 -23.5 56.5t-56.5 23.5h-80v48h385q60 0 103 -43
t43 -103v-628h-728q-154 62 -263.5 177.5t-160.5 251.5t-51 288t50.5 288t160 251.5t263.5 177.5h490zM924 1657h118q0 -61 -45 -109.5t-116 -66.5h-140q-71 18 -116.5 66.5t-45.5 109.5h142q34 -69 103 -106q65 -34 98 -8q23 19 17 64q-3 26 -15 50z" />
    <glyph glyph-name="gbreve" unicode="&#x11f;" horiz-adv-x="1357" 
d="M911 66h-645q-17 0 -29.5 -12.5t-12.5 -29.5t12.5 -29.5t29.5 -12.5h820q59 0 94 -14q57 -24 79 -80.5t-1.5 -113.5t-84.5 -80l1 1q-65 -25 -213.5 -62.5t-152.5 -38.5q-174 -54 -305.5 -47t-229 78.5t-184.5 224.5h1022q24 0 35.5 19t4 39.5t-31.5 25.5h-853
q-53 0 -79 48q-24 44 2 88t77 44h65q-91 48 -151.5 123t-84.5 158.5t-14 173t52 168t123 144t190 99.5h421q63 82 139 120.5t144.5 34.5t129.5 -41l-34 -229q-61 93 -165 128t-167 -14q118 -38 202.5 -111t123.5 -160.5t38.5 -185.5t-40 -185.5t-124 -160.5t-203.5 -110z
M910 1204q0 -61 -45 -109.5t-116 -66.5h-140q-71 18 -116.5 66.5t-45.5 109.5h142q34 -69 103 -106q65 -34 98 -8q23 19 17 64q-3 24 -16 50h119zM959 347q-6 201 -132 374q-93 128 -204 177q-113 50 -175 -13q-54 -55 -50 -185q6 -201 132 -374q93 -128 204 -177
q113 -50 175 13q54 55 50 185z" />
    <glyph glyph-name="Imacron" unicode="&#x12a;" horiz-adv-x="845" 
d="M78 1434h690v-48h-514l296 -296q59 -59 59 -143v-819q0 -33 23.5 -56.5t56.5 -23.5h79v-48h-690v48h79q33 0 56.5 23.5t23.5 56.5v1178q0 33 -23.5 56.5t-56.5 23.5h-79v48zM195 1718h456v-108h-456v108z" />
    <glyph glyph-name="imacron" unicode="&#x12b;" horiz-adv-x="845" 
d="M609 852v-724q0 -33 23.5 -56.5t56.5 -23.5h79v-48h-690v48h79q33 0 56.5 23.5t23.5 56.5v724q0 33 -23.5 56.5t-56.5 23.5h-79v48h402q53 0 91 -37.5t38 -90.5zM195 1265h456v-108h-456v108z" />
    <glyph glyph-name="Idot" unicode="&#x130;" horiz-adv-x="845" 
d="M78 1434h690v-48h-514l296 -296q59 -59 59 -143v-819q0 -33 23.5 -56.5t56.5 -23.5h79v-48h-690v48h79q33 0 56.5 23.5t23.5 56.5v1178q0 33 -23.5 56.5t-56.5 23.5h-79v48zM531 1652q0 -45 -31.5 -76.5t-76.5 -31.5t-76.5 31.5t-31.5 76.5t31.5 76.5t76.5 31.5
t76.5 -31.5t31.5 -76.5z" />
    <glyph glyph-name="dotlessi" unicode="&#x131;" horiz-adv-x="845" 
d="M609 852v-724q0 -33 23.5 -56.5t56.5 -23.5h79v-48h-690v48h79q33 0 56.5 23.5t23.5 56.5v724q0 33 -23.5 56.5t-56.5 23.5h-79v48h402q53 0 91 -37.5t38 -90.5z" />
    <glyph glyph-name="Lslash" unicode="&#x141;" horiz-adv-x="1406" 
d="M609 128q0 -35 25 -58l17 -12l3 -2h1l1 -1l19 -6q5 -1 149 -1q158 0 280 106.5t181 265.5l45 -18l-103 -402h-1149v48h79q33 0 56.5 23.5t23.5 56.5v275l-125 -63l-34 68l159 80v818q0 33 -23.5 56.5t-56.5 23.5h-79v48h690v-48h-514l296 -296q59 -59 59 -143v-271
l235 119l34 -68l-269 -136v-463z" />
    <glyph glyph-name="lslash" unicode="&#x142;" horiz-adv-x="956" 
d="M663 580v-452q0 -33 24 -56.5t57 -23.5h79v-48h-690v48h79q33 0 56.5 23.5t23.5 56.5v264l-180 -91l-34 68l214 108v829q0 33 -23.5 56.5t-56.5 23.5h-79v48h402q53 0 90.5 -37.5t37.5 -90.5v-641l181 91l34 -68z" />
    <glyph glyph-name="Nacute" unicode="&#x143;" horiz-adv-x="1675" 
d="M369 955v372q0 17 -12.5 29.5t-29.5 12.5t-29.5 -12.5t-12.5 -29.5v-1199q0 -33 23.5 -56.5t56.5 -23.5h80v-48h-367v48h79q33 0 56.5 23.5t23.5 56.5v1178q0 33 -23.5 56.5t-56.5 23.5h-79v48h338l973 -974v846q0 33 -23.5 56.5t-56.5 23.5h-79v48h367v-48h-80
q-33 0 -56.5 -23.5t-23.5 -56.5v-1306h-113l-48 48zM691 1531q-18 18 -4 42l48 78l104 166q10 15 25 16q16 1 27 -10l92 -92q11 -11 10 -28q-1 -15 -16 -25l-166 -103l-78 -49q-24 -13 -42 5z" />
    <glyph glyph-name="nacute" unicode="&#x144;" 
d="M609 790v-662q0 -33 23.5 -56.5t56.5 -23.5h79v-48h-690v48h79q33 0 56.5 23.5t23.5 56.5v724q0 33 -23.5 56.5t-56.5 23.5h-79v48h402q49 0 85.5 -32.5t42.5 -81.5l84 85q29 29 80 29h333q64 0 110 -45.5t46 -109.5v-697q0 -31 20.5 -54t51.5 -26h88v-48h-403
q-53 0 -90.5 37.5t-37.5 90.5v727q0 41 -30.5 64.5t-75 17.5t-78.5 -43zM604 1078q-18 18 -5 42l48 78l104 165q10 15 25 16q16 1 27 -10l46 -45l46 -46q11 -12 10 -28q-1 -15 -16 -25l-166 -103l-78 -49q-23 -13 -41 5z" />
    <glyph glyph-name="Ncaron" unicode="&#x147;" horiz-adv-x="1675" 
d="M369 955v372q0 17 -12.5 29.5t-29.5 12.5t-29.5 -12.5t-12.5 -29.5v-1199q0 -33 23.5 -56.5t56.5 -23.5h80v-48h-367v48h79q33 0 56.5 23.5t23.5 56.5v1178q0 33 -23.5 56.5t-56.5 23.5h-79v48h338l29 -30l944 -944v846q0 33 -23.5 56.5t-56.5 23.5h-79v48h367v-48h-80
q-33 0 -56.5 -23.5t-23.5 -56.5v-1306h-113zM589 1779h148l100 -138l100 138h148l-162 -224h-172z" />
    <glyph glyph-name="ncaron" unicode="&#x148;" 
d="M609 790v-662q0 -33 23.5 -56.5t56.5 -23.5h79v-48h-690v48h79q33 0 56.5 23.5t23.5 56.5v724q0 33 -23.5 56.5t-56.5 23.5h-79v48h402q49 0 85.5 -32.5t42.5 -81.5l84 85q29 29 80 29h333q64 0 110 -45.5t46 -109.5v-697q0 -31 20.5 -54t51.5 -26h88v-48h-403
q-53 0 -90.5 37.5t-37.5 90.5v727q0 41 -30.5 64.5t-75 17.5t-78.5 -43zM501 1326h148l100 -139l100 139h148l-162 -225h-172z" />
    <glyph glyph-name="Omacron" unicode="&#x14c;" horiz-adv-x="1705" 
d="M1154 1434q154 -62 263.5 -177.5t160 -251.5t50.5 -288t-51 -288t-160.5 -251.5t-263.5 -177.5h-599q-154 62 -263.5 177.5t-160.5 251.5t-51 288t50.5 288t160 251.5t263.5 177.5h601zM1082 1718v-108h-456v108h456zM371 966q23 -294 206 -544q138 -187 313 -280
q171 -91 293 -47q134 47 153 245q6 58 0 128q-23 294 -206 544q-138 187 -313 280q-171 91 -293 47q-134 -47 -153 -245q-6 -58 0 -128z" />
    <glyph glyph-name="omacron" unicode="&#x14d;" horiz-adv-x="1357" 
d="M911 980q119 -43 204 -121.5t124.5 -171.5t39.5 -197t-39.5 -197t-124.5 -171.5t-204 -121.5h-465q-119 43 -204 121.5t-124.5 171.5t-39.5 197t39.5 197t124.5 171.5t204 121.5h465zM907 1265v-108h-456v108h456zM410 658q6 -225 127 -405q86 -129 190 -174
q105 -45 166 23q58 65 54 220q-6 225 -127 405q-86 129 -190 174q-105 45 -166 -23q-58 -65 -54 -220z" />
    <glyph glyph-name="Ohungarumlaut" unicode="&#x150;" horiz-adv-x="1705" 
d="M1154 1434q154 -62 263.5 -177.5t160 -251.5t50.5 -288t-51 -288t-160.5 -251.5t-263.5 -177.5h-599q-154 62 -263.5 177.5t-160.5 251.5t-51 288t50.5 288t160 251.5t263.5 177.5h601zM844 1573l49 78l103 166q10 15 25 16q17 1 28 -10l46 -46l46 -46q11 -11 9 -28
q-1 -15 -16 -25l-165 -103l-78 -49q-24 -13 -42 5t-5 42zM567 1531q-18 18 -5 42l48 78l104 166q10 15 25 16q16 1 27 -10l46 -46l46 -46q12 -11 10 -28q-1 -15 -16 -25l-166 -103l-78 -49q-23 -13 -41 5zM371 966q23 -294 206 -544q138 -187 313 -280q171 -91 293 -47
q134 47 153 245q6 58 0 128q-23 294 -206 544q-138 187 -313 280q-171 91 -293 47q-134 -47 -153 -245q-6 -58 0 -128z" />
    <glyph glyph-name="ohungarumlaut" unicode="&#x151;" horiz-adv-x="1357" 
d="M911 980q119 -43 204 -121.5t124.5 -171.5t39.5 -197t-39.5 -197t-124.5 -171.5t-204 -121.5h-465q-119 43 -204 121.5t-124.5 171.5t-39.5 197t39.5 197t124.5 171.5t204 121.5h465zM669 1120l49 78l103 165q10 15 25 16q17 1 28 -10l46 -46l46 -45q11 -11 9 -28
q-1 -16 -15 -25l-166 -103l-78 -49q-24 -13 -42 5t-5 42zM392 1078q-18 18 -5 42l49 78l103 165q10 15 25 16q16 1 28 -10l45 -45l46 -46q11 -12 10 -28q-1 -15 -16 -25l-165 -103l-78 -49q-24 -13 -42 5zM410 658q6 -225 127 -405q86 -129 190 -174q105 -45 166 23
q58 65 54 220q-6 225 -127 405q-86 129 -190 174q-105 45 -166 -23q-58 -65 -54 -220z" />
    <glyph glyph-name="OE" unicode="&#x152;" horiz-adv-x="2289" 
d="M1491 774h281q95 0 143 62.5t59 161.5h48v-496h-48q-11 99 -59 161.5t-143 62.5h-281v-598q0 -35 25 -58l18 -12l3 -2q1 0 1 -0.5t1 -0.5l19 -6q5 -1 148 -1q107 0 201.5 53t158.5 135t102 184l44 -18l-102 -402h-1556q-154 62 -263.5 177.5t-160.5 251.5t-51 288
t50.5 288t160 251.5t263.5 177.5h1562l18 -307h-48l-4 73q-4 79 -61.5 132.5t-136.5 53.5h-746l295 -296q59 -59 59 -143v-173zM371 966q14 -181 93 -350.5t187 -284.5t229.5 -183.5t224.5 -66.5q15 20 15 47v896q-49 65 -106 120.5t-114.5 96t-116.5 68.5t-113 37t-103 3.5
t-88 -33t-65.5 -72.5t-38 -116t-4.5 -162z" />
    <glyph glyph-name="oe" unicode="&#x153;" horiz-adv-x="2052" 
d="M1107 113q-80 -71 -196 -113h-465q-119 43 -204 121.5t-124.5 171.5t-39.5 197t39.5 197t124.5 171.5t204 121.5h465q116 -42 196 -113q80 71 195 113h465q6 -2 27 -11t27 -11l15 -6q57 -26 92.5 -71t42.5 -96t-6.5 -100.5t-55 -89t-101.5 -55.5v0l-10 -3l-484 -131
l-1 -1q58 -166 162 -267.5t190 -87.5q49 8 188 82q52 27 67 34v-67l-195 -99h-423q-115 42 -195 113zM1691 611q22 59 -10 110q-48 73 -105.5 123t-112.5 65.5t-100.5 -1t-72.5 -81t-24 -169.5q3 -104 33 -206l308 83q61 17 84 76zM410 658q6 -225 127 -405
q86 -129 190 -174q105 -45 166 23q58 65 54 220q-6 225 -127 405q-86 129 -190 174q-105 45 -166 -23q-58 -65 -54 -220z" />
    <glyph glyph-name="Racute" unicode="&#x154;" horiz-adv-x="1624" 
d="M609 514v-386q0 -33 23.5 -56.5t56.5 -23.5h79v-48h-690v48h79q33 0 56.5 23.5t23.5 56.5v1178q0 33 -23.5 56.5t-56.5 23.5h-79v48h962q155 0 261.5 -114.5t96.5 -268.5h1q0 -148 -105.5 -253.5t-253.5 -104.5l-318 1h-56l358 -132v0v0v0h1v0v0v0q133 -49 206 -171
l167 -280q38 -63 110 -63h39v-48h-642v48h46q14 0 20.5 12t-0.5 24l-362 605v-175zM662 1573l48 78l104 166q10 15 25 16q16 1 27 -10l92 -92q12 -11 10 -28q-1 -15 -16 -25l-166 -103l-78 -49q-23 -13 -41 5t-5 42zM722 741h30q130 0 223.5 90.5t98.5 219.5v24
q-5 129 -98.5 220t-223.5 91h-498l296 -296q59 -59 59 -143v-206h113z" />
    <glyph glyph-name="racute" unicode="&#x155;" horiz-adv-x="1292" 
d="M609 738v-610q0 -33 23.5 -56.5t56.5 -23.5h79v-48h-690v48h79q33 0 56.5 23.5t23.5 56.5v724q0 33 -23.5 56.5t-56.5 23.5h-79v48h402q53 0 91 -37.5t38 -90.5v-37q7 6 39.5 32t43 34t38.5 27.5t44.5 28t41.5 19t48 15.5q44 9 83 10t71 -7.5t59.5 -21t52.5 -33.5
t44.5 -41.5t40.5 -48.5l-223 -285q-13 79 -33 136t-43 90t-52.5 47.5t-58.5 14.5t-63.5 -13.5t-65.5 -33t-67 -47.5zM676 1078q-18 18 -5 42l49 78l103 165q10 15 25 16q16 1 28 -10l46 -45l45 -46q11 -12 10 -28q-1 -15 -16 -25l-165 -103l-78 -49q-24 -13 -42 5z" />
    <glyph glyph-name="Rcaron" unicode="&#x158;" horiz-adv-x="1624" 
d="M609 514v-386q0 -33 23.5 -56.5t56.5 -23.5h79v-48h-690v48h79q33 0 56.5 23.5t23.5 56.5v1178q0 33 -23.5 56.5t-56.5 23.5h-79v48h962q155 0 261.5 -114.5t96.5 -268.5h1q0 -148 -105.5 -253.5t-253.5 -104.5l-318 1h-56l358 -132v0v0v0v0h1v0v0v0q133 -49 206 -171
l167 -280q38 -63 110 -63h39v-48h-642v48h46q14 0 20.5 12t-0.5 24l-362 605v-175zM712 1779l100 -138l100 138h148l-162 -224h-172l-162 224h148zM722 741h30q130 0 223.5 90.5t98.5 219.5v24q-5 129 -98.5 220t-223.5 91h-498l296 -296q59 -59 59 -143v-206h113z" />
    <glyph glyph-name="rcaron" unicode="&#x159;" horiz-adv-x="1292" 
d="M609 738v-610q0 -33 23.5 -56.5t56.5 -23.5h79v-48h-690v48h79q33 0 56.5 23.5t23.5 56.5v724q0 33 -23.5 56.5t-56.5 23.5h-79v48h402q53 0 91 -37.5t38 -90.5v-37q9 7 34.5 27.5t36.5 29t33.5 25.5t37 25.5t35 19.5t39.5 18t39 11q44 9 83 10t71 -7.5t59.5 -21
t52.5 -33.5t44.5 -41.5t40.5 -48.5l-223 -285q-13 79 -33 136t-43 90t-52.5 47.5t-58.5 14.5t-63.5 -13.5t-65.5 -33t-67 -47.5zM439 1326h148l100 -139l100 139h148l-162 -225h-172z" />
    <glyph glyph-name="Sacute" unicode="&#x15a;" horiz-adv-x="1337" 
d="M398 1075q73 -53 185 -102.5t206 -82.5t199 -89t173 -124q62 -63 85 -145t7 -163t-57.5 -156t-109 -131.5t-145.5 -81.5h-608q-147 60 -255 169l270 266q117 -162 216 -247.5t201 -108.5q70 -17 125 -13.5t96.5 19t62 45t22.5 64.5t-22 79t-72 87q-60 55 -157 102.5
t-194 84t-193.5 76.5t-179.5 98t-129 131q-32 56 -35 130q-7 135 82.5 265t244.5 187h731l18 -307h-48l-4 73q-4 79 -61.5 132.5t-136.5 53.5h-465q-93 -33 -131.5 -85t-17 -111.5t96.5 -114.5zM523 1531q-18 18 -5 42l48 78l104 166q10 15 25 16q17 1 28 -10l45 -46l46 -46
q12 -11 10 -28q-1 -15 -16 -25l-166 -103l-78 -49q-23 -13 -41 5z" />
    <glyph glyph-name="sacute" unicode="&#x15b;" horiz-adv-x="1142" 
d="M401 932q-55 0 -85.5 -21.5t-32 -50t23.5 -58t70 -44.5q42 -14 107.5 -32t119.5 -32t119 -35t115.5 -42.5t98 -54.5t77 -70.5t43 -90t4.5 -114.5q-15 -101 -89.5 -181t-180.5 -106h-528q-25 8 -45.5 17t-41.5 23t-31 21t-34.5 27.5t-32.5 26.5l214 183q25 -27 62 -69
t55.5 -62t43.5 -43t48 -37q94 -57 204 -37q87 17 118 71q40 67 -44 143q-12 11 -27 22q-55 40 -153.5 71.5t-208 62t-171.5 61.5q-64 32 -98.5 83.5t-38 106t17 110.5t59 100t96.5 71.5t122 27.5h593l18 -307h-48q-3 43 -9 77.5t-20 69.5t-35.5 58.5t-56.5 38.5t-81 15h-337
zM534 1078q-18 18 -4 42l48 78l104 165q10 15 24 16q17 1 28 -10l46 -45l46 -46q12 -12 10 -28q-1 -15 -16 -25l-166 -103l-78 -49q-24 -13 -42 5z" />
    <glyph glyph-name="Scedilla" unicode="&#x15e;" horiz-adv-x="1337" 
d="M1161 677q62 -63 85 -145t7 -163t-57.5 -156t-109 -131.5t-145.5 -81.5h-224l-24 -73q83 -7 130 -37t47 -70q0 -45 -44.5 -74.5t-107.5 -39t-132.5 -13t-118.5 4.5v87q111 -32 197 -3q50 16 51 42q1 34 -86 49q-32 5 -75 7l36 120h-257q-147 60 -255 169l270 266
q117 -162 216 -247.5t201 -108.5q70 -17 125 -13.5t96.5 19t62 45t22.5 64.5t-22 79t-72 87q-60 55 -157 102.5t-194 84t-193.5 76.5t-179.5 98t-129 131q-32 56 -35 130q-7 135 82.5 265t244.5 187h731l18 -307h-48l-4 73q-4 79 -61.5 132.5t-136.5 53.5h-465
q-93 -33 -131.5 -85t-17 -111.5t96.5 -114.5q73 -53 185 -102.5t206 -82.5t199 -89t173 -124z" />
    <glyph glyph-name="scedilla" unicode="&#x15f;" horiz-adv-x="1142" 
d="M377 758q42 -14 107.5 -32t119.5 -32t119 -35t115.5 -42.5t98 -54.5t77 -70.5t43 -90t4.5 -114.5q-15 -101 -89.5 -181t-180.5 -106h-203l-23 -73q83 -7 129.5 -37t46.5 -70q0 -36 -29.5 -62.5t-74 -39.5t-100.5 -19.5t-105.5 -6t-92.5 5.5v87q111 -32 196 -3
q51 17 51 43q0 34 -89 48q-32 5 -72 7l36 120h-198q-25 8 -45.5 17t-41.5 23t-31 21t-34.5 27.5t-32.5 26.5l214 183q25 -27 62 -69t55.5 -62t43.5 -43t48 -37q94 -57 204 -37q87 17 118 71q40 67 -44 143q-12 11 -27 22q-55 40 -153.5 71.5t-208 62t-171.5 61.5
q-64 32 -98.5 83.5t-38 106t17 110.5t59 100t96.5 71.5t122 27.5h593l18 -307h-48q-3 43 -9 77.5t-20 69.5t-35.5 58.5t-56.5 38.5t-81 15h-337q-55 0 -85.5 -21.5t-32 -50t23.5 -58t70 -44.5z" />
    <glyph glyph-name="Scaron" unicode="&#x160;" horiz-adv-x="1337" 
d="M398 1075q73 -53 185 -102.5t206 -82.5t199 -89t173 -124q62 -63 85 -145t7 -163t-57.5 -156t-109 -131.5t-145.5 -81.5h-608q-147 60 -255 169l270 266q117 -162 216 -247.5t201 -108.5q70 -17 125 -13.5t96.5 19t62 45t22.5 64.5t-22 79t-72 87q-60 55 -157 102.5
t-194 84t-193.5 76.5t-179.5 98t-129 131q-32 56 -35 130q-7 135 82.5 265t244.5 187h731l18 -307h-48l-4 73q-4 79 -61.5 132.5t-136.5 53.5h-465q-93 -33 -131.5 -85t-17 -111.5t96.5 -114.5zM420 1779h148l100 -138l101 138h147l-162 -224h-171z" />
    <glyph glyph-name="scaron" unicode="&#x161;" horiz-adv-x="1142" 
d="M401 932q-55 0 -85.5 -21.5t-32 -50t23.5 -58t70 -44.5q42 -14 107.5 -32t119.5 -32t119 -35t115.5 -42.5t98 -54.5t77 -70.5t43 -90t4.5 -114.5q-15 -101 -89.5 -181t-180.5 -106h-528q-25 8 -45.5 17t-41.5 23t-31 21t-34.5 27.5t-32.5 26.5l214 183q25 -27 62 -69
t55.5 -62t43.5 -43t48 -37q94 -57 204 -37q87 17 118 71q40 67 -44 143q-12 11 -27 22q-55 40 -153.5 71.5t-208 62t-171.5 61.5q-64 32 -98.5 83.5t-38 106t17 110.5t59 100t96.5 71.5t122 27.5h593l18 -307h-48q-3 43 -9 77.5t-20 69.5t-35.5 58.5t-56.5 38.5t-81 15h-337
zM352 1326h148l100 -139l100 139h148l-162 -225h-172z" />
    <glyph glyph-name="Umacron" unicode="&#x16a;" horiz-adv-x="1697" 
d="M930 1434h691v-48h-515l296 -296q59 -59 59 -143v-664q0 -100 -84.5 -172.5t-224.5 -110.5h-606q-140 38 -224.5 110.5t-84.5 172.5v1023q0 33 -23.5 56.5t-56.5 23.5h-79v48h690v-48h-514l296 -296q59 -59 59 -143v-795q0 -25 8.5 -43.5t28 -29.5t37.5 -17.5t51 -9.5
t54.5 -3.5t60.5 -0.5t60.5 0.5t54.5 3.5t51.5 9.5t38 17.5t28 29.5t8.5 43.5v1154q0 33 -23.5 56.5t-56.5 23.5h-80v48zM621 1718h456v-108h-456v108z" />
    <glyph glyph-name="umacron" unicode="&#x16b;" 
d="M793 86l97 104v662q0 33 -23.5 56.5t-56.5 23.5h-80v48h691v-48h-80q-33 0 -56.5 -23.5t-23.5 -56.5v-724q0 -33 23.5 -56.5t56.5 -23.5h80v-48h-403q-49 0 -85 32.5t-42 81.5l-85 -84q-30 -30 -80 -30h-333q-64 0 -110 45.5t-46 109.5v697q0 31 -20.5 54t-51.5 26h-87
v48h402q53 0 91 -37.5t38 -90.5v-727q0 -41 30.5 -64.5t75 -17.5t78.5 43zM521 1265h456v-108h-456v108z" />
    <glyph glyph-name="Uring" unicode="&#x16e;" horiz-adv-x="1697" 
d="M930 1434h691v-48h-515l296 -296q59 -59 59 -143v-664q0 -100 -84.5 -172.5t-224.5 -110.5h-606q-140 38 -224.5 110.5t-84.5 172.5v1023q0 33 -23.5 56.5t-56.5 23.5h-79v48h690v-48h-514l296 -296q59 -59 59 -143v-795q0 -25 8.5 -43.5t28 -29.5t37.5 -17.5t51 -9.5
t54.5 -3.5t60.5 -0.5t60.5 0.5t54.5 3.5t51.5 9.5t38 17.5t28 29.5t8.5 43.5v1154q0 33 -23.5 56.5t-56.5 23.5h-80v48zM919 1833q71 -18 116.5 -66.5t45.5 -109.5t-45.5 -109.5t-116.5 -66.5h-140q-71 18 -116 66.5t-45 109.5t45 109.5t116 66.5h140zM721 1707
q10 -77 89 -133q67 -48 121 -40q54 7 46 73q-10 77 -89 133q-67 48 -121 40q-54 -7 -46 -73z" />
    <glyph glyph-name="uring" unicode="&#x16f;" 
d="M793 86l97 104v662q0 33 -23.5 56.5t-56.5 23.5h-80v48h691v-48h-80q-33 0 -56.5 -23.5t-23.5 -56.5v-724q0 -33 23.5 -56.5t56.5 -23.5h80v-48h-403q-49 0 -85 32.5t-42 81.5l-85 -84q-30 -30 -80 -30h-333q-64 0 -110 45.5t-46 109.5v697q0 31 -20.5 54t-51.5 26h-87
v48h402q53 0 91 -37.5t38 -90.5v-727q0 -41 30.5 -64.5t75 -17.5t78.5 43zM819 1380q71 -18 116.5 -66.5t45.5 -109.5t-45.5 -109.5t-116.5 -66.5h-140q-71 18 -116 66.5t-45 109.5t45 109.5t116 66.5h140zM621 1254q10 -77 89 -133q67 -48 122 -40q54 8 46 73
q-10 77 -89 133q-67 48 -122 40q-54 -8 -46 -73z" />
    <glyph glyph-name="Uhungarumlaut" unicode="&#x170;" horiz-adv-x="1697" 
d="M930 1434h691v-48h-515l296 -296q59 -59 59 -143v-664q0 -100 -84.5 -172.5t-224.5 -110.5h-606q-140 38 -224.5 110.5t-84.5 172.5v1023q0 33 -23.5 56.5t-56.5 23.5h-79v48h690v-48h-514l296 -296q59 -59 59 -143v-795q0 -25 8.5 -43.5t28 -29.5t37.5 -17.5t51 -9.5
t54.5 -3.5t60.5 -0.5t60.5 0.5t54.5 3.5t51.5 9.5t38 17.5t28 29.5t8.5 43.5v1154q0 33 -23.5 56.5t-56.5 23.5h-80v48zM840 1573l48 78l104 166q10 15 25 16q17 1 28 -10l91 -92q12 -11 10 -28q-1 -15 -16 -25l-166 -103l-78 -49q-23 -13 -41 5t-5 42zM558 1573l48 78
l104 166q10 15 24 16q17 1 28 -10l46 -46l46 -46q12 -11 10 -28q-1 -15 -16 -25l-166 -103l-78 -49q-24 -13 -42 5t-4 42z" />
    <glyph glyph-name="uhungarumlaut" unicode="&#x171;" 
d="M890 190v662q0 33 -23.5 56.5t-56.5 23.5h-80v48h691v-48h-80q-33 0 -56.5 -23.5t-23.5 -56.5v-724q0 -33 23.5 -56.5t56.5 -23.5h80v-48h-403q-49 0 -85 32.5t-42 81.5l-85 -84q-30 -30 -80 -30h-333q-64 0 -110 45.5t-46 109.5v697q0 31 -20.5 54t-51.5 26h-87v48h402
q53 0 91 -37.5t38 -90.5v-727q0 -41 30.5 -64.5t75 -17.5t78.5 43zM740 1120l49 78l103 165q10 15 25 16q17 1 28 -10l45 -45l46 -46q12 -12 10 -28q-1 -15 -16 -25l-165 -103l-78 -49q-24 -13 -42 5t-5 42zM458 1120l48 78l104 165q10 15 24 16q17 1 28 -10l46 -45l46 -46
q12 -12 10 -28q-1 -15 -16 -25l-166 -103l-78 -49q-24 -13 -42 5t-4 42z" />
    <glyph glyph-name="Uogonek" unicode="&#x172;" horiz-adv-x="1697" 
d="M930 1434h691v-48h-515l296 -296q59 -59 59 -143v-664q0 -100 -84.5 -172.5t-224.5 -110.5h-242q-48 -23 -74 -57.5t-19 -72.5q6 -37 39 -54t73 -15t76 17l14 -88q-66 -24 -125 -24q-131 0 -186.5 68t-7.5 146q27 43 85 80h-239q-140 38 -224.5 110.5t-84.5 172.5v1023
q0 33 -23.5 56.5t-56.5 23.5h-79v48h690v-48h-514l296 -296q59 -59 59 -143v-795q0 -25 8.5 -43.5t28 -29.5t37.5 -17.5t51 -9.5t54.5 -3.5t60.5 -0.5t60.5 0.5t54.5 3.5t51.5 9.5t38 17.5t28 29.5t8.5 43.5v1154q0 33 -23.5 56.5t-56.5 23.5h-80v48z" />
    <glyph glyph-name="uogonek" unicode="&#x173;" 
d="M890 190v662q0 33 -23.5 56.5t-56.5 23.5h-80v48h691v-48h-80q-33 0 -56.5 -23.5t-23.5 -56.5v-724q0 -33 23.5 -56.5t56.5 -23.5h80v-48h-109q-48 -23 -74.5 -57.5t-19.5 -72.5q6 -37 39 -54t73 -15t76 17l15 -88q-66 -24 -126 -24q-131 0 -186.5 68t-6.5 146
q28 44 84 80h-168q-49 0 -85 32.5t-42 81.5l-85 -84q-30 -30 -80 -30h-333q-64 0 -110 45.5t-46 109.5v697q0 31 -20.5 54t-51.5 26h-87v48h402q53 0 91 -37.5t38 -90.5v-727q0 -41 30.5 -64.5t75 -17.5t78.5 43z" />
    <glyph glyph-name="Ydieresis" unicode="&#x178;" horiz-adv-x="1779" 
d="M959 0h-368v48h79q33 0 56.5 18t23.5 44v335h-7l-160 269l-23 40l-348 581q-29 50 -108 50h-26v49h691v-49h-102q-59 0 -33 -44l428 -715l36 -61l1 -1l12 -22h8l1 1l251 430q83 143 0 285l-102 176h433l-389 -665l-190 -324h-1v-335q0 -26 23.5 -44t56.5 -18h79v-48h-322
zM935 1652q0 -45 -31.5 -76.5t-76.5 -31.5t-76.5 31.5t-31.5 76.5t31.5 76.5t76.5 31.5t76.5 -31.5t31.5 -76.5zM1121 1544q-45 0 -76.5 31.5t-31.5 76.5t31.5 76.5t76.5 31.5t76.5 -31.5t31.5 -76.5t-31.5 -76.5t-76.5 -31.5z" />
    <glyph glyph-name="Zacute" unicode="&#x179;" horiz-adv-x="1583" 
d="M78 48h36q79 0 114 63q466 872 532.5 1000t125.5 239q6 12 -2 24t-24 12h-319h-135q-79 0 -136.5 -53.5t-61.5 -132.5l-4 -73h-48l18 307h1308l6 -48h-43q-79 0 -114 -64q-418 -781 -516 -968t-142 -270q-6 -12 2.5 -24t24.5 -12h420h135q79 0 136 53.5t61 132.5l5 73h48
l-19 -307h-1408v48zM641 1573l48 78l104 166q10 15 25 16q16 1 27 -10l46 -46l46 -46q11 -11 10 -28q-1 -15 -16 -25l-166 -103l-78 -49q-24 -13 -42 5t-4 42z" />
    <glyph glyph-name="zacute" unicode="&#x17a;" horiz-adv-x="1214" 
d="M112 980h986l-76 -126l-251 -418l-190 -315q-17 -23 -7.5 -47t35.5 -26h277q46 0 81 15t56.5 38.5t35.5 58.5t20 69.5t9 77.5h48l-18 -307h-1040l344 571l174 288q17 22 7.5 46.5t-35.5 26.5h-225q-46 0 -81 -15t-56.5 -38.5t-35.5 -58.5t-20 -69.5t-9 -77.5h-48z
M450 1078q-18 18 -4 42l48 78l104 165q10 15 25 16q16 1 27 -10l46 -45l46 -46q12 -12 10 -28q-1 -15 -16 -25l-166 -103l-78 -49q-24 -13 -42 5z" />
    <glyph glyph-name="Zdot" unicode="&#x17b;" horiz-adv-x="1583" 
d="M78 48h36q79 0 114 63q466 872 532.5 1000t125.5 239q6 12 -2 24t-24 12h-319h-135q-79 0 -136.5 -53.5t-61.5 -132.5l-4 -73h-48l18 307h1308l6 -48h-43q-79 0 -114 -64q-418 -781 -516 -968t-142 -270q-6 -12 2.5 -24t24.5 -12h420h135q79 0 136 53.5t61 132.5l5 73h48
l-19 -307h-1408v48zM899 1652q0 -45 -31.5 -76.5t-76.5 -31.5t-76.5 31.5t-31.5 76.5t31.5 76.5t76.5 31.5t76.5 -31.5t31.5 -76.5z" />
    <glyph glyph-name="zdot" unicode="&#x17c;" horiz-adv-x="1214" 
d="M112 980h986l-76 -126l-251 -418l-190 -315q-17 -23 -7.5 -47t35.5 -26h277q46 0 81 15t56.5 38.5t35.5 58.5t20 69.5t9 77.5h48l-18 -307h-1040l344 571l174 288q17 22 7.5 46.5t-35.5 26.5h-225q-46 0 -81 -15t-56.5 -38.5t-35.5 -58.5t-20 -69.5t-9 -77.5h-48z
M715 1199q0 -45 -31.5 -76.5t-76.5 -31.5t-76.5 31.5t-31.5 76.5t31.5 76.5t76.5 31.5t76.5 -31.5t31.5 -76.5z" />
    <glyph glyph-name="Zcaron" unicode="&#x17d;" horiz-adv-x="1583" 
d="M78 48h36q81 0 114 63q466 872 532.5 1000t125.5 239q6 12 -2 24t-24 12h-319h-135q-79 0 -136.5 -53.5t-61.5 -132.5l-4 -73h-48l18 307h1308l6 -48h-43q-79 0 -114 -64q-418 -781 -516 -968t-142 -270q-6 -12 2.5 -24t24.5 -12h420h135q79 0 136 53.5t61 132.5l5 73h48
l-19 -307h-1408v48zM691 1779l100 -138l100 138h148l-162 -224h-172l-162 224h148z" />
    <glyph glyph-name="zcaron" unicode="&#x17e;" horiz-adv-x="1214" 
d="M112 980h986l-76 -126l-251 -418l-190 -315q-17 -23 -7.5 -47t35.5 -26h277q46 0 81 15t56.5 38.5t35.5 58.5t20 69.5t9 77.5h48l-18 -307h-1040l344 571l174 288q17 22 7.5 46.5t-35.5 26.5h-225q-46 0 -81 -15t-56.5 -38.5t-35.5 -58.5t-20 -69.5t-9 -77.5h-48z
M359 1326h148l100 -139l100 139h148l-162 -225h-172z" />
    <glyph glyph-name="florin" unicode="&#x192;" horiz-adv-x="1413" 
d="M605 1540q14 143 127 245.5t256 102.5h348l-31 -307l-4 -40q-136 175 -301 239q0 -2 -0.5 -8t-0.5 -8l-34 -329h274l-5 -48h-274l-20 -199l-131 -1293q-14 -143 -127 -245t-256 -102h-348l31 306l4 41q136 -175 301 -239q0 10 1 15z" />
    <glyph glyph-name="circumflex" unicode="&#x2c6;" horiz-adv-x="1077" 
d="M698 2092l302 -418h-275l-186 258l-186 -258h-275l301 418h319z" />
    <glyph glyph-name="caron" unicode="&#x2c7;" horiz-adv-x="1077" 
d="M725 2092h275l-302 -418h-319l-301 418h275l186 -258z" />
    <glyph glyph-name="breve" unicode="&#x2d8;" horiz-adv-x="999" 
d="M737 1785h184q0 -106 -82.5 -190.5t-211.5 -116.5h-255q-129 32 -211.5 116.5t-82.5 190.5h233q68 -136 195 -198q105 -52 188 -27q73 22 77 95q1 14 -1 29q-7 49 -33 101z" />
    <glyph glyph-name="ogonek" unicode="&#x2db;" horiz-adv-x="618" 
d="M520 -301l20 -119q-86 -32 -170 -32q-71 0 -129 17t-94 46t-54 66t-14.5 79t28.5 82q37 59 114 108h171q-65 -30 -100.5 -77t-26.5 -99q8 -50 53 -73.5t99 -20.5t103 23z" />
    <glyph glyph-name="ilde" unicode="&#x2dc;" horiz-adv-x="1116" 
d="M1023 2029q14 -53 14.5 -114.5t-13.5 -121.5t-50.5 -109t-89.5 -69q-68 -17 -122 -9t-117 36t-112 58t-107.5 57.5t-103.5 33.5q-80 11 -116.5 -31t-14.5 -121l-98 3q-14 53 -14.5 114.5t13.5 121t50.5 108.5t89.5 69q68 17 122 9t117 -36t112 -58t107 -57t103 -33
q80 -11 116.5 31t14.5 121z" />
    <glyph glyph-name="Deltagreek" unicode="&#x394;" horiz-adv-x="1640" 
d="M1192 868l372 -868h-1486l371 868l242 565h259zM821 1278l-470 -1098h939z" />
    <glyph glyph-name="Pi" unicode="&#x3a0;" horiz-adv-x="1329" 
d="M78 1433h1173v-1433h-228v1205h-717v-1205h-228v1433z" />
    <glyph glyph-name="Sigma" unicode="&#x3a3;" horiz-adv-x="1486" 
d="M1357 234l5 72h48l-19 -306h-366h-941l-6 48h42q82 0 115 63q134 250 323 605q-237 447 -323 606q-33 63 -115 63h-42l6 48h1307l19 -306h-48l-5 72q-4 79 -61 132.5t-136 53.5h-135h-319q-16 0 -24.5 -11.5t-2.5 -23.5q82 -154 109.5 -209t224.5 -425
q-197 -370 -224.5 -424.5t-109.5 -208.5q-6 -12 2.5 -23.5t24.5 -11.5h454q79 0 136 53.5t61 132.5z" />
    <glyph glyph-name="Omegagreek" unicode="&#x3a9;" horiz-adv-x="1705" 
d="M1544 234l4 72h48l-18 -306h-589v224q142 -39 227.5 43.5t69.5 291.5q-21 270 -192 497q-129 171 -289 250q-158 78 -265 27q-124 -60 -121 -276q0 -25 2 -52q14 -181 95.5 -341.5t201.5 -274.5v-389h-589l-18 306h47l5 -72q4 -79 61 -132.5t136 -53.5h179v111
q-150 57 -257 160.5t-156 224.5t-47.5 255.5t52.5 254.5t160 222t262 157h601q153 -55 262 -157t160 -222t52.5 -254.5t-47.5 -255.5t-156 -224.5t-257 -160.5v-111h178q79 0 136.5 53.5t61.5 132.5z" />
    <glyph glyph-name="mugreek" unicode="&#x3bc;" 
d="M1341 934q-33 0 -56.5 -23.5t-23.5 -56.5v-724q0 -33 23.5 -56.5t56.5 -23.5h80v-48h-403q-49 0 -85 32.5t-42 81.5l-85 -85q-29 -29 -80 -29h-117v-454h-372v1306q0 31 -20.5 54t-51.5 26h-87v48h402q53 0 91 -37.5t38 -90.5v-727q0 -41 30.5 -64.5t75 -17.5t78.5 43
l97 104v662q0 33 -23.5 56.5t-56.5 23.5h-80v48h691v-48h-80z" />
    <glyph glyph-name="pi" unicode="&#x3c0;" horiz-adv-x="1329" 
d="M78 980h1173v-228h-163v-752h-228v752h-391v-752h-228v752h-163v228z" />
    <glyph glyph-name="endash" unicode="&#x2013;" horiz-adv-x="1361" 
d="M1283 625h-1205v205h1205v-205z" />
    <glyph glyph-name="emdash" unicode="&#x2014;" horiz-adv-x="1550" 
d="M1472 625h-1394v205h1394v-205z" />
    <glyph glyph-name="quoteleft" unicode="&#x2018;" horiz-adv-x="546" 
d="M301 1742q72 -10 120.5 -65t48.5 -129q0 -81 -57.5 -138.5t-138.5 -57.5t-138.5 57.5t-57.5 138.5v5q2 115 93.5 221.5t212.5 147.5l38 -66q-97 -44 -121 -114z" />
    <glyph glyph-name="quoteright" unicode="&#x2019;" horiz-adv-x="546" 
d="M274 1922q81 0 138.5 -57.5t57.5 -138.5v-5q-2 -115 -93.5 -221.5t-213.5 -147.5l-38 66q98 45 122 114q-72 10 -120.5 65t-48.5 129q0 81 57.5 138.5t138.5 57.5z" />
    <glyph glyph-name="quotesinglbase" unicode="&#x201a;" horiz-adv-x="550" 
d="M91 13q-25 25 -7 53l62 99l131 210q11 17 32 20q20 3 35 -12l116 -117q16 -16 13 -35q-3 -21 -20 -32l-210 -131l-99 -61q-29 -18 -53 6z" />
    <glyph glyph-name="quoteleftreversed" unicode="&#x201b;" horiz-adv-x="550" 
d="M466 1557q18 -29 -6 -53t-53 -6l-99 61l-210 131q-17 11 -20 32q-3 20 12 35l117 117q15 15 35 12q21 -3 32 -20l131 -210z" />
    <glyph glyph-name="quotedblleft" unicode="&#x201c;" horiz-adv-x="1046" 
d="M301 1742q72 -10 120.5 -65t48.5 -129q0 -81 -57.5 -138.5t-138.5 -57.5t-138.5 57.5t-57.5 138.5v5q2 115 93.5 221.5t212.5 147.5l38 -66q-97 -44 -121 -114zM800 1742q72 -10 120.5 -65t48.5 -129q0 -81 -57.5 -138.5t-138.5 -57.5t-138.5 57.5t-57.5 138.5v5
q2 115 93.5 221.5t212.5 147.5l39 -66q-98 -45 -122 -114z" />
    <glyph glyph-name="quotedblright" unicode="&#x201d;" horiz-adv-x="1046" 
d="M274 1922q81 0 138.5 -57.5t57.5 -138.5v-5q-2 -115 -93.5 -221.5t-213.5 -147.5l-38 66q98 45 122 114q-72 10 -120.5 65t-48.5 129q0 81 57.5 138.5t138.5 57.5zM773 1922q81 0 138.5 -57.5t57.5 -138.5v-5q-2 -115 -93.5 -221.5t-212.5 -147.5l-39 66q98 45 122 114
q-72 10 -120.5 65t-48.5 129q0 81 57.5 138.5t138.5 57.5z" />
    <glyph glyph-name="quotedblbase" unicode="&#x201e;" horiz-adv-x="1046" 
d="M773 355q81 0 138.5 -57t57.5 -138v-6q-2 -115 -93.5 -221.5t-212.5 -147.5l-39 67q98 45 122 114q-72 10 -120.5 65t-48.5 129q0 81 57.5 138t138.5 57zM274 355q81 0 138.5 -57t57.5 -138v-6q-2 -115 -93.5 -221.5t-213.5 -147.5l-38 67q98 45 122 114
q-72 10 -120.5 65t-48.5 129q0 81 57.5 138t138.5 57z" />
    <glyph glyph-name="dagger" unicode="&#x2020;" horiz-adv-x="1099" 
d="M664 1435h359v-228h-359v-1659h-228v1659h-358v228h358v454h228v-454z" />
    <glyph glyph-name="daggerdbl" unicode="&#x2021;" horiz-adv-x="1099" 
d="M1023 1207h-359v-277h359v-228h-359v-1154h-228v1154h-358v228h358v277h-358v228h358v454h228v-454h359v-228z" />
    <glyph glyph-name="bullet" unicode="&#x2022;" horiz-adv-x="595" 
d="M298 555q-92 0 -156 64.5t-64 155.5t64 155.5t156 64.5t156 -64.5t64 -155.5t-64 -155.5t-156 -64.5z" />
    <glyph glyph-name="ellipsis" unicode="&#x2026;" horiz-adv-x="1517" 
d="M274 -36q-81 0 -138.5 57.5t-57.5 138.5t57.5 138.5t138.5 57.5t138.5 -57.5t57.5 -138.5t-57.5 -138.5t-138.5 -57.5zM758 356q81 0 138.5 -57.5t57.5 -138.5t-57.5 -138.5t-138.5 -57.5t-138.5 57.5t-57.5 138.5t57.5 138.5t138.5 57.5zM1243 356q81 0 138.5 -57.5
t57.5 -138.5t-57.5 -138.5t-138.5 -57.5t-138.5 57.5t-57.5 138.5t57.5 138.5t138.5 57.5z" />
    <glyph glyph-name="perthousand" unicode="&#x2030;" horiz-adv-x="2760" 
d="M887 1064q0 -121 -92.5 -223.5t-208.5 -144.5h-212q-115 41 -205.5 143.5t-90.5 224.5t90.5 225t205.5 144h212q116 -41 208.5 -144.5t92.5 -224.5zM270 1178q15 -156 123 -279q83 -94 169 -113t117 53q18 42 11 112q-15 156 -123 279q-83 94 -169 113t-117 -53
q-18 -42 -11 -112zM1499 736q116 -42 209 -144.5t93 -223.5t-93 -224t-209 -145h-211q-115 41 -205.5 144t-90.5 225t90.5 224.5t205.5 143.5h211zM1184 481q15 -156 123 -279q83 -93 169 -112t117 53q18 43 11 112q-15 156 -123 279q-83 93 -169 112t-117 -53
q-18 -43 -11 -112zM1368 1433h136l-993 -1434h-136zM2382 736q116 -42 208.5 -144.5t92.5 -223.5t-92.5 -224.5t-208.5 -144.5h-212q-115 41 -205.5 144t-90.5 225t90.5 224.5t205.5 143.5h212zM2066 481q15 -156 123 -279q83 -93 169 -112t117 53q18 43 11 112
q-15 156 -123 279q-83 93 -169 112t-117 -53q-18 -43 -11 -112z" />
    <glyph glyph-name="guilsinglleft" unicode="&#x2039;" horiz-adv-x="684" 
d="M605 1433l-263 -717l263 -716h-119l-408 716l408 717h119z" />
    <glyph glyph-name="guilsinglright" unicode="&#x203a;" horiz-adv-x="684" 
d="M197 1433l408 -717l-408 -716h-119l264 716l-264 717h119z" />
    <glyph glyph-name="fraction" unicode="&#x2044;" horiz-adv-x="802" 
d="M78 0l414 1434h232l-414 -1434h-232z" />
    <glyph glyph-name="Euro" unicode="&#x20ac;" horiz-adv-x="1323" 
d="M78 783v76h188q34 190 152.5 344t310.5 232h516v-347q-74 85 -158.5 146t-165 92t-153.5 26.5t-125.5 -43.5t-79 -127t-16.5 -215q5 -55 15 -108h374v-76h-357q15 -55 45 -130h312v-76h-277q104 -206 270.5 -342t315.5 -151v-83h-516q-192 78 -310.5 232t-152.5 344h-188
v76h178q-5 65 0 130h-178z" />
    <glyph glyph-name="trademark" unicode="&#x2122;" horiz-adv-x="2195" 
d="M862 1887l62 -244l-27 -10q-36 96 -109.5 160.5t-169.5 64.5h-220l179 -179q36 -36 36 -87v-495q0 -20 14.5 -34.5t34.5 -14.5h48v-29h-418v29h48q20 0 34 14.5t14 34.5v712q0 21 -14 35q-17 17 -57 6q-71 -19 -127.5 -80t-84.5 -137l-27 10l62 244h722zM1815 1858h-10
l8 -8l171 -171q36 -36 36 -87v-495q0 -10 5 -22l1 -1v-1h1v-1v-1h1v-1l1 -1v0l1 -1v-1h1v-1l1 -1l1 -1l1 -1v0l1 -1v0l1 -1l1 -1l1 -1h1l1 -1v0l1 -1v0l1 -1v0h1l1 -1v0h1v-1h1h1v-1h1h1v-1h1h1l1 -1v0h1l1 -1h1h1h1l1 -1h1h1h1l3 -1h1h1h1h1h1h48v-29h-418v29h48
q20 0 34 14.5t14 34.5v707l-132 -362l-133 -363l-14 -37l-27 18l-189 124q-59 39 -79 87l-129 319v232q0 10 -7 17.5t-18 7.5t-18.5 -7.5t-7.5 -17.5v-725q0 -20 14.5 -34.5t34.5 -14.5h48v-29h-222v29h48q20 0 34 14.5t14 34.5v712q0 20 -14 34.5t-34 14.5h-48v29h299
l237 -609l60 -154l116 317l149 406l14 40h326v-29h-302z" />
    <glyph glyph-name="partialdiff" unicode="&#x2202;" horiz-adv-x="1454" 
d="M900 1433q208 -74 341.5 -271.5t133.5 -445.5q0 -98 -21 -188q-44 -187 -166 -328t-288 -200h-411q-256 92 -357 298q-40 82 -50.5 169t7.5 164.5t56.5 152t97 132.5t130 104.5t153.5 68.5t169 25.5t176 -26.5q74 -23 134.5 -62.5t121.5 -107.5q16 84 -3.5 168.5
t-65 150.5t-116 102.5t-149.5 34t-172 -66.5t-178 -187l-184 192q72 77 174 121h467zM1054 634q66 195 -25 271q-75 61 -220 21q-158 -44 -297 -178q-141 -136 -201 -311q-66 -195 25 -271q75 -61 220 -21q158 44 297 178q141 135 201 311z" />
    <glyph glyph-name="minus" unicode="&#x2212;" horiz-adv-x="1361" 
d="M1283 643h-1205v205h1205v-205z" />
    <glyph glyph-name="radical" unicode="&#x221a;" horiz-adv-x="1132" 
d="M996 1433h58l-340 -1433h-193l-294 769q-41 66 -117 55l-25 -4l-7 48q36 5 113 16.5t113 17.5q38 6 65.5 -8t41 -35t26.5 -57l249 -676q51 218 155 653.5t155 653.5z" />
    <glyph glyph-name="infinity" unicode="&#x221e;" horiz-adv-x="1308" 
d="M1152 855q78 -95 79 -269t-77 -271q-67 -84 -164 -94.5t-178 55.5q-75 58 -158 183q-85 -127 -157 -183q-81 -66 -178 -55.5t-164 94.5q-78 97 -77 271t79 269q66 78 158.5 92t171.5 -45q65 -49 167 -196q101 145 168 196q79 59 171.5 45t158.5 -92zM426 414
q65 45 149 173q-102 138 -156 174q-50 33 -108.5 25.5t-99.5 -51.5q-49 -53 -49.5 -149.5t48.5 -150.5q42 -46 103.5 -51.5t112.5 30.5zM1099 435q49 54 48.5 150.5t-49.5 149.5q-41 44 -100 51.5t-109 -25.5q-52 -35 -155 -174q84 -128 149 -173q51 -36 112.5 -30.5
t103.5 51.5z" />
    <glyph glyph-name="integral" unicode="&#x222b;" horiz-adv-x="1261" 
d="M1157 1859q28 -28 26 -70l-1 -35q-2 -57 -55 -83q-52 -25 -99 11l-3 3q-1 1 -2.5 2t-2.5 2v0h-1l-4 3v1h-1l-4 3v0l-1 1q-1 1 -4 3v0h-1l-1 1q-74 52 -145 79v-15l-6 -138l-7 -192l-61 -1539q-6 -143 -112.5 -245.5t-249.5 -102.5h-249q-39 0 -69 30q-28 28 -26 70l1 35
q2 57 55 83q52 25 99 -11l4 -3v0l4 -4h1v0l4 -3l1 -1v0q1 0 3 -2q2 0 2 -1v0l3 -3t3 -2q73 -52 146 -79q0 3 -0.5 8t-0.5 7l6 138l69 1731q6 143 112.5 245.5t249.5 102.5h248q39 0 69 -30z" />
    <glyph glyph-name="approxequal" unicode="&#x2248;" horiz-adv-x="1384" 
d="M150 661l-52 3q-34 121 -10 233.5t93 183.5q45 45 95 62q86 24 181.5 2.5t227.5 -75.5q18 -7 90.5 -37.5t104 -42t86.5 -27.5t100 -22q102 -13 148.5 35.5t18.5 139.5l53 -4q34 -121 10 -233t-93 -183q-45 -45 -96 -62q-86 -24 -181.5 -2.5t-227.5 75.5q-18 7 -90.5 37.5
t-104 42t-86.5 27.5t-100 22q-102 13 -148.5 -35.5t-18.5 -139.5zM1233 616l53 -3q34 -121 10 -233t-93 -183q-45 -45 -96 -62q-86 -24 -182.5 -3t-226.5 75q-22 9 -91.5 38t-103 42t-87.5 28.5t-99 21.5q-102 13 -148.5 -36t-18.5 -140l-52 4q-34 121 -10 233t93 183
q45 45 95 62q86 24 182.5 3t226.5 -75q22 -9 91.5 -38t103 -42t87.5 -28.5t99 -21.5q102 -13 148.5 35.5t18.5 139.5z" />
    <glyph glyph-name="notequal" unicode="&#x2260;" horiz-adv-x="1122" 
d="M1044 840h-331l-72 -248h403v-228h-469l-105 -364h-232l105 364h-265v228h331l72 248h-403v228h469l105 365h232l-105 -365h265v-228z" />
    <glyph glyph-name="lessequal" unicode="&#x2264;" horiz-adv-x="1159" 
d="M1063 0h-966v228h966v-228zM1082 1289l-623 -450l623 -449l-182 -143l-822 592l822 593z" />
    <glyph glyph-name="greaterequal" unicode="&#x2265;" horiz-adv-x="1159" 
d="M261 247l-183 143l623 449l-623 450l183 143l821 -593zM1063 0h-966v228h966v-228z" />
    <glyph glyph-name="lozenge" unicode="&#x25ca;" horiz-adv-x="1134" 
d="M697 1433l359 -717l-359 -716h-260l-359 716l359 717h260zM567 150l293 566l-293 567l-293 -567z" />
    <glyph glyph-name="R.alt1" unicode="&#xf001;" horiz-adv-x="1540" 
d="M880 694q56 -122 179.5 -201.5t264.5 -96.5q2 -242 91 -466t296 -491q-170 80 -326 222t-272 312t-198 356.5t-118 365.5h-188v-566q0 -33 23.5 -56.5t56.5 -23.5h79v-48h-690v48h79q33 0 56.5 23.5t23.5 56.5v1178q0 33 -23.5 56.5t-56.5 23.5h-79v48h962
q155 0 261.5 -114.5t96.5 -268.5h1v-6q-1 -65 -27 -129q-32 -77 -95 -133t-143 -78q-45 -12 -94 -12h-160zM609 742h143q130 0 223.5 90.5t98.5 219.5v24q-3 73 -35 135q-41 80 -118 128t-169 48h-498l296 -296q59 -59 59 -143v-206z" />
    <glyph glyph-name="B.alt1" unicode="&#xf002;" horiz-adv-x="1562" 
d="M1131 675q140 0 247.5 -100t107.5 -238t-107 -237.5t-248 -99.5h-1053v48h79q33 0 56.5 23.5t23.5 56.5v1178q0 33 -23.5 56.5t-56.5 23.5h-79v48h1001q139 0 238 -99t99 -239t-99 -238.5t-238 -98.5h-324q-17 0 -29.5 -12.5t-12.5 -29.5t12.5 -29.5t29.5 -12.5h376z
M807 48q119 0 204.5 85t85.5 204t-85.5 204.5t-204.5 85.5h-52q-37 0 -63.5 26.5t-26.5 63.5t26.5 63.5t63.5 26.5h35q119 0 204 85t85 204t-85 204.5t-204 85.5h-536l296 -296q59 -59 59 -143v-819q0 -33 23.5 -56.5t56.5 -23.5h118z" />
    <glyph glyph-name="A.alt1" unicode="&#xf003;" horiz-adv-x="1718" 
d="M1608 48h32v-48h-664v48h91q25 0 38.5 20.5t4.5 43.5l-124 309h-427q-37 0 -63.5 26.5t-26.5 63.5t26 63t64 26h354l-93 232q-14 55 7 108l134 330q17 42 -8 79t-65 37h-288q35 -2 54 -32t6 -63l-252 -623q-84 -208 0 -414l103 -254h-433l520 1287q14 33 -5 64t-51 35
h-28h-63v48h439q40 0 72.5 -22t47.5 -60l323 -799h-774q-17 0 -29.5 -12.5t-12.5 -29.5t12.5 -30t29.5 -13h808l144 -355q12 -30 38.5 -47.5t58.5 -17.5z" />
    <glyph glyph-name="R.alt2" unicode="&#xf004;" horiz-adv-x="1599" 
d="M1416 154q0 -44 31 -75t75 -31v-47h-266q-88 0 -150 62t-62 150v124q0 119 -85 204.5t-204 85.5q-37 0 -63.5 26.5t-26.5 63.5t26.5 63.5t63.5 26.5h35q119 0 204 85t85 204t-85 204.5t-204 85.5h-536l296 -296q59 -59 59 -143v-819v-2v-2v-2v-2v0v-2v-1l1 -1v-2v-2v-1
l1 -1v-1v-1v-1h1v-1v-1v-1l1 -2v0l1 -1v-1v-1v-1l1 -1l1 -1v-1l1 -1v-1v-1l1 -1l1 -1v-1l1 -1q0 -2 1 -2v-1l1 -1l1 -1q1 -2 5 -6v-1l4 -4l1 -1l4 -4h1l1 -1l1 -1q1 -1 2.5 -2t2.5 -2l1 -1q2 0 2 -1t2 -1t2 -1l1 -1q1 0 2 -1t2 -1h2l1 -1h1h1v-1h1h2q16 -4 24 -4h79v-48
h-690v48h79q33 0 56.5 23.5t23.5 56.5v1178q0 33 -23.5 56.5t-56.5 23.5h-79v48h1001q139 0 238 -99t99 -239t-99 -238.5t-238 -98.5h-324q-17 0 -29.5 -12.5t-12.5 -29.5t12.5 -29.5t29.5 -12.5h324q138 0 237.5 -99t99.5 -239v-183z" />
    <glyph glyph-name="A.alt2" unicode="&#xf005;" horiz-adv-x="1718" 
d="M1608 48h32v-48h-664v48h91q25 0 38.5 20.5t4.5 43.5l-251 621l-39 99q-14 55 7 108l134 330q17 42 -8 79t-65 37h-288q35 -2 54 -32t6 -63l-252 -623q-84 -208 0 -414l103 -254h-433l520 1287q14 33 -5 64t-51 35h-28h-63v48h439q40 0 72.5 -22t47.5 -60l501 -1239
q13 -30 39 -47.5t58 -17.5z" />
    <glyph glyph-name="k.alt1" unicode="&#xf007;" horiz-adv-x="1519" 
d="M609 1305v-872q75 47 135.5 93.5t115.5 106t80.5 114.5t16.5 116.5t-63 116.5h383q27 -159 -279 -376l295 -493q36 -59 101 -64h3h2h2h2h38v-48h-642v48h46h1h1h1h1l1 1v0h1h1h1l1 1q15 5 15 21v1v1v1l-1 1v1v1v1v1l-1 1v1l-1 1v1l-1 1l-191 319q-13 -8 -37 -21.5
t-28 -15.5v-238q0 -33 23.5 -56.5t56.5 -23.5h79v-48h-690v48h79q33 0 56.5 23.5t23.5 56.5v1178q0 33 -23.5 56.5t-56.5 23.5h-79v48h402q53 0 91 -37.5t38 -90.5z" />
    <glyph glyph-name="y.alt1" unicode="&#xf008;" horiz-adv-x="1421" 
d="M575 -181q100 0 166 45t114 135h-297l-59 146l-122 303l-166 411q-13 34 -42.5 53.5t-65.5 19.5h-25v48h664v-48h-91q-24 0 -39 -21q-14 -20 -4 -44l244 -605l36 -88v-2l17 -42l5 12l115 286l14 33q83 207 0 414l-43 105h313l-277 -687l-111 -275q-72 -178 -209 -230h631
q-144 -223 -371 -240q-163 -13 -433 84q-36 13 -333 129q-37 15 -69 27v31h438z" />
    <glyph glyph-name="Q.alt1" unicode="&#xf009;" horiz-adv-x="1738" 
d="M1154 1433q132 -53 231.5 -146t156 -203.5t77 -238t2 -250t-76.5 -238.5t-152 -205q278 -298 268 -722q-85 119 -218.5 184t-284.5 55q-3 174 -64 331h-539q-154 62 -263.5 177.5t-160.5 251t-51 288t50.5 288t160 251t263.5 177.5h601zM1055 84q-84 166 -226 282.5
t-320 160.5q104 -182 256 -303t290 -140zM1311 229q37 95 25 239q-23 294 -206 543q-138 187 -313 280q-171 91 -293 48q-134 -48 -153 -246q-6 -58 0 -128q16 -201 111 -388q118 -8 253.5 -44.5t294 -116t281.5 -187.5z" />
    <glyph glyph-name="Q.alt2" unicode="&#xf00a;" horiz-adv-x="1705" 
d="M1238 40q-39 -21 -85 -40h-599q-154 62 -263.5 177.5t-160.5 251t-51 288t50.5 288t160 251t263.5 177.5h601q147 -59 253.5 -167t159.5 -236t60.5 -272.5t-32 -277t-131.5 -250t-225 -190.5q1 0 2.5 1t2.5 2q18 10 19 11l24 -41q1 -2 3.5 -6t3.5 -6q46 -76 126 -105
t197 -31v-226q-81 24 -159 79q-88 63 -143 151l-21 37l-72 125q3 1 8 4t8 5zM409 762q29 93 114 136q95 49 193 8q75 -32 112 -97l89 -155l310 -537q130 88 109 351q-23 294 -206 543q-138 187 -313 280q-171 91 -293 48q-134 -48 -153 -246q-6 -58 0 -128q9 -103 38 -203z
M475 591l12 -24l3 -5q2 -5 6.5 -13t7.5 -13l1 -2q87 -155 212 -269t250 -159t218 -11l-239 413l-70 121v1l-90 155q-37 63 -106.5 84t-134.5 -13q-64 -33 -88 -102t5 -135q1 -3 5 -10t5 -11q0 -1 1 -3.5t2 -3.5z" />
    <glyph glyph-name="Q.alt3" unicode="&#xf00b;" horiz-adv-x="1705" 
d="M1154 1433q154 -62 263.5 -177.5t160 -251t50.5 -288t-51 -288t-160.5 -251t-263.5 -177.5l-624 -117h1100q-123 -204 -275 -262q-146 -55 -385 3q-151 36 -516 171q-166 62 -212 79l658 126h-345q-154 62 -263.5 177.5t-160.5 251t-51 288t50.5 288t160 251t263.5 177.5
h601zM371 965q23 -294 206 -543q138 -187 313 -280q171 -91 293 -48q134 48 153 246q6 58 0 128q-23 294 -206 543q-138 187 -313 280q-171 91 -293 48q-134 -48 -153 -246q-6 -58 0 -128z" />
    <glyph glyph-name="L.alt1" unicode="&#xf00c;" horiz-adv-x="860" 
d="M237 78v1227q0 33 -23.5 56.5t-56.5 23.5h-79v48h690v-48h-514l296 -295q59 -59 59 -143v-949q548 -70 723 -86q331 -29 793 -29q-176 -292 -470 -290q-46 0 -98.5 8t-93 17t-104.5 30t-95.5 32t-105.5 38.5t-98 36.5q-83 30 -128 45.5t-117 39.5t-114 35t-103 25
t-100 16.5t-89 3.5t-87 -7.5t-76 -24.5t-73 -40l-35 45q3 2 8.5 6t8.5 6q82 53 82 151v22z" />
    <glyph glyph-name="K.alt1" unicode="&#xf00d;" horiz-adv-x="1634" 
d="M768 1433v-48h-514l296 -295q59 -59 59 -143v-418l394 369q3 3 9 9.5t9 9.5q246 271 3 516h412q4 -31 5 -58.5t-6.5 -56t-16.5 -53.5t-24.5 -51t-31 -48.5t-36.5 -47t-41 -45t-44 -43t-45 -41.5t-44 -40q-17 -15 -26 -23t-22.5 -20.5t-24.5 -22.5l-85 -80l414 -692
q38 -64 111 -64h38v-47h-642v47h46q14 0 20.5 12t-0.5 24l-271 453q-16 -15 -50 -47.5t-51 -48.5v-312q0 -33 23.5 -57t56.5 -24h79v-47h-690v47h79q33 0 56.5 24t23.5 57v1177q0 33 -23.5 56.5t-56.5 23.5h-79v48h690z" />
    <glyph glyph-name="E.alt1" unicode="&#xf00e;" horiz-adv-x="1406" 
d="M609 128q0 -35 25 -58l17 -13l3 -2h2l19 -6q10 -2 149 -2q158 0 280 106.5t181 265.5l45 -17l-103 -402h-1149v47h79q33 0 56.5 24t23.5 57v1177q0 33 -23.5 56.5t-56.5 23.5h-79v48h1154l18 -306h-48l-4 72q-4 79 -61.5 132.5t-136.5 53.5h-746l296 -295q59 -59 59 -143
v-244q5 5 14 14.5t13 14.5q110 118 150 154q66 59 127 82.5t112 18.5t115 -32v-333q-47 57 -101 93.5t-114.5 50t-126.5 -6.5t-130 -75q-15 -14 -29 -29l-30 -33v-494z" />
    <glyph glyph-name="F.alt1" unicode="&#xf00f;" horiz-adv-x="1327" 
d="M470 0h-392v47h79q33 0 56.5 24t23.5 57v1177q0 33 -23.5 56.5t-56.5 23.5h-79v48h1154l18 -306h-48l-4 72q-4 79 -61.5 132.5t-136.5 53.5h-746l296 -295q59 -59 59 -143v-244q5 5 14 14.5t13 14.5q110 118 150 154q66 59 127 82.5t112 18.5t115 -32v-333
q-47 57 -101 93.5t-114 50t-126 -6.5t-130 -75q-21 -18 -30 -29l-30 -33v-494q0 -33 23.5 -57t56.5 -24h79v-47h-298z" />
    <glyph glyph-name="E.alt2" unicode="&#xf010;" horiz-adv-x="1406" 
d="M609 128q0 -35 25 -58l17 -13l3 -2h2l19 -6q10 -2 149 -2q158 0 280 106.5t181 265.5l45 -17l-103 -402h-1149v47h79q33 0 56.5 24t23.5 57v1177q0 33 -23.5 56.5t-56.5 23.5h-79v48h1154l18 -306h-48l-4 72q-4 79 -61.5 132.5t-136.5 53.5h-746l296 -295q59 -59 59 -143
v-125q23 17 53 17h308q57 0 86 44.5t36 114.5h48v-206h-478q-17 0 -29.5 -12.5t-12.5 -29.5t12.5 -30t29.5 -13h478v-205h-48q-15 158 -122 158h-308q-30 0 -53 17v-549z" />
    <glyph glyph-name="F.alt2" unicode="&#xf011;" horiz-adv-x="1327" 
d="M609 677v-549q0 -33 23.5 -57t56.5 -24h79v-47h-690v47h79q33 0 56.5 24t23.5 57v1177q0 33 -23.5 56.5t-56.5 23.5h-79v48h1154l18 -306h-48l-4 72q-4 79 -61.5 132.5t-136.5 53.5h-746l296 -295q59 -59 59 -143v-125q23 17 53 17h308q57 0 86 44.5t36 114.5h48v-206
h-478q-17 0 -29.5 -12.5t-12.5 -29.5t12.5 -30t29.5 -13h478v-205h-48q-15 158 -122 158h-308q-30 0 -53 17z" />
    <glyph glyph-name="H.alt1" unicode="&#xf012;" horiz-adv-x="1697" 
d="M609 773v-30q2 2 5.5 6.5t5.5 6.5q110 118 150 154q60 54 115 78t102.5 23.5t102.5 -19.5v313q0 33 -23.5 56.5t-56.5 23.5h-80v48h691v-48h-515l296 -295q59 -59 59 -143v-174v-645q0 -33 23.5 -57t56.5 -24h80v-47h-691v47h80q33 0 56.5 24t23.5 57v556
q-62 63 -130.5 91t-149 13.5t-157.5 -80.5q-15 -14 -29 -29l-15 -17v-534q0 -33 23.5 -57t56.5 -24h79v-47h-690v47h79q33 0 56.5 24t23.5 57v1177q0 33 -23.5 56.5t-56.5 23.5h-79v48h690v-48h-514l296 -295q59 -59 59 -143v-174z" />
    <glyph glyph-name="H.alt2" unicode="&#xf013;" horiz-adv-x="1697" 
d="M1621 1433v-48h-515l296 -295q59 -59 59 -143v-155h-799q-17 0 -29.5 -12.5t-12.5 -29.5t12.5 -30t29.5 -13h799v-579q0 -33 23.5 -57t56.5 -24h80v-47h-691v47h80q33 0 56.5 24t23.5 57v532h-428q-30 0 -53 17v-549q0 -33 23.5 -57t56.5 -24h79v-47h-690v47h79
q33 0 56.5 24t23.5 57v1177q0 33 -23.5 56.5t-56.5 23.5h-79v48h690v-48h-514l296 -295q59 -59 59 -143v-125q23 17 53 17h428v466q0 33 -23.5 56.5t-56.5 23.5h-80v48h691z" />
    <glyph glyph-name="a.alt1" unicode="&#xf014;" horiz-adv-x="1400" 
d="M791 803v137l-488 -201l-140 241h798q83 0 142.5 -59t59.5 -142v-651q0 -33 23.5 -56.5t56.5 -23.5h79v-48h-365q-49 0 -84 35t-35 84q0 -50 -33.5 -84.5t-82.5 -34.5h-450q-35 23 -67.5 81t-48 134.5t-11 153t50 145.5t128.5 104q65 28 182 74t201 78zM791 748
q-130 -59 -201.5 -151.5t-78.5 -185t17 -176t77 -135.5t109 -52q33 0 55 23.5t22 56.5v620z" />
    <glyph glyph-name="A.alt3" unicode="&#xf015;" horiz-adv-x="1718" 
d="M859 733l-39 99l-173 428l13 31l-252 -623q-84 -208 0 -414l103 -254h-433l520 1287q14 33 -5 64t-51 35h-28h-63v48h526l20 -48h-374l404 -257q98 -61 131 -143l353 -873q12 -30 38.5 -47.5t58.5 -17.5h32v-48h-664v48h91q25 0 38.5 20.5t4.5 43.5z" />
    <glyph glyph-name="www.dlig" unicode="&#xf016;" horiz-adv-x="4634" 
d="M4252 980h305l-364 -980h-335l-164 454l-169 -454h-334l-164 454l-169 -454h-335l-164 454l-168 -454h-335l-164 454l-169 -454h-334l-164 454l-169 -454h-335l-310 860q-14 34 -42.5 53t-65.5 19h-25v48h664v-48h-91q-25 0 -38 -20.5t-5 -43.5l246 -700l118 316l142 383
q9 21 -6 44q-15 21 -40 21h-71v48h413v-48h-91q-25 0 -38.5 -20.5t-5.5 -43.5l246 -700l118 316q28 75 29 154.5t-20 159.5t-66 182h495v-48h-91q-25 0 -38 -20.5t-5 -43.5l246 -700l117 316l143 383q9 21 -6 44q-15 21 -40 21h-71v48h413v-48h-91q-25 0 -38.5 -20.5
t-5.5 -43.5l246 -700l118 316q28 75 29 154.5t-20 159.5t-66 182h495v-48h-91q-25 0 -38 -20.5t-5 -43.5l246 -700l117 316l143 383q9 21 -6 44q-15 21 -40 21h-72v48h413v-48h-91q-25 0 -38 -20.5t-5 -43.5l246 -700l118 316q28 75 29 154.5t-20 159.5t-66 182zM3058 533v5
l-2 -5h2z" />
    <glyph glyph-name="ct.dlig" unicode="&#xf017;" horiz-adv-x="2050" 
d="M1735 932v-804q0 -35 38 -61q50 -33 99 -2q79 50 96 242h30v-307h-431q-84 0 -144 59.5t-60 143.5v729h-160v48h55q117 0 218.5 62.5t167.5 169.5l4 7q26 55 -14 100l-1 2h-1q-60 65 -148 65h-494q-84 0 -143.5 -59.5t-59.5 -143.5t59.5 -143.5t143.5 -59.5h29l18 -307
h-48q-3 43 -9 77.5t-20 69.5t-35.5 58.5t-56.5 38.5t-81 15h-251q-99 -4 -130 -136q-33 -139 20 -340q53 -204 156 -319q92 -104 194 -87q29 5 75 25.5t104.5 51.5t76.5 39v-67l-196 -99h-400q-128 42 -218.5 121t-133 171.5t-43 196.5t42 197t133 172t217.5 122h409
q-48 35 -76 88.5t-28 114.5q0 103 73.5 177t177.5 74h494q78 0 142.5 -45t91.5 -117q18 -49 17 -97v-195h273v-48h-273z" />
    <glyph glyph-name="sk.dlig" unicode="&#xf018;" horiz-adv-x="2492" 
d="M2404 48h38v-48h-642v48h46q14 0 20.5 12t-0.5 24l-176 294q-34 -38 -54 -75t-23 -55l-3 -18v-102q0 -33 23.5 -56.5t56.5 -23.5h79v-48h-690v48h79q33 0 56.5 23.5t23.5 56.5v1178q0 33 -23.5 56.5t-56.5 23.5h-246q-84 0 -143.5 -59.5t-59.5 -143.5t59.5 -143.5
t143.5 -59.5h29l18 -306h-48q-3 55 -13 96.5t-31 80.5t-61 60t-97 21h-336q-55 0 -85.5 -21.5t-32 -50t23.5 -58t70 -44.5q42 -14 107.5 -32t119.5 -32t119 -35t115 -42.5t98 -54.5t77 -70.5t42.5 -90t4.5 -114.5q-15 -101 -89.5 -181t-180.5 -106h-527q-25 8 -45.5 17
t-42.5 23.5t-30.5 20.5t-35 28t-32.5 26l214 183q25 -27 62 -69t55.5 -62t43.5 -43t48 -37q94 -57 204 -36q87 16 119 71q39 67 -45 143q-12 11 -27 22q-55 40 -153 71.5t-207.5 61t-171.5 61.5q-64 32 -98.5 83.5t-38 106t16.5 110.5t58.5 100t96.5 71.5t122 27.5h417
q-48 35 -76 88.5t-28 114.5q0 103 73.5 177t177.5 74h569q27 0 55 -13q10 -3 22 -8h-7q59 -39 59 -107v-901l343 363q41 43 54.5 79.5t-12.5 60.5t-95 24v48h472v-48q-50 0 -86 -6.5t-64.5 -17t-64 -39.5t-65 -58t-86.5 -88q-30 -31 -51 -54l339 -558q38 -63 110 -63z" />
    <glyph glyph-name="ck.dlig" unicode="&#xf019;" horiz-adv-x="2580" 
d="M2492 48h39v-48h-642v48h46q14 0 20 12t-1 24l-176 294q-34 -38 -54 -75t-23 -55l-3 -18v-102q0 -33 23.5 -56.5t56.5 -23.5h79v-48h-690v48h79q33 0 57 23.5t24 56.5v1178q0 33 -24 56.5t-57 23.5h-246q-84 0 -143.5 -59.5t-59.5 -143.5t59.5 -143.5t143.5 -59.5h29
l18 -307h-48q-3 43 -9 77.5t-20 69.5t-35.5 58.5t-56.5 38.5t-81 15h-251q-99 -4 -130 -136q-33 -139 20 -340q53 -204 156 -319q92 -104 194 -87q29 5 75 25.5t104.5 51.5t76.5 39v-67l-196 -99h-399q-128 42 -219 121t-133.5 171.5t-42.5 196.5t42 197t132.5 172
t217.5 122h409q-48 35 -76 88.5t-28 114.5q0 103 73.5 177t177.5 74h569q53 0 91 -37.5t38 -90.5v-901l343 363q41 43 54.5 79.5t-12.5 60.5t-95 24v48h472v-48q-50 0 -85.5 -6.5t-64.5 -17t-64.5 -39.5t-64.5 -57.5t-86 -88.5q-30 -31 -51 -54l338 -558q38 -63 110 -63z
" />
    <glyph glyph-name="si.dlig" unicode="&#xf01a;" horiz-adv-x="1865" 
d="M1737 48h79v-48h-690v48h79q33 0 57 23.5t24 56.5v724q0 33 -24 56.5t-57 23.5h-832q-55 0 -85.5 -21.5t-32 -50t23.5 -58t70 -44.5q42 -14 107.5 -32t119.5 -32t119 -35t115 -42.5t98 -54.5t77 -70.5t42.5 -90t4.5 -114.5q-15 -101 -89.5 -181t-180.5 -106h-527
q-25 8 -45.5 17t-42.5 23.5t-30.5 20.5t-35 28t-32.5 26l214 183q25 -27 62 -69t55.5 -62t43.5 -43t48 -37q94 -57 204 -37q87 17 118 71q40 67 -44 143q-12 11 -27 22q-55 40 -153 71.5t-207.5 62t-171.5 61.5q-64 32 -98.5 83.5t-38 106t16.5 110.5t58.5 100t96.5 71.5
t122 27.5h1180q53 0 91 -37.5t38 -90.5v-724q0 -33 23.5 -56.5t56.5 -23.5zM1516 1047q-79 -19 -148 24t-88 122t24 148t122 88t148 -24t88 -122t-24 -148t-122 -88z" />
    <glyph glyph-name="gi.dlig" unicode="&#xf01b;" horiz-adv-x="2093" 
d="M1964 48h79v-48h-690v48h79q33 0 57 23.5t24 56.5v724q0 33 -24 56.5t-57 23.5h-79v48h402q53 0 91 -37.5t38 -90.5v-724q-3 -32 21.5 -56t58.5 -24zM1145 -305v-1v1zM237 66q-17 0 -29.5 -12.5t-12.5 -29.5t12.5 -29.5t29.5 -12.5h820q59 0 94 -14q57 -24 79 -80.5
t-1 -113.5t-84 -80q-64 -24 -211 -61t-155 -39q-174 -54 -305.5 -47t-229 78.5t-184.5 224.5h1022q24 0 35.5 19t4 39.5t-31.5 25.5h-853q-53 0 -79 48q-24 44 2 88t77 44h66q-91 48 -151.5 123t-84.5 158.5t-14 173t52 168t123 144t190 99.5h421q26 36 62 62q69 48 150 48
h519q-68 60 -68 148q0 81 57.5 138.5t138.5 57.5t138.5 -57.5t57.5 -138.5q0 -80 -56 -137.5t-136 -58.5h-4h-1h-59h-603q-84 0 -149 -63q118 -38 202.5 -111t123 -160.5t38.5 -185.5t-40 -185.5t-124.5 -160.5t-203.5 -110h-645zM930 347q-6 200 -130 373q-94 129 -205 178
q-112 50 -174 -12q-55 -55 -51 -186q6 -200 130 -373q94 -129 205 -178q112 -50 174 12q55 55 51 186z" />
    <glyph glyph-name="WWW.dlig" unicode="&#xf01c;" horiz-adv-x="5648" 
d="M1231 1179l-103 255h156v-48h-20q-20 0 -31 -17t-4 -34l146 -363l93 -229q87 -217 0 -434l-59 -145q-17 -42 8 -79t65 -37h233q-16 2 -27 7q-23 12 -32.5 36.5t0.5 51.5l251 622q83 207 0 414l-57 142l-46 113h502v-48h-20q-20 0 -31 -17t-4 -34l223 -552q87 -217 0 -435
l-74 -184q-17 -42 7.5 -79t64.5 -37h234q-18 2 -28 7q-23 12 -32.5 36.5t0.5 51.5l251 622q83 207 0 414l-103 255h156v-48h-20q-20 0 -31 -17t-4 -34l146 -363l93 -229q87 -217 0 -435l-58 -144q-17 -42 7.5 -79t64.5 -37h234q-18 2 -28 7q-23 12 -32.5 36.5t0.5 51.5
l251 622q83 207 0 414l-57 142l-46 113h502v-48h-20q-20 0 -31 -17q-10 -16 -3 -34l222 -552q87 -217 0 -435l-74 -184q-17 -42 7.5 -79t64.5 -37h234q-16 2 -27 7q-23 12 -33 37t0 51l251 622q83 207 0 414l-102 255h155v-48h-20q-20 0 -31 -17t-4 -34l147 -363l92 -229
q87 -217 0 -435l-58 -144q-17 -42 7.5 -79t64.5 -37h234q-16 2 -27 7q-23 12 -33 37t0 51l251 622q83 207 0 414l-102 255h433l-520 -1288q-15 -35 6.5 -66.5t55.5 -31.5h115v-48h-414q-41 0 -73.5 22t-47.5 59l-136 337l-36 90l-146 -362q-15 -35 6.5 -66.5t55.5 -31.5h115
v-48h-414q-41 0 -73.5 22t-47.5 59l-136 337l-193 479l-303 -751q-15 -35 6.5 -66.5t55.5 -31.5h115v-48h-414q-41 0 -73.5 22t-47.5 59l-136 337l-36 90l-146 -362q-15 -35 6.5 -66.5t55.5 -31.5h115v-48h-414q-41 0 -73.5 22t-47.5 59l-136 337l-193 479l-303 -751
q-15 -35 6 -66.5t55 -31.5h115v-48h-414q-41 0 -73 22t-47 59l-136 337l-36 90l-146 -362q-15 -35 6 -66.5t55 -31.5h115v-48h-414q-41 0 -73 22t-47 59l-136 337l-365 903q-12 30 -38.5 47.5t-58.5 17.5h-8v48h562v-48h-20q-20 0 -31 -17t-4 -34l223 -552q87 -217 0 -435
l-75 -184q-17 -42 8 -79t65 -37h233q-16 2 -27 7q-23 12 -32.5 36.5t0.5 51.5l251 622q83 207 0 414z" />
    <glyph glyph-name="MU.dlig" unicode="&#xf01d;" horiz-adv-x="2992" 
d="M2915 1434v-48h-515l296 -296q59 -59 59 -143v-664q0 -100 -84.5 -172.5t-224.5 -110.5h-605q-140 38 -224.5 110.5t-84.5 172.5v1014l-462 -1260l-357 236q-99 65 -131 144l-213 527v383q0 17 -12.5 29.5t-29.5 12.5t-29.5 -12.5t-12.5 -29.5v-1199q0 -33 23.5 -56.5
t56.5 -23.5h80v-48h-367v48h79q33 0 56.5 23.5t23.5 56.5v1178q0 33 -23.5 56.5t-56.5 23.5h-79v48h494l492 -1260l437 1194q-23 18 -50 18h-79v48h691v-48h-515l296 -296q59 -59 59 -143v-795q0 -25 8.5 -43.5t28 -29.5t37.5 -17.5t51 -9.5t54.5 -3.5t60.5 -0.5t60.5 0.5
t54.5 3.5t51.5 9.5t38 17.5t28 29.5t8.5 43.5v1154q0 33 -23.5 56.5t-56.5 23.5h-80v48h691z" />
    <glyph glyph-name="HU.dlig" unicode="&#xf01e;" horiz-adv-x="2551" 
d="M930 1434h691v-48h-515l296 -296q59 -59 59 -143v-795q0 -25 8.5 -43.5t28 -29.5t38 -17.5t51.5 -9.5t54.5 -3.5t60.5 -0.5t60.5 0.5t54.5 3.5t51 9.5t37.5 17.5t28 29.5t8.5 43.5v1154q0 33 -23.5 56.5t-56.5 23.5h-79v48h690v-48h-514l295 -296q59 -59 59 -143v-664
q0 -101 -84 -173t-224 -110h-606q-140 38 -224.5 110.5t-84.5 172.5v443h-481v-598q0 -33 23.5 -56.5t56.5 -23.5h79v-48h-690v48h79q33 0 56.5 23.5t23.5 56.5v1178q0 33 -23.5 56.5t-56.5 23.5h-79v48h690v-48h-514l296 -296q59 -59 59 -143v-173h481v532q0 33 -23.5 56.5
t-56.5 23.5h-80v48z" />
    <glyph glyph-name="UR.dlig" unicode="&#xf01f;" horiz-adv-x="2478" 
d="M930 1434h963q155 0 261 -114.5t96 -268.5h1q0 -148 -105 -253.5t-253 -104.5l-375 1l359 -132q131 -46 206 -171l167 -280q38 -63 111 -63h38v-48h-642v48h46q14 0 20.5 12t-0.5 24l-362 605v-457h-6q-20 -81 -100.5 -140t-202.5 -92h-606q-140 38 -224.5 110.5
t-84.5 172.5v1023q0 33 -23.5 56.5t-56.5 23.5h-79v48h690v-48h-514l296 -296q59 -59 59 -143v-795q0 -25 8.5 -43.5t28 -29.5t37.5 -17.5t51 -9.5t54.5 -3.5t60.5 -0.5t60.5 0.5t54.5 3.5t51.5 9.5t38 17.5t28 29.5t8.5 43.5v1154q0 33 -23.5 56.5t-56.5 23.5h-80v48z
M1461 741h143q130 0 223.5 90.5t98.5 219.5v24q-5 129 -98.5 220t-223.5 91h-498l296 -296q59 -59 59 -143v-206z" />
    <glyph glyph-name="UP.dlig" unicode="&#xf020;" horiz-adv-x="2328" 
d="M930 1434h963q155 0 261 -114.5t96 -268.5h1q0 -148 -105 -253t-253 -105l-432 1v-411q0 -100 -84.5 -172.5t-224.5 -110.5h-606q-140 38 -224.5 110.5t-84.5 172.5v1023q0 33 -23.5 56.5t-56.5 23.5h-79v48h690v-48h-514l296 -296q59 -59 59 -143v-795q0 -25 8.5 -43.5
t28 -29.5t37.5 -17.5t51 -9.5t54.5 -3.5t60.5 -0.5t60.5 0.5t54.5 3.5t51.5 9.5t38 17.5t28 29.5t8.5 43.5v1154q0 33 -23.5 56.5t-56.5 23.5h-80v48zM1461 741h143q130 0 223.5 90.5t98.5 219.5v24q-5 129 -98.5 220t-223.5 91h-498l296 -296q59 -59 59 -143v-206z" />
    <glyph glyph-name="UH.dlig" unicode="&#xf021;" horiz-adv-x="2551" 
d="M930 1434h691v-48h-515l296 -296q59 -59 59 -143v-173h481v532q0 33 -23.5 56.5t-56.5 23.5h-79v48h690v-48h-514l295 -296q59 -59 59 -143v-819q0 -33 24 -56.5t57 -23.5h79v-48h-690v48h79q33 0 56.5 23.5t23.5 56.5v598h-481v-443q0 -100 -84.5 -172.5t-224.5 -110.5
h-606q-140 38 -224.5 110.5t-84.5 172.5v1023q0 33 -23.5 56.5t-56.5 23.5h-79v48h690v-48h-514l296 -296q59 -59 59 -143v-795q0 -25 8.5 -43.5t28 -29.5t37.5 -17.5t51 -9.5t54.5 -3.5t60.5 -0.5t60.5 0.5t54.5 3.5t51.5 9.5t38 17.5t28 29.5t8.5 43.5v1154
q0 33 -23.5 56.5t-56.5 23.5h-80v48z" />
    <glyph glyph-name="NN.dlig" unicode="&#xf022;" horiz-adv-x="2826" 
d="M1521 955v372q0 17 -12.5 29.5t-29.5 12.5t-29.5 -12.5t-12.5 -29.5v-1327h-113l-955 955v372q0 17 -12.5 29.5t-29.5 12.5t-29.5 -12.5t-12.5 -29.5v-1199q0 -33 23.5 -56.5t56.5 -23.5h80v-48h-367v48h79q33 0 56.5 23.5t23.5 56.5v1178q0 33 -23.5 56.5t-56.5 23.5
h-79v48h338l973 -974v899q0 24 13.5 43t34.5 27q13 5 27 5h58q46 0 78 -32l941 -942v846q0 33 -23.5 56.5t-56.5 23.5h-79v48h367v-48h-80q-33 0 -56.5 -23.5t-23.5 -56.5v-1306h-113z" />
    <glyph glyph-name="LN.dlig" unicode="&#xf023;" horiz-adv-x="2562" 
d="M609 128q0 -35 25 -58l17 -12l3 -2h1l1 -1l19 -6q5 -1 149 -1q158 0 280 106.5t181 265.5l45 -18l-103 -402h-1149v48h79q33 0 56.5 23.5t23.5 56.5v1178q0 33 -23.5 56.5t-56.5 23.5h-79v48h690v-48h-514l296 -296q59 -59 59 -143v-819zM1258 955v372q0 17 -12.5 29.5
t-29.5 12.5t-30 -12.5t-13 -29.5v-718q0 -33 24 -57t57 -24h79v-48h-367v48h79q33 0 57 24t24 57v697q0 33 -24 56.5t-57 23.5h-79v48h338l974 -974v846q0 33 -24 56.5t-57 23.5h-79v48h367v-48h-79q-33 0 -57 -23.5t-24 -56.5v-1306h-113z" />
    <glyph glyph-name="LM.dlig" unicode="&#xf024;" horiz-adv-x="3028" 
d="M609 947v-819q0 -35 25 -58l17 -12l3 -2l2 -1l19 -6q5 -1 149 -1q158 0 280 106.5t181 265.5l45 -18l-103 -402h-1149v48h79q33 0 56.5 23.5t23.5 56.5v1178q0 33 -23.5 56.5t-56.5 23.5h-79v48h690v-48h-514l296 -296q59 -59 59 -143zM2448 1374l284 -284
q59 -59 59 -143v-819q0 -20 9 -36v-1l1 -1l1 -2l1 -1v-1l1 -1l1 -2l1 -1v-1h1l1 -1v-1l1 -1l1 -1l1 -1v-1h1v-1l1 -1h1l1 -1v-1l1 -1v0l1 -1h1l1 -1v-1l1 -1h1l1 -1l1 -1h1l1 -1l1 -1h1l1 -1v-1h2l1 -1l1 -1h1v-1h2l1 -1h1l1 -1h1l1 -1h2v-1h2v0l2 -1h1l1 -1v0h1h1l1 -1h1h1
h1h1v-1h2h1h1l4 -1h2h2h1h1h2h80v-48h-691v48h80q33 0 56.5 23.5t23.5 56.5v1169l-219 -599l-220 -599l-23 -62l-45 30l-311 206q-101 66 -132 144l-212 527v383q0 17 -12.5 29.5t-29.5 12.5t-30 -12.5t-13 -29.5v-719q0 -33 24 -56.5t57 -23.5h79v-48h-367v48h79
q33 0 57 23.5t24 56.5v698q0 33 -24 56.5t-57 23.5h-79v48h495l392 -1007l99 -253l191 523l246 671l24 66h538v-48h-515z" />
    <glyph glyph-name="TT.dlig" unicode="&#xf025;" horiz-adv-x="2351" 
d="M1122 0h-690v48h79q33 0 56.5 23.5t23.5 56.5v1178q0 33 -24 57q-30 28 -94 11q-118 -32 -211.5 -133.5t-139.5 -226.5l-44 17l102 403h1992l102 -403l-45 -17q-59 160 -181 266t-281 106h-361l296 -296q59 -59 59 -143v-819q0 -33 23.5 -56.5t56.5 -23.5h79v-48h-690v48
h79q33 0 56.5 23.5t23.5 56.5v1178q0 33 -23 57t-56 23h-702l296 -296q59 -59 59 -143v-819q0 -33 23.5 -56.5t56.5 -23.5h79v-48z" />
    <glyph glyph-name="A.alt4" unicode="&#xf026;" horiz-adv-x="1579" 
d="M451 1434h1050v-48h-514l296 -296q59 -59 59 -143v-819q0 -33 23.5 -56.5t56.5 -23.5h79v-48h-690v48h79q33 0 56.5 23.5t23.5 56.5v388h-600q-14 -133 38 -262l103 -254h-433l520 1287q14 33 -5 64t-51 35h-28h-63v48zM890 1386h-93h-197q35 -2 54 -32t6 -63l-251 -620
q-16 -38 8 -72.5t65 -34.5h488v742q0 33 -23.5 56.5t-56.5 23.5z" />
    <glyph glyph-name="O.alt1" unicode="&#xf027;" horiz-adv-x="1705" 
d="M1154 1434q154 -62 263.5 -177.5t160 -251.5t50.5 -288t-51 -288t-160.5 -251.5t-263.5 -177.5h-599q-154 62 -263.5 177.5t-160.5 251.5t-51 288t50.5 288t160 251.5t263.5 177.5h601zM900 787l113 25l-76 -88q-19 -22 -6 -51l171 -374l-246 329q-20 25 -49 19l-113 -25
l76 87q20 23 6 52l-171 374l246 -329q20 -25 49 -19zM371 966q23 -294 206 -544q138 -187 313 -280q171 -91 293 -47q134 47 153 245q6 58 0 128q-23 294 -206 544q-138 187 -313 280q-171 91 -293 47q-134 -47 -153 -245q-6 -58 0 -128z" />
    <glyph glyph-name="st.dlig" unicode="&#xfb06;" horiz-adv-x="1980" 
d="M1657 932v-804q0 -36 39 -61q51 -34 101 -1q77 52 94 241h29v-307h-430q-84 0 -144.5 59.5t-60.5 143.5v729h-160v48h55q117 0 218.5 62.5t167.5 169.5l5 7q26 54 -15 100l-1 2h-1q-60 65 -148 65h-494q-84 0 -143.5 -59.5t-59.5 -143.5t59.5 -143.5t143.5 -59.5h29
l3 -48l15 -259h-48q-3 43 -9 77.5t-20 69.5t-35.5 58.5t-56.5 38.5t-81 15h-336q-55 0 -85.5 -21.5t-32 -50t23.5 -58t70 -44.5q42 -14 107.5 -32t119.5 -32t119 -35t115 -42.5t98 -54.5t77 -70.5t42.5 -90t4.5 -114.5q-15 -101 -89.5 -181t-180.5 -106h-527q-25 8 -45.5 17
t-42.5 23.5t-30.5 20.5t-35 28t-32.5 26l214 183q25 -27 62 -69t55.5 -62t43.5 -43t48 -37q94 -57 204 -37q87 17 118 71q40 67 -44 143q-12 11 -27 22q-55 40 -153 71.5t-207.5 62t-171.5 61.5q-64 32 -98.5 83.5t-38 106t16.5 110.5t58.5 100t96.5 71.5t122 27.5h417
q-48 35 -76 88.5t-28 114.5q0 103 73.5 177t177.5 74h494q78 0 142.5 -45t91.5 -117q18 -49 17 -97v-195h274v-48h-274z" />
    </font>
</defs>
</svg>
